<svg width="113" height="49" viewBox="0 0 113 49" fill="none" xmlns="http://www.w3.org/2000/svg">
<path d="M11.5 0H100.5L113 49H0L11.5 0Z" fill="#333333"/>
<path d="M39.88 27.48L39.6 31.84L39.36 32.16L39.64 32.4L39.36 35.6L38.76 36.24L36.52 36.92L33.44 36.88L32.88 37.04L31.12 36.48L30.2 37C29.48 36.88 28.2 36.76 27.52 36.68L26.24 35.4L26 33.36L25.64 32.72L25.8 31.52L25.48 30.12C25.6 28.52 25.56 27.12 25.84 25.52L25.44 24.96L25.6 22.92L25.24 22.6L25.64 18.48C25.12 15.8 25.56 13.28 25.72 12.12L26.88 10.96L28.6 10.56C28.6 10.56 30.16 10.48 31.44 10.2L31.8 10.56L32.92 10.2L35.56 10.56L35.88 10.2L37.08 10.56L37.32 10.2L39 11.32L39.4 13.2L39.68 13.48L39.2 14.36L39.6 15.28L39.44 18.32L39.8 18.64L39.48 22.12L39.8 22.44L39.56 24.28C39.88 24.84 39.84 26.32 39.84 26.96L39.56 27.24L39.88 27.48ZM35.08 27.28C35 26.64 34.6 25.88 34.56 25.24C34.52 24.24 34.8 23 34.88 21.96L34.56 21.72L34.72 17.32L34.44 17.04L34.68 16.72L34.28 15.28L34.52 15L34.24 14.64L34.48 14.36L34.4 13.8L34.12 13.48L32.08 13.8L30.84 13.48L30.12 14.64L30.44 15L30.12 21.72L30.44 21.96C30.52 22.28 30.36 23.44 30.32 23.8L30.64 24.08C30.76 25.76 30.6 27.56 30.4 29.2L30.68 29.48C30.92 30.96 30.36 32.28 31.08 33.56H31.68C32.36 33 33.52 33.68 33.52 33.68L34.8 33.24C34.92 31.36 35.2 28.36 35.08 27.28ZM57.5894 37.68L57.3894 38.16L55.4694 37.2L54.5894 36.2L53.4694 35.8L52.6694 34.28L50.5494 31.24L48.7894 28.04L48.5094 27.76L47.9894 28.36L47.9494 29.2L47.5094 31.4L47.7894 31.72L47.5094 37.52L47.1894 37.76L46.0294 36.72L44.8294 36.44L43.7494 35.48L43.3894 34.12L43.4294 29.4L43.1494 29.08L43.3894 25.88L43.0694 25.56L43.5094 19.68L43.1894 19.44L43.3094 14.24L42.8294 13.64L42.4694 11.68L42.1894 11.04L42.3894 10.48L45.7094 10.2L47.3894 10.48L47.5494 10.76L47.7094 14.08L47.4694 14.28L47.8694 16.2L47.4694 17.36L47.8294 18.84L47.7494 20.6L48.0294 20.92L49.4694 19.12L49.4294 18.28L51.7094 13.28L51.7494 10.88L52.1094 10.52L56.3094 10.36L56.5894 10.64L55.9094 13.56L54.2294 16.8L53.5494 19.68L52.3894 22.08L51.7494 24.12L52.5094 26.2L53.4694 27.88L55.5894 32.56L56.1894 33.2L56.6294 34.88L57.5894 37.68ZM73.7528 37.76L73.5128 38.04L71.6328 36.88L70.6728 35.8L69.7128 35.36L68.9128 33.48V32.52L67.8328 29.96L67.1528 29.4H66.5528L66.2328 29.68L65.6328 29.4L63.3928 29.68L63.0328 29.4L62.3128 34.12L61.8328 38.16L61.1128 38.36L60.3528 37.08L59.7528 36L59.0728 34.92C59.0728 34.92 58.4728 32.8 59.2728 30.52L58.9528 30.2L59.4328 29L59.6328 27.32L59.9928 25.48V23.52L60.8328 22.04L61.1128 18.52L61.4728 17.04L61.2728 15.92L62.1528 14.08C61.8328 13.12 61.7128 11.32 61.7928 10.36C64.3128 10.08 66.3928 10.2 68.9128 10.32L69.1928 10.68L70.8728 21.08L71.1928 21.36L70.9928 22.32L71.6728 26.4L71.9528 26.68L71.7128 26.96L72.7528 31.04L72.5928 31.96L73.2728 32.8C73.3528 33.36 73.7528 37.64 73.7528 37.76ZM67.3528 25.44C67.0728 24 66.7528 22.52 66.5528 21.08C66.3928 20.04 66.4728 18.92 66.3128 17.88C66.2728 17.76 65.7928 16.68 65.7128 16.52L64.2728 20.64L64.1528 21.48V22.2C63.7928 23.24 63.6728 24.48 63.5528 25.56L65.3528 25.88L67.3528 25.44ZM88.2256 10.84L86.9456 14.72L87.3056 15C86.3456 16.32 85.9056 18.76 85.4256 21.16C84.9456 23.72 84.4656 25.76 83.7856 27.32C83.6656 29.24 82.9856 29.28 83.3856 31.2L82.6656 31.92L83.1456 32.96L82.9456 36.68L82.6656 36.84L83.0256 37.28L82.8256 38.36L82.3856 38.52L80.8656 37.12L79.3856 36.4L78.7456 35.56V34.28C78.5856 33.6 78.7856 34.2 78.6656 33.36L79.1056 32.28L78.7856 32L78.4656 29.92C77.2656 27.96 77.2256 25.92 76.6656 23.8C76.3056 22.52 75.7856 21.24 75.3456 20C75.3456 19.92 75.3456 19.8 75.3456 19.68L75.5856 19.4L74.8656 18.52L73.8656 14.6L73.4256 14.04L72.9056 12.84L72.1056 11.2L72.0256 10.64C73.3456 10.32 75.2256 10.2 76.5456 10.64L76.7856 10.32L77.7456 10.64L79.6256 17.32L79.3856 17.68L80.0656 18.84L79.7856 19.12C80.1056 20.24 80.4656 21.76 81.1056 22.8C81.2656 22.44 81.6256 22 81.9056 21.76C82.0656 20.76 82.5856 17.72 83.0656 15C83.4256 13.12 83.7056 11.4 83.8256 10.64L84.3856 10.2L87.9056 10.28L88.2256 10.84Z" fill="#FEF8D4"/>
</svg>
