<svg width="306" height="213" viewBox="0 0 306 213" fill="none" xmlns="http://www.w3.org/2000/svg">
<rect width="306" height="213" rx="31" fill="#5A7071"/>
<path d="M25.2698 50.816C24.9178 51.296 25.1098 53.216 25.0778 53.792L24.4378 55.264L23.6698 55.936L22.0378 56.096L20.9178 55.84L20.1498 56.224L17.4618 55.616L16.7898 55.072L16.0218 54.112L16.3418 53.664L18.4858 53.696L19.8618 53.504L21.0778 53.408L21.3658 50.688L20.9178 50.24C20.7898 49.696 20.5338 49.184 20.2138 48.64C19.7658 47.872 19.1898 47.104 18.8058 46.368C18.8058 46.368 18.8058 46.016 18.7098 45.856C17.7498 44.16 16.8538 43.104 16.2458 41.376C16.1497 41.12 16.3418 40.8 16.2458 40.512L16.0218 39.744L16.4058 35.616L17.0778 34.912L21.4298 34.592L21.7178 34.848L24.7258 34.56L24.9818 35.2C24.6618 36.192 24.5017 37.984 23.6698 39.2L23.3818 39.136L21.9418 37.184L21.6858 37.408L20.7258 37.184L19.7977 37.472L19.8298 39.456C20.0858 40.16 20.6298 41.344 20.6298 41.344L21.8138 43.744L21.8778 44.224C22.7738 44.736 24.3738 48 25.1418 49.152L25.2698 50.816ZM38.7353 48.384L38.5113 51.872L38.3193 52.128L38.5433 52.32L38.3193 54.88L37.8393 55.392L36.0473 55.936L33.5833 55.904L33.1353 56.032L31.7273 55.584L30.9913 56C30.4153 55.904 29.3913 55.808 28.8473 55.744L27.8233 54.72L27.6313 53.088L27.3433 52.576L27.4713 51.616L27.2153 50.496C27.3113 49.216 27.2793 48.096 27.5033 46.816L27.1833 46.368L27.3113 44.736L27.0233 44.48L27.3433 41.184C26.9273 39.04 27.2793 37.024 27.4073 36.096L28.3353 35.168L29.7113 34.848C29.7113 34.848 30.9593 34.784 31.9833 34.56L32.2713 34.848L33.1673 34.56L35.2793 34.848L35.5353 34.56L36.4953 34.848L36.6873 34.56L38.0313 35.456L38.3513 36.96L38.5753 37.184L38.1913 37.888L38.5113 38.624L38.3833 41.056L38.6713 41.312L38.4153 44.096L38.6713 44.352L38.4793 45.824C38.7353 46.272 38.7033 47.456 38.7033 47.968L38.4793 48.192L38.7353 48.384ZM34.8953 48.224C34.8313 47.712 34.5113 47.104 34.4792 46.592C34.4473 45.792 34.6713 44.8 34.7353 43.968L34.4792 43.776L34.6073 40.256L34.3833 40.032L34.5753 39.776L34.2552 38.624L34.4473 38.4L34.2233 38.112L34.4153 37.888L34.3513 37.44L34.1273 37.184L32.4953 37.44L31.5033 37.184L30.9273 38.112L31.1833 38.4L30.9273 43.776L31.1833 43.968C31.2473 44.224 31.1193 45.152 31.0873 45.44L31.3433 45.664C31.4393 47.008 31.3113 48.448 31.1513 49.76L31.3753 49.984C31.5673 51.168 31.1193 52.224 31.6953 53.248H32.1753C32.7193 52.8 33.6473 53.344 33.6473 53.344L34.6713 52.992C34.7673 51.488 34.9913 49.088 34.8953 48.224ZM52.4548 56.32L52.0708 56.864C51.9108 56.8 51.5588 56.512 50.9828 56.224C50.9188 56.16 50.7268 55.904 50.6628 55.872C50.5028 55.808 50.4708 55.936 50.3108 55.904C49.7988 55.68 49.1908 54.656 49.1908 54.656L48.5828 54.4L48.7748 54.048L48.2628 53.536C48.2628 53.536 47.2708 50.688 46.5668 48.992L46.5348 48.512L46.0228 48.064L44.9028 48.8L44.5508 49.312L44.8708 49.984C44.6148 51.968 44.1028 51.136 44.4227 52.608L43.9427 53.152L44.4548 53.312L44.4227 56.704L43.6868 56.608L43.1428 56.064L42.6628 55.456L41.9268 55.328C41.8948 55.2 41.3828 54.432 41.3828 54.432L41.3188 52.032L41.0628 51.808C41.2548 51.36 41.2548 50.912 41.1588 50.464L40.9028 50.24L41.2868 48.992C41.1588 48.512 40.9028 47.808 40.9028 47.328C40.8388 46.336 41.0628 45.28 41.0948 44.288C41.1268 42.272 41.0308 40.224 40.9988 38.208L41.2228 37.984L40.8708 37.664L40.2948 35.04L41.2868 34.656L42.2468 34.88L44.5508 34.656L45.0628 34.88C46.9828 34.464 47.6228 35.04 49.1908 34.88L49.3828 34.656C50.0228 34.976 50.5028 36.288 51.3348 36.832L51.2388 38.048L51.0148 38.304L51.2708 38.528L51.1748 41.12L51.5268 42.272L51.1748 43.136L51.3988 43.616C51.2708 44.384 50.2148 45.6 49.7028 46.08L49.5428 46.784L50.5668 50.272L50.6308 50.976L51.2068 52.064L51.1108 52.448L51.4948 52.736L52.4548 56.32ZM47.5268 39.424C47.5588 39.232 47.3028 38.688 47.2388 38.496L47.3988 37.76L46.8868 37.344H46.3108L45.8628 37.568L45.2548 37.344H45.0308L44.5828 37.76C44.5508 38.624 44.4548 39.584 44.7108 40.352L44.2948 41.088L44.5508 41.312C44.3908 42.144 44.4227 43.616 44.8068 44.384L44.5828 44.608L44.7108 45.792C45.3508 44.928 46.6948 44.352 47.3028 43.488L47.4628 42.56L47.2068 42.336L47.3988 42.08C47.3348 41.696 47.3668 41.248 47.3988 40.832L47.1108 39.904L47.5268 39.424ZM65.3298 56.32L64.9458 56.864C64.7858 56.8 64.4338 56.512 63.8578 56.224C63.7938 56.16 63.6018 55.904 63.5378 55.872C63.3778 55.808 63.3458 55.936 63.1858 55.904C62.6738 55.68 62.0658 54.656 62.0658 54.656L61.4578 54.4L61.6498 54.048L61.1378 53.536C61.1378 53.536 60.1458 50.688 59.4418 48.992L59.4098 48.512L58.8978 48.064L57.7778 48.8L57.4258 49.312L57.7458 49.984C57.4898 51.968 56.9778 51.136 57.2977 52.608L56.8177 53.152L57.3298 53.312L57.2977 56.704L56.5618 56.608L56.0178 56.064L55.5378 55.456L54.8018 55.328C54.7698 55.2 54.2578 54.432 54.2578 54.432L54.1938 52.032L53.9378 51.808C54.1298 51.36 54.1298 50.912 54.0338 50.464L53.7778 50.24L54.1618 48.992C54.0338 48.512 53.7778 47.808 53.7778 47.328C53.7138 46.336 53.9378 45.28 53.9698 44.288C54.0018 42.272 53.9058 40.224 53.8738 38.208L54.0978 37.984L53.7458 37.664L53.1698 35.04L54.1618 34.656L55.1218 34.88L57.4258 34.656L57.9378 34.88C59.8578 34.464 60.4978 35.04 62.0658 34.88L62.2578 34.656C62.8978 34.976 63.3778 36.288 64.2098 36.832L64.1138 38.048L63.8898 38.304L64.1458 38.528L64.0498 41.12L64.4018 42.272L64.0498 43.136L64.2738 43.616C64.1458 44.384 63.0898 45.6 62.5778 46.08L62.4178 46.784L63.4418 50.272L63.5058 50.976L64.0818 52.064L63.9858 52.448L64.3698 52.736L65.3298 56.32ZM60.4018 39.424C60.4338 39.232 60.1778 38.688 60.1138 38.496L60.2738 37.76L59.7618 37.344H59.1858L58.7378 37.568L58.1298 37.344H57.9058L57.4578 37.76C57.4258 38.624 57.3298 39.584 57.5858 40.352L57.1698 41.088L57.4258 41.312C57.2658 42.144 57.2977 43.616 57.6818 44.384L57.4578 44.608L57.5858 45.792C58.2258 44.928 59.5698 44.352 60.1778 43.488L60.3378 42.56L60.0818 42.336L60.2738 42.08C60.2098 41.696 60.2418 41.248 60.2738 40.832L59.9858 39.904L60.4018 39.424ZM79.0368 35.072L78.0128 38.176L78.3008 38.4C77.5328 39.456 77.1808 41.408 76.7968 43.328C76.4128 45.376 76.0288 47.008 75.4848 48.256C75.3888 49.792 74.8448 49.824 75.1648 51.36L74.5888 51.936L74.9728 52.768L74.8128 55.744L74.5888 55.872L74.8767 56.224L74.7168 57.088L74.3648 57.216L73.1488 56.096L71.9648 55.52L71.4528 54.848V53.824C71.3248 53.28 71.4848 53.76 71.3888 53.088L71.7408 52.224L71.4848 52L71.2288 50.336C70.2688 48.768 70.2368 47.136 69.7888 45.44C69.5008 44.416 69.0848 43.392 68.7328 42.4C68.7328 42.336 68.7328 42.24 68.7328 42.144L68.9248 41.92L68.3488 41.216L67.5488 38.08L67.1968 37.632L66.7808 36.672L66.1408 35.36L66.0768 34.912C67.1328 34.656 68.6368 34.56 69.6927 34.912L69.8848 34.656L70.6528 34.912L72.1568 40.256L71.9648 40.544L72.5088 41.472L72.2848 41.696C72.5408 42.592 72.8288 43.808 73.3408 44.64C73.4688 44.352 73.7568 44 73.9808 43.808C74.1088 43.008 74.5248 40.576 74.9088 38.4C75.1968 36.896 75.4208 35.52 75.5168 34.912L75.9648 34.56L78.7808 34.624L79.0368 35.072ZM85.2295 52.704L84.7815 54.624L82.2215 57.472L80.7495 58.528L80.3335 57.408C80.3335 57.408 81.5815 54.88 81.4535 53.728L80.8775 51.936L81.4535 51.136L84.4615 51.04L85.2295 52.704ZM106.578 34.88L106.354 35.968L105.842 36.416L105.746 37.376L104.53 37.472L104.242 37.216L103.09 37.536C103.058 38.912 102.93 40.384 103.026 41.728C103.026 41.952 103.378 42.72 103.378 42.912C103.41 44.416 103.026 46.24 102.962 47.776L103.186 48L103.154 49.632L103.378 49.856C102.802 52.096 103.346 52.704 103.218 54.912C103.186 55.36 103.346 56.16 103.122 56.608L102.546 56.864L99.922 55.36L99.762 54.624L99.794 52.896L99.57 52C99.57 52 99.762 51.52 99.826 50.784L99.474 50.144C99.538 49.312 99.762 46.88 99.602 46.176L99.826 45.984L99.25 42.656L99.57 41.28L99.314 40.832C99.314 39.904 99.314 37.824 99.314 37.824L98.002 37.76H96.914L96.05 36.608L96.274 36.352L95.73 35.456L95.922 35.04L97.746 35.2C98.002 35.008 98.418 34.848 98.706 34.752L99.442 34.976L100.882 34.72L101.138 34.944L102.066 34.72C103.026 34.944 104.722 34.912 105.682 34.592L106.578 34.88ZM121.873 44.32L121.425 44.992C121.457 45.824 121.361 46.752 121.457 47.584C121.521 48.224 121.329 49.824 121.297 50.56L121.105 50.784L121.361 51.04L121.425 56.736L121.009 56.896L119.441 55.552L118.769 55.392L118.193 54.592L118.161 53.856L117.873 53.6L118.129 50.4L117.777 49.472L118.001 49.248L117.937 48.544L117.681 48.288L117.873 47.84L117.777 46.912L115.985 46.432C115.569 46.656 114.449 46.72 114.001 46.656L113.681 46.432L113.041 46.912L112.849 47.584L113.265 48.992L112.881 52.992L113.137 53.632C113.073 54.592 113.041 56.672 113.041 56.672L112.657 56.928L111.377 55.712L110.225 55.04L109.905 54.304C109.553 53.824 109.777 53.536 109.585 53.152L109.745 49.696L109.457 49.472V47.232L109.329 45.568L109.265 44.32C109.457 42.496 109.393 40.48 109.169 38.656L109.393 38.464L109.073 37.312L108.017 35.552L108.081 34.752C109.553 34.528 111.185 34.368 112.625 34.688L112.881 34.944L113.073 42.944C113.297 43.232 113.553 43.616 113.873 43.872C114.673 43.68 115.633 43.52 116.497 43.616L116.785 43.872L117.489 43.36L117.809 42.016C117.265 40.672 117.265 39.36 117.553 37.984L117.393 36.608L116.945 35.2L117.361 34.688L120.529 34.496L121.137 34.912C121.745 37.152 121.585 39.424 121.393 41.728L121.649 41.984L121.713 42.72L121.265 43.136L121.617 44.064L121.873 44.32ZM129.269 52.736C129.205 54.656 129.077 55.648 129.109 56.224C129.141 57.152 128.597 57.184 127.701 56.608C127.605 56.544 127.413 56.096 127.317 56.032C127.093 55.904 127.029 56.16 126.805 56.064C126.101 55.68 125.653 55.52 125.333 54.656L125.621 53.28L125.365 50.848L125.461 44.096L125.205 43.904L125.621 43.168L125.173 40.096L125.397 39.904L125.365 39.648L125.109 39.392L125.557 38.72L125.525 38.208L125.269 37.984L125.493 37.824C125.205 36.928 124.693 36.064 124.277 35.264L124.661 34.816L127.477 34.72C127.861 34.944 128.469 35.04 128.917 34.976L129.013 38.272L128.821 38.528L129.141 39.712L128.917 39.968V40.16L129.173 40.416L128.949 43.232L129.205 43.968L129.045 44.64L128.789 44.896L129.077 45.152L128.917 46.272L129.269 47.68L128.853 48.864L129.173 49.824L129.013 52.48L129.269 52.736ZM140.77 50.816C140.418 51.296 140.61 53.216 140.578 53.792L139.938 55.264L139.17 55.936L137.538 56.096L136.418 55.84L135.65 56.224L132.962 55.616L132.29 55.072L131.522 54.112L131.842 53.664L133.986 53.696L135.362 53.504L136.578 53.408L136.866 50.688L136.418 50.24C136.29 49.696 136.034 49.184 135.714 48.64C135.266 47.872 134.69 47.104 134.306 46.368C134.306 46.368 134.306 46.016 134.21 45.856C133.25 44.16 132.354 43.104 131.746 41.376C131.65 41.12 131.842 40.8 131.746 40.512L131.522 39.744L131.906 35.616L132.578 34.912L136.93 34.592L137.218 34.848L140.226 34.56L140.482 35.2C140.162 36.192 140.002 37.984 139.17 39.2L138.882 39.136L137.442 37.184L137.186 37.408L136.226 37.184L135.298 37.472L135.33 39.456C135.586 40.16 136.13 41.344 136.13 41.344L137.314 43.744L137.378 44.224C138.274 44.736 139.874 48 140.642 49.152L140.77 50.816ZM160.904 34.976C160.488 35.616 160.008 36.768 159.4 37.28L158.408 37.216L157.736 37.44L157.448 37.216L157.288 37.44L157 37.216H156.456L156.072 37.728C156.008 38.368 155.88 39.2 156.008 39.84L156.296 40.032C155.912 41.472 156.072 41.664 156.456 43.072L156.744 43.296L157.96 43.072L158.856 43.296L159.08 43.072H160.04L159.784 44.224C159.4 44.48 158.984 45.024 158.824 45.472C158.216 45.568 157.224 45.472 156.648 45.408L156.168 45.888L155.944 48.48L156.168 48.704L155.816 51.52L156.2 52.672L156.136 56.512L155.56 56.704L154.856 55.84L154.056 55.072L152.968 54.688L152.552 53.792L152.648 50.752L152.872 50.528L152.616 50.272L152.776 49.568L152.52 49.344C152.712 48.608 152.776 46.464 152.616 45.696L152.328 45.6C152.488 44.448 152.616 43.2 152.488 42.112C152.36 40.736 152.168 37.92 152.168 37.92L151.24 35.104L151.848 34.88C151.848 34.88 155.272 34.528 157.704 34.848C157.992 34.912 158.312 34.56 158.632 34.624L158.888 34.848L159.112 34.624L160.328 34.496L160.904 34.976ZM172.253 53.76L171.805 54.464L170.909 55.008L170.589 55.488L169.117 56.032L168.573 55.744L168.125 56H164.509L163.837 55.552L163.741 53.632L163.517 52.352C163.677 51.616 163.901 49.952 163.677 49.184L163.421 48.96L163.741 47.072C163.581 45.824 163.677 45.408 163.677 45.408L163.613 44.672L163.645 43.104L163.325 42.848C163.517 41.12 163.645 39.648 163.229 37.984L162.237 35.552L162.653 34.912C163.837 34.752 165.725 34.912 166.653 34.624L167.197 34.848L169.117 34.624L169.405 34.848C169.789 34.656 170.909 34.624 171.325 34.688L171.709 35.104L171.005 36.544C170.781 36.704 170.173 37.184 170.013 37.44C169.341 37.248 168.221 37.376 167.517 37.44L167.037 38.624L167.293 38.848L167.357 39.328L167.133 39.552L167.389 39.808L167.229 42.016C167.293 42.176 167.581 42.784 167.549 42.944L168.093 43.424L170.301 43.2L170.877 43.424L170.525 45.088L169.949 45.664L168.797 45.792L168.573 46.048L168.317 45.792L167.453 46.72V48.832L167.613 50.272L167.389 50.944L167.741 52L167.485 52.256L167.581 53.376L168.797 53.6L170.397 53.376L170.653 53.6C170.845 53.536 172.029 53.408 172.029 53.408L172.253 53.76ZM185.365 56.608L185.173 56.832L183.669 55.904L182.901 55.04L182.133 54.688L181.493 53.184V52.416L180.629 50.368L180.085 49.92H179.605L179.349 50.144L178.869 49.92L177.077 50.144L176.789 49.92L176.213 53.696L175.829 56.928L175.253 57.088L174.645 56.064L174.165 55.2L173.621 54.336C173.621 54.336 173.141 52.64 173.781 50.816L173.525 50.56L173.909 49.6L174.069 48.256L174.357 46.784V45.216L175.029 44.032L175.253 41.216L175.541 40.032L175.381 39.136L176.085 37.664C175.829 36.896 175.733 35.456 175.797 34.688C177.813 34.464 179.477 34.56 181.493 34.656L181.717 34.944L183.061 43.264L183.317 43.488L183.157 44.256L183.701 47.52L183.925 47.744L183.733 47.968L184.565 51.232L184.437 51.968L184.981 52.64C185.045 53.088 185.365 56.512 185.365 56.608ZM180.245 46.752C180.021 45.6 179.765 44.416 179.605 43.264C179.477 42.432 179.541 41.536 179.413 40.704C179.381 40.608 178.997 39.744 178.933 39.616L177.781 42.912L177.685 43.584V44.16C177.397 44.992 177.301 45.984 177.205 46.848L178.645 47.104L180.245 46.752ZM194.953 34.88L194.729 35.968L194.217 36.416L194.121 37.376L192.905 37.472L192.617 37.216L191.465 37.536C191.433 38.912 191.305 40.384 191.401 41.728C191.401 41.952 191.753 42.72 191.753 42.912C191.785 44.416 191.401 46.24 191.337 47.776L191.561 48L191.529 49.632L191.753 49.856C191.177 52.096 191.721 52.704 191.593 54.912C191.561 55.36 191.721 56.16 191.497 56.608L190.921 56.864L188.297 55.36L188.137 54.624L188.169 52.896L187.945 52C187.945 52 188.137 51.52 188.201 50.784L187.849 50.144C187.913 49.312 188.137 46.88 187.977 46.176L188.201 45.984L187.625 42.656L187.945 41.28L187.689 40.832C187.689 39.904 187.689 37.824 187.689 37.824L186.377 37.76H185.289L184.425 36.608L184.649 36.352L184.105 35.456L184.297 35.04L186.121 35.2C186.377 35.008 186.793 34.848 187.081 34.752L187.817 34.976L189.257 34.72L189.513 34.944L190.441 34.72C191.401 34.944 193.097 34.912 194.057 34.592L194.953 34.88ZM209.256 35.648L208.968 35.872L209.064 37.504L208.872 37.76L208.744 41.504L209.128 42.464C208.648 43.52 208.712 45.44 208.808 46.56L208.52 47.04C208.712 48.32 208.84 49.632 208.936 50.912L208.52 51.808L208.648 52.768L208.424 55.328L208.072 55.648L207.592 55.744L205.928 56.096L205.672 56.128L203.08 56.16L202.632 56.032L199.88 55.904L199.432 55.648L197.576 52.544L197.416 52.096L197.384 49.792L197.224 49.312L197.448 49.12L197.256 48.864L197.096 48.128L197.352 47.904L197.16 47.68C197.288 45.408 197.576 43.84 197.32 41.44L197.576 41.216C197.416 40.096 197.448 38.88 197.544 37.76L196.424 35.392L196.648 34.816L200.776 34.496L201.288 35.104L201.384 35.648L201.48 37.088L201.192 37.312L201.512 38.944L201.256 39.168C201.352 40.352 201.736 44.096 201.16 45.216L201.384 45.44L201.032 46.592C201.512 48.352 201.064 51.552 201.544 52.704L202.952 53.376L204.456 53.088L204.968 52.864C204.968 52.864 204.712 52.512 204.904 51.328L205.128 51.104C205.192 49.088 205.192 44.608 205.416 42.688L205 41.984C205.576 40.736 205.192 39.168 205.032 37.856L205.288 37.664L204.424 35.264L204.712 34.56L207.272 34.72L208.488 34.496L209.096 34.72L209.256 35.648ZM222.861 56.32L222.477 56.864C222.317 56.8 221.965 56.512 221.389 56.224C221.325 56.16 221.133 55.904 221.069 55.872C220.909 55.808 220.877 55.936 220.717 55.904C220.205 55.68 219.597 54.656 219.597 54.656L218.989 54.4L219.181 54.048L218.669 53.536C218.669 53.536 217.677 50.688 216.973 48.992L216.941 48.512L216.429 48.064L215.309 48.8L214.957 49.312L215.277 49.984C215.021 51.968 214.509 51.136 214.829 52.608L214.349 53.152L214.861 53.312L214.829 56.704L214.093 56.608L213.549 56.064L213.069 55.456L212.333 55.328C212.301 55.2 211.789 54.432 211.789 54.432L211.725 52.032L211.469 51.808C211.661 51.36 211.661 50.912 211.565 50.464L211.309 50.24L211.693 48.992C211.565 48.512 211.309 47.808 211.309 47.328C211.245 46.336 211.469 45.28 211.501 44.288C211.533 42.272 211.437 40.224 211.405 38.208L211.629 37.984L211.277 37.664L210.701 35.04L211.693 34.656L212.653 34.88L214.957 34.656L215.469 34.88C217.389 34.464 218.029 35.04 219.597 34.88L219.789 34.656C220.429 34.976 220.909 36.288 221.741 36.832L221.645 38.048L221.421 38.304L221.677 38.528L221.581 41.12L221.933 42.272L221.581 43.136L221.805 43.616C221.677 44.384 220.621 45.6 220.109 46.08L219.949 46.784L220.973 50.272L221.037 50.976L221.613 52.064L221.517 52.448L221.901 52.736L222.861 56.32ZM217.933 39.424C217.965 39.232 217.709 38.688 217.645 38.496L217.805 37.76L217.293 37.344H216.717L216.269 37.568L215.661 37.344H215.437L214.989 37.76C214.957 38.624 214.861 39.584 215.117 40.352L214.701 41.088L214.957 41.312C214.797 42.144 214.829 43.616 215.213 44.384L214.989 44.608L215.117 45.792C215.757 44.928 217.101 44.352 217.709 43.488L217.869 42.56L217.613 42.336L217.805 42.08C217.741 41.696 217.773 41.248 217.805 40.832L217.517 39.904L217.933 39.424ZM233.784 53.76L233.336 54.464L232.44 55.008L232.12 55.488L230.648 56.032L230.104 55.744L229.656 56H226.04L225.368 55.552L225.272 53.632L225.048 52.352C225.208 51.616 225.432 49.952 225.208 49.184L224.952 48.96L225.272 47.072C225.112 45.824 225.208 45.408 225.208 45.408L225.144 44.672L225.176 43.104L224.856 42.848C225.048 41.12 225.176 39.648 224.76 37.984L223.768 35.552L224.184 34.912C225.368 34.752 227.256 34.912 228.184 34.624L228.728 34.848L230.648 34.624L230.936 34.848C231.32 34.656 232.44 34.624 232.856 34.688L233.24 35.104L232.536 36.544C232.312 36.704 231.704 37.184 231.544 37.44C230.872 37.248 229.752 37.376 229.048 37.44L228.568 38.624L228.824 38.848L228.888 39.328L228.664 39.552L228.92 39.808L228.76 42.016C228.824 42.176 229.112 42.784 229.08 42.944L229.624 43.424L231.832 43.2L232.408 43.424L232.056 45.088L231.48 45.664L230.328 45.792L230.104 46.048L229.848 45.792L228.984 46.72V48.832L229.144 50.272L228.92 50.944L229.272 52L229.016 52.256L229.112 53.376L230.328 53.6L231.928 53.376L232.184 53.6C232.376 53.536 233.56 53.408 233.56 53.408L233.784 53.76ZM263.549 34.944C262.973 38.496 262.237 42.336 261.693 45.92L261.245 46.272L260.989 48.192L261.245 48.384L260.541 50.72L260.861 51.296L259.773 56.416L259.133 56.448L257.949 55.616L256.925 55.264L256.573 53.824L256.029 53.152L255.005 50.848L255.197 50.656C255.197 50.656 255.037 48.064 254.493 46.848L254.717 46.656L254.365 45.92C254.653 45.088 254.461 44.16 254.013 43.424L253.661 43.168L253.213 44.384L253.501 44.576C253.245 45.664 252.925 46.752 252.797 47.872C252.637 48.992 252.861 50.24 252.573 51.328C252.477 51.68 252.22 51.968 252.125 52.32C251.805 53.568 251.869 56.32 251.869 56.32L251.389 56.544L248.669 55.008L248.093 54.176L247.709 53.248L247.741 52.704L247.229 52.544C247.229 52.544 246.685 51.04 246.653 50.272C246.653 49.856 246.812 49.504 246.781 49.12C246.685 47.84 246.141 46.816 246.013 45.504L245.853 43.616L245.565 43.424L245.693 42.464L245.373 41.92L245.565 41.344L245.277 41.152C245.341 40.736 244.924 39.456 244.829 39.04L244.893 38.016C244.605 37.76 244.509 36.96 244.189 36.8C243.997 36.224 243.357 35.776 243.421 35.104C243.645 35.104 243.868 34.784 244.093 34.784C245.469 34.752 246.845 34.752 248.221 34.784L248.541 35.52L248.381 36.096C248.733 36.8 248.893 38.144 248.701 38.912L248.957 39.072L248.861 40.416L249.405 40.96L249.021 41.536L249.341 42.112L249.149 42.688C249.405 43.616 249.725 44.544 249.757 45.536L249.533 45.728L250.045 46.272L249.885 46.656C249.917 47.104 249.981 47.552 250.109 48H250.365C250.621 47.328 251.581 41.888 251.421 41.344L251.133 41.152L251.677 39.648L251.549 38.688L252.029 38.304L251.965 37.76L252.125 37.568L251.901 37.344C251.965 36.8 252.029 35.872 251.901 35.328L252.349 34.944L253.821 34.784L254.013 34.944L254.749 34.592H255.741L256.221 34.944C256.029 36.192 256.637 37.664 256.669 38.912L256.477 39.072L257.117 40.416L256.989 41.344L257.309 42.112L257.085 42.304C257.405 43.104 257.693 44.32 257.437 45.12L257.725 45.344L257.533 45.92L258.205 47.936L258.877 46.848L258.972 45.536L258.685 45.344C259.26 44.544 259.037 43.584 259.133 42.688C259.229 41.92 259.485 41.184 259.581 40.416C259.677 39.584 259.741 37.728 259.613 36.928C259.453 35.744 259.517 36.16 259.101 34.784L259.549 34.592L262.045 34.464L262.333 34.624C262.621 34.528 262.973 34.432 263.293 34.464L263.549 34.944ZM270.394 52.736C270.33 54.656 270.202 55.648 270.234 56.224C270.266 57.152 269.722 57.184 268.826 56.608C268.73 56.544 268.538 56.096 268.442 56.032C268.218 55.904 268.154 56.16 267.93 56.064C267.226 55.68 266.778 55.52 266.458 54.656L266.746 53.28L266.49 50.848L266.586 44.096L266.33 43.904L266.746 43.168L266.298 40.096L266.522 39.904L266.49 39.648L266.234 39.392L266.682 38.72L266.65 38.208L266.394 37.984L266.618 37.824C266.33 36.928 265.818 36.064 265.402 35.264L265.786 34.816L268.602 34.72C268.986 34.944 269.594 35.04 270.042 34.976L270.138 38.272L269.946 38.528L270.266 39.712L270.042 39.968V40.16L270.298 40.416L270.074 43.232L270.33 43.968L270.17 44.64L269.914 44.896L270.202 45.152L270.042 46.272L270.394 47.68L269.978 48.864L270.298 49.824L270.138 52.48L270.394 52.736ZM282.887 53.536L281.607 54.784L281.351 55.424L280.775 55.712L277.767 56.416L276.839 55.904L275.751 56.288L274.887 56.256V55.712L274.311 55.584L273.959 53.824C274.023 52.352 274.439 50.72 274.183 49.28L273.895 49.024L274.215 47.136L273.863 45.984L274.119 43.872L273.831 43.616C273.991 41.92 274.151 39.744 273.703 38.048L272.871 35.36L273.063 35.008C274.215 34.88 276.231 35.008 277.159 34.688L277.895 35.328L277.959 36C277.511 36.704 277.959 38.208 277.799 39.04L277.607 39.648L277.863 39.904L277.703 43.168C278.375 44.544 277.895 47.328 277.959 49.248L278.215 49.504L277.735 49.952L278.087 50.688C277.991 50.912 277.991 52.768 278.023 53.024L279.271 53.344L281.159 53.216L281.447 53.44C281.607 53.344 282.151 53.088 282.375 53.088L282.887 53.536ZM293.543 53.536L292.263 54.784L292.007 55.424L291.431 55.712L288.423 56.416L287.495 55.904L286.407 56.288L285.543 56.256V55.712L284.967 55.584L284.615 53.824C284.679 52.352 285.095 50.72 284.839 49.28L284.551 49.024L284.871 47.136L284.519 45.984L284.775 43.872L284.487 43.616C284.647 41.92 284.807 39.744 284.359 38.048L283.527 35.36L283.719 35.008C284.871 34.88 286.887 35.008 287.815 34.688L288.551 35.328L288.615 36C288.167 36.704 288.615 38.208 288.455 39.04L288.263 39.648L288.519 39.904L288.359 43.168C289.031 44.544 288.551 47.328 288.615 49.248L288.871 49.504L288.391 49.952L288.743 50.688C288.647 50.912 288.647 52.768 288.679 53.024L289.927 53.344L291.815 53.216L292.103 53.44C292.263 53.344 292.807 53.088 293.031 53.088L293.543 53.536ZM42.676 84.816C42.324 85.296 42.516 87.216 42.484 87.792L41.844 89.264L41.076 89.936L39.444 90.096L38.324 89.84L37.556 90.224L34.868 89.616L34.196 89.072L33.428 88.112L33.748 87.664L35.892 87.696L37.268 87.504L38.484 87.408L38.772 84.688L38.324 84.24C38.196 83.696 37.94 83.184 37.62 82.64C37.172 81.872 36.596 81.104 36.212 80.368C36.212 80.368 36.212 80.016 36.116 79.856C35.156 78.16 34.26 77.104 33.652 75.376C33.556 75.12 33.748 74.8 33.652 74.512L33.428 73.744L33.812 69.616L34.484 68.912L38.836 68.592L39.124 68.848L42.132 68.56L42.388 69.2C42.068 70.192 41.908 71.984 41.076 73.2L40.788 73.136L39.348 71.184L39.092 71.408L38.132 71.184L37.204 71.472L37.236 73.456C37.492 74.16 38.036 75.344 38.036 75.344L39.22 77.744L39.284 78.224C40.18 78.736 41.78 82 42.548 83.152L42.676 84.816ZM56.1415 82.384L55.9175 85.872L55.7255 86.128L55.9495 86.32L55.7255 88.88L55.2455 89.392L53.4535 89.936L50.9895 89.904L50.5415 90.032L49.1335 89.584L48.3975 90C47.8215 89.904 46.7975 89.808 46.2535 89.744L45.2295 88.72L45.0375 87.088L44.7495 86.576L44.8775 85.616L44.6215 84.496C44.7175 83.216 44.6855 82.096 44.9095 80.816L44.5895 80.368L44.7175 78.736L44.4295 78.48L44.7495 75.184C44.3335 73.04 44.6855 71.024 44.8135 70.096L45.7415 69.168L47.1175 68.848C47.1175 68.848 48.3655 68.784 49.3895 68.56L49.6775 68.848L50.5735 68.56L52.6855 68.848L52.9415 68.56L53.9015 68.848L54.0935 68.56L55.4375 69.456L55.7575 70.96L55.9815 71.184L55.5975 71.888L55.9175 72.624L55.7895 75.056L56.0775 75.312L55.8215 78.096L56.0775 78.352L55.8855 79.824C56.1415 80.272 56.1095 81.456 56.1095 81.968L55.8855 82.192L56.1415 82.384ZM52.3015 82.224C52.2375 81.712 51.9175 81.104 51.8855 80.592C51.8535 79.792 52.0775 78.8 52.1415 77.968L51.8855 77.776L52.0135 74.256L51.7895 74.032L51.9815 73.776L51.6615 72.624L51.8535 72.4L51.6295 72.112L51.8215 71.888L51.7575 71.44L51.5335 71.184L49.9015 71.44L48.9095 71.184L48.3335 72.112L48.5895 72.4L48.3335 77.776L48.5895 77.968C48.6535 78.224 48.5255 79.152 48.4935 79.44L48.7495 79.664C48.8455 81.008 48.7175 82.448 48.5575 83.76L48.7815 83.984C48.9735 85.168 48.5255 86.224 49.1015 87.248H49.5815C50.1255 86.8 51.0535 87.344 51.0535 87.344L52.0775 86.992C52.1735 85.488 52.3975 83.088 52.3015 82.224ZM69.829 82.384L69.605 85.872L69.413 86.128L69.637 86.32L69.413 88.88L68.933 89.392L67.141 89.936L64.677 89.904L64.229 90.032L62.821 89.584L62.085 90C61.509 89.904 60.485 89.808 59.941 89.744L58.917 88.72L58.725 87.088L58.437 86.576L58.565 85.616L58.309 84.496C58.405 83.216 58.373 82.096 58.597 80.816L58.277 80.368L58.405 78.736L58.117 78.48L58.437 75.184C58.021 73.04 58.373 71.024 58.501 70.096L59.429 69.168L60.805 68.848C60.805 68.848 62.053 68.784 63.077 68.56L63.365 68.848L64.261 68.56L66.373 68.848L66.629 68.56L67.589 68.848L67.781 68.56L69.125 69.456L69.445 70.96L69.669 71.184L69.285 71.888L69.605 72.624L69.477 75.056L69.765 75.312L69.509 78.096L69.765 78.352L69.573 79.824C69.829 80.272 69.797 81.456 69.797 81.968L69.573 82.192L69.829 82.384ZM65.989 82.224C65.925 81.712 65.605 81.104 65.573 80.592C65.541 79.792 65.765 78.8 65.829 77.968L65.573 77.776L65.701 74.256L65.477 74.032L65.669 73.776L65.349 72.624L65.541 72.4L65.317 72.112L65.509 71.888L65.445 71.44L65.221 71.184L63.589 71.44L62.597 71.184L62.021 72.112L62.277 72.4L62.021 77.776L62.277 77.968C62.341 78.224 62.213 79.152 62.181 79.44L62.437 79.664C62.533 81.008 62.405 82.448 62.245 83.76L62.469 83.984C62.661 85.168 62.213 86.224 62.789 87.248H63.269C63.813 86.8 64.741 87.344 64.741 87.344L65.765 86.992C65.861 85.488 66.085 83.088 65.989 82.224ZM83.6765 90.704L83.3885 90.864L82.2365 90.224L81.3725 89.04L80.4125 88.72L79.2285 86.16L78.4285 85.04L77.4685 83.856L75.8685 80.848L75.4525 80.976V82.96L75.7085 83.184C75.7085 83.184 75.2605 86.864 75.4525 87.536L75.7405 87.792C75.6445 88.816 75.5485 90.448 75.5485 90.448L75.2605 90.768L73.8845 90.032L72.9245 89.68L72.4125 88.976L72.3485 87.152L72.6045 86.544L72.2525 85.328L72.4765 85.104L72.1885 84.368L72.6365 82.288L72.3805 82.032C72.4125 80.976 72.6365 78.384 72.4445 77.488L72.1885 77.232L72.5725 76.304L72.2845 75.568C72.4445 74.768 72.4445 74.512 72.2845 73.744L72.5085 73.456L72.2205 73.232L72.4445 72.048L71.5805 70.256L71.2605 68.912L73.8205 68.592L74.8125 68.848L75.0045 68.592L75.7405 68.848C76.6685 70.384 76.3485 72.592 77.5005 73.968L77.3405 74.704C77.8205 75.824 78.0445 76.304 78.4925 77.456L78.6205 78.448L79.1325 78.896L78.9725 79.664L79.8365 81.168L80.0925 81.392L80.2845 80.368L79.9645 79.408L80.3805 78.704L80.0925 77.968L80.2205 77.104L80.4445 76.848L80.1245 76.112L80.2525 75.152L79.9645 74.448L80.1245 73.456L80.3485 73.232L79.9645 71.824L80.3165 71.024L79.4845 69.616L79.4205 69.104L79.8365 68.592L80.7645 68.848L82.4285 68.592L83.3245 68.944L83.1965 75.344L83.4525 75.6L83.3885 82.032L83.6765 82.288L83.2605 82.992L83.5485 83.728L83.3885 86.768L83.6765 90.704ZM106.331 84.048L106.139 84.56L106.107 85.936C105.563 87.376 103.707 88.912 102.587 89.968L101.275 90.16L100.795 89.904L98.9073 90.192L98.6513 89.968C97.7552 90.096 96.7953 90.288 95.8033 90.224L95.3233 89.776L95.4193 90.032L95.1633 89.296L95.3233 88.304L95.0993 88.048C95.1313 87.472 95.2913 86.704 95.1953 86.128L94.9713 85.872L95.2273 82.928L94.9713 82.64L95.3233 80.72L95.0353 79.472L95.2273 79.216C95.0353 77.52 95.0353 72.72 95.0353 72.72L95.2913 71.792L94.1073 69.392L94.2993 68.752C96.4433 68.688 97.9793 68.56 99.5153 68.624C101.083 68.656 102.171 69.136 103.803 68.752L104.059 69.04L104.251 68.784L105.499 69.104L106.043 70.064C105.883 71.504 105.819 71.856 105.851 73.328C105.851 73.872 105.819 74.192 105.915 74.736C105.979 75.088 105.755 75.76 105.755 75.76L105.115 76.624L104.251 77.616L105.979 78.352C105.979 79.12 106.011 79.92 106.075 80.72L105.851 80.944L106.107 81.168L106.299 83.6L106.107 83.824L106.331 84.048ZM102.171 74.96C102.299 74.128 102.363 72.56 102.171 71.312L101.307 71.28L101.083 71.056L100.859 71.28L99.2913 71.344L98.6513 72.272L98.8433 72.528L98.8753 73.264L98.7153 73.488L98.9393 74.48L98.5553 75.696L98.8433 75.952V77.904L99.1633 78.16L102.011 75.92L101.979 75.184L102.171 74.96ZM102.651 82.64L102.395 82.448L102.427 79.824L102.011 79.536L98.9713 81.616C98.8433 82.288 98.8753 83.888 98.8753 83.888L99.0993 84.144C99.2593 85.36 98.4913 86.128 99.0353 87.248H99.5153C100.091 86.832 101.211 87.568 101.723 87.024L102.331 85.936C102.363 84.912 102.491 82.896 102.491 82.896L102.651 82.64ZM118.128 87.76L117.68 88.464L116.784 89.008L116.464 89.488L114.992 90.032L114.448 89.744L114 90H110.384L109.712 89.552L109.616 87.632L109.392 86.352C109.552 85.616 109.776 83.952 109.552 83.184L109.296 82.96L109.616 81.072C109.456 79.824 109.552 79.408 109.552 79.408L109.488 78.672L109.52 77.104L109.2 76.848C109.392 75.12 109.52 73.648 109.104 71.984L108.112 69.552L108.528 68.912C109.712 68.752 111.6 68.912 112.528 68.624L113.072 68.848L114.992 68.624L115.28 68.848C115.664 68.656 116.784 68.624 117.2 68.688L117.584 69.104L116.88 70.544C116.656 70.704 116.048 71.184 115.888 71.44C115.216 71.248 114.096 71.376 113.392 71.44L112.912 72.624L113.168 72.848L113.232 73.328L113.008 73.552L113.264 73.808L113.104 76.016C113.168 76.176 113.456 76.784 113.424 76.944L113.968 77.424L116.176 77.2L116.752 77.424L116.4 79.088L115.824 79.664L114.672 79.792L114.448 80.048L114.192 79.792L113.328 80.72V82.832L113.488 84.272L113.264 84.944L113.616 86L113.36 86.256L113.456 87.376L114.672 87.6L116.272 87.376L116.528 87.6C116.72 87.536 117.904 87.408 117.904 87.408L118.128 87.76ZM140.052 90.608L139.86 90.832L138.356 89.904L137.588 89.04L136.82 88.688L136.18 87.184V86.416L135.316 84.368L134.772 83.92H134.292L134.036 84.144L133.556 83.92L131.764 84.144L131.476 83.92L130.9 87.696L130.516 90.928L129.94 91.088L129.332 90.064L128.852 89.2L128.308 88.336C128.308 88.336 127.828 86.64 128.468 84.816L128.212 84.56L128.596 83.6L128.756 82.256L129.044 80.784V79.216L129.716 78.032L129.94 75.216L130.228 74.032L130.068 73.136L130.772 71.664C130.516 70.896 130.42 69.456 130.484 68.688C132.5 68.464 134.164 68.56 136.18 68.656L136.404 68.944L137.748 77.264L138.004 77.488L137.844 78.256L138.388 81.52L138.612 81.744L138.42 81.968L139.252 85.232L139.124 85.968L139.668 86.64C139.732 87.088 140.052 90.512 140.052 90.608ZM134.932 80.752C134.708 79.6 134.452 78.416 134.292 77.264C134.164 76.432 134.228 75.536 134.1 74.704C134.068 74.608 133.684 73.744 133.62 73.616L132.468 76.912L132.372 77.584V78.16C132.084 78.992 131.988 79.984 131.892 80.848L133.332 81.104L134.932 80.752ZM153.123 82.288L152.931 83.056L152.771 83.28L152.995 83.472L152.835 83.952L152.899 85.136C152.419 86.544 149.955 88.752 148.899 89.776L147.619 90L147.139 89.776L145.539 90.096L145.283 89.872C144.387 90.032 143.491 90.288 142.499 90.256L142.019 89.808L142.115 90.064L141.859 89.36L141.987 88.432L141.763 88.208C141.763 87.632 141.923 86.896 141.795 86.352L141.571 86.128C141.795 84.528 141.859 82.48 141.827 80.88L141.507 80.4L141.635 78.8L141.347 78.544L141.667 75.28C141.315 74.544 141.411 72.496 141.411 72.496L141.123 71.472L140.291 69.264L140.963 68.752C140.963 68.752 144.899 68.624 145.731 68.56L146.019 68.816L146.915 68.56L149.027 68.816L149.251 68.56L150.211 68.816L150.403 68.56L152.067 69.072L152.579 71.088L152.771 71.344L152.419 72.016L152.739 72.752L152.611 75.152L152.899 75.408L152.643 78.16L152.899 78.416L152.707 79.856C152.963 80.304 153.091 81.008 153.059 81.52L152.867 81.744L153.123 82.288ZM149.155 82.608C149.091 82.096 148.771 81.136 148.739 80.624C148.707 79.856 148.931 78.832 148.995 78.032L148.771 77.84L148.867 74.352L148.643 74.128L148.835 73.904L148.515 72.752L148.707 72.528L148.483 72.24L148.675 72.016L148.611 71.568L148.387 71.344L146.787 71.568L145.795 71.344L145.219 72.24L145.475 72.528L145.251 77.84L145.475 78.032C145.571 78.288 145.411 79.216 145.379 79.472L145.635 79.728C145.731 81.04 145.603 82.8 145.443 84.112L145.667 84.336C145.859 85.488 145.411 86.32 145.987 87.344H146.467C147.011 86.928 147.587 87.6 148.035 87.088L148.931 85.776C149.283 84.944 149.251 83.44 149.155 82.608ZM167.154 82.288L166.962 83.056L166.802 83.28L167.026 83.472L166.866 83.952L166.93 85.136C166.45 86.544 163.986 88.752 162.93 89.776L161.65 90L161.17 89.776L159.57 90.096L159.314 89.872C158.418 90.032 157.522 90.288 156.53 90.256L156.05 89.808L156.146 90.064L155.89 89.36L156.018 88.432L155.794 88.208C155.794 87.632 155.954 86.896 155.826 86.352L155.602 86.128C155.826 84.528 155.89 82.48 155.858 80.88L155.538 80.4L155.666 78.8L155.378 78.544L155.698 75.28C155.346 74.544 155.442 72.496 155.442 72.496L155.154 71.472L154.322 69.264L154.994 68.752C154.994 68.752 158.93 68.624 159.762 68.56L160.05 68.816L160.946 68.56L163.058 68.816L163.282 68.56L164.242 68.816L164.434 68.56L166.098 69.072L166.61 71.088L166.802 71.344L166.45 72.016L166.77 72.752L166.642 75.152L166.93 75.408L166.674 78.16L166.93 78.416L166.738 79.856C166.994 80.304 167.122 81.008 167.09 81.52L166.898 81.744L167.154 82.288ZM163.186 82.608C163.122 82.096 162.802 81.136 162.77 80.624C162.738 79.856 162.962 78.832 163.026 78.032L162.802 77.84L162.898 74.352L162.674 74.128L162.866 73.904L162.546 72.752L162.738 72.528L162.514 72.24L162.706 72.016L162.642 71.568L162.418 71.344L160.818 71.568L159.826 71.344L159.25 72.24L159.506 72.528L159.282 77.84L159.506 78.032C159.602 78.288 159.442 79.216 159.41 79.472L159.666 79.728C159.762 81.04 159.634 82.8 159.474 84.112L159.698 84.336C159.89 85.488 159.442 86.32 160.018 87.344H160.498C161.042 86.928 161.618 87.6 162.066 87.088L162.962 85.776C163.314 84.944 163.282 83.44 163.186 82.608ZM178.722 87.76L178.274 88.464L177.378 89.008L177.058 89.488L175.586 90.032L175.042 89.744L174.594 90H170.978L170.306 89.552L170.21 87.632L169.986 86.352C170.146 85.616 170.37 83.952 170.146 83.184L169.89 82.96L170.21 81.072C170.049 79.824 170.146 79.408 170.146 79.408L170.082 78.672L170.114 77.104L169.794 76.848C169.986 75.12 170.114 73.648 169.698 71.984L168.706 69.552L169.122 68.912C170.306 68.752 172.194 68.912 173.122 68.624L173.666 68.848L175.586 68.624L175.874 68.848C176.258 68.656 177.378 68.624 177.794 68.688L178.178 69.104L177.474 70.544C177.25 70.704 176.642 71.184 176.482 71.44C175.81 71.248 174.69 71.376 173.986 71.44L173.506 72.624L173.762 72.848L173.826 73.328L173.602 73.552L173.858 73.808L173.698 76.016C173.762 76.176 174.05 76.784 174.018 76.944L174.562 77.424L176.77 77.2L177.345 77.424L176.994 79.088L176.418 79.664L175.266 79.792L175.042 80.048L174.786 79.792L173.922 80.72V82.832L174.082 84.272L173.858 84.944L174.21 86L173.954 86.256L174.05 87.376L175.266 87.6L176.866 87.376L177.122 87.6C177.314 87.536 178.498 87.408 178.498 87.408L178.722 87.76ZM192.186 82.288L191.994 83.056L191.834 83.28L192.058 83.472L191.898 83.952L191.962 85.136C191.482 86.544 189.018 88.752 187.962 89.776L186.682 90L186.202 89.776L184.602 90.096L184.346 89.872C183.45 90.032 182.554 90.288 181.562 90.256L181.082 89.808L181.178 90.064L180.922 89.36L181.049 88.432L180.826 88.208C180.826 87.632 180.986 86.896 180.858 86.352L180.634 86.128C180.858 84.528 180.922 82.48 180.89 80.88L180.57 80.4L180.698 78.8L180.41 78.544L180.73 75.28C180.378 74.544 180.474 72.496 180.474 72.496L180.186 71.472L179.354 69.264L180.026 68.752C180.026 68.752 183.962 68.624 184.794 68.56L185.082 68.816L185.978 68.56L188.09 68.816L188.314 68.56L189.274 68.816L189.466 68.56L191.13 69.072L191.642 71.088L191.834 71.344L191.482 72.016L191.802 72.752L191.674 75.152L191.962 75.408L191.706 78.16L191.962 78.416L191.77 79.856C192.026 80.304 192.154 81.008 192.122 81.52L191.93 81.744L192.186 82.288ZM188.218 82.608C188.154 82.096 187.834 81.136 187.802 80.624C187.77 79.856 187.994 78.832 188.058 78.032L187.834 77.84L187.93 74.352L187.706 74.128L187.898 73.904L187.578 72.752L187.77 72.528L187.546 72.24L187.738 72.016L187.674 71.568L187.45 71.344L185.85 71.568L184.858 71.344L184.282 72.24L184.538 72.528L184.314 77.84L184.538 78.032C184.634 78.288 184.474 79.216 184.442 79.472L184.698 79.728C184.794 81.04 184.666 82.8 184.506 84.112L184.73 84.336C184.922 85.488 184.474 86.32 185.05 87.344H185.53C186.074 86.928 186.65 87.6 187.098 87.088L187.994 85.776C188.345 84.944 188.314 83.44 188.218 82.608ZM198.761 86.704L198.313 88.624L195.753 91.472L194.281 92.528L193.865 91.408C193.865 91.408 195.113 88.88 194.985 87.728L194.409 85.936L194.985 85.136L197.993 85.04L198.761 86.704ZM220.109 68.88L219.885 69.968L219.373 70.416L219.277 71.376L218.061 71.472L217.773 71.216L216.621 71.536C216.589 72.912 216.461 74.384 216.557 75.728C216.557 75.952 216.909 76.72 216.909 76.912C216.941 78.416 216.557 80.24 216.493 81.776L216.717 82L216.685 83.632L216.909 83.856C216.333 86.096 216.877 86.704 216.749 88.912C216.717 89.36 216.877 90.16 216.653 90.608L216.077 90.864L213.453 89.36L213.293 88.624L213.325 86.896L213.101 86C213.101 86 213.293 85.52 213.357 84.784L213.005 84.144C213.069 83.312 213.293 80.88 213.133 80.176L213.357 79.984L212.781 76.656L213.101 75.28L212.845 74.832C212.845 73.904 212.845 71.824 212.845 71.824L211.533 71.76H210.445L209.581 70.608L209.805 70.352L209.261 69.456L209.453 69.04L211.277 69.2C211.533 69.008 211.949 68.848 212.237 68.752L212.973 68.976L214.413 68.72L214.669 68.944L215.597 68.72C216.557 68.944 218.253 68.912 219.213 68.592L220.109 68.88ZM235.404 78.32L234.956 78.992C234.988 79.824 234.892 80.752 234.988 81.584C235.052 82.224 234.86 83.824 234.828 84.56L234.636 84.784L234.892 85.04L234.956 90.736L234.54 90.896L232.972 89.552L232.3 89.392L231.724 88.592L231.692 87.856L231.404 87.6L231.66 84.4L231.308 83.472L231.532 83.248L231.468 82.544L231.212 82.288L231.404 81.84L231.308 80.912L229.516 80.432C229.1 80.656 227.98 80.72 227.532 80.656L227.212 80.432L226.572 80.912L226.38 81.584L226.796 82.992L226.412 86.992L226.668 87.632C226.604 88.592 226.572 90.672 226.572 90.672L226.188 90.928L224.908 89.712L223.756 89.04L223.436 88.304C223.084 87.824 223.308 87.536 223.116 87.152L223.276 83.696L222.988 83.472V81.232L222.86 79.568L222.796 78.32C222.988 76.496 222.924 74.48 222.7 72.656L222.924 72.464L222.604 71.312L221.548 69.552L221.612 68.752C223.084 68.528 224.716 68.368 226.156 68.688L226.412 68.944L226.604 76.944C226.828 77.232 227.084 77.616 227.404 77.872C228.204 77.68 229.164 77.52 230.028 77.616L230.316 77.872L231.02 77.36L231.34 76.016C230.796 74.672 230.796 73.36 231.084 71.984L230.924 70.608L230.476 69.2L230.892 68.688L234.06 68.496L234.668 68.912C235.276 71.152 235.116 73.424 234.924 75.728L235.18 75.984L235.244 76.72L234.796 77.136L235.148 78.064L235.404 78.32ZM249.552 90.608L249.36 90.832L247.856 89.904L247.088 89.04L246.32 88.688L245.68 87.184V86.416L244.816 84.368L244.272 83.92H243.792L243.536 84.144L243.056 83.92L241.264 84.144L240.976 83.92L240.4 87.696L240.016 90.928L239.44 91.088L238.832 90.064L238.352 89.2L237.808 88.336C237.808 88.336 237.328 86.64 237.968 84.816L237.712 84.56L238.096 83.6L238.256 82.256L238.544 80.784V79.216L239.216 78.032L239.44 75.216L239.728 74.032L239.568 73.136L240.272 71.664C240.016 70.896 239.92 69.456 239.984 68.688C242 68.464 243.664 68.56 245.68 68.656L245.904 68.944L247.248 77.264L247.504 77.488L247.344 78.256L247.888 81.52L248.112 81.744L247.92 81.968L248.752 85.232L248.624 85.968L249.168 86.64C249.232 87.088 249.552 90.512 249.552 90.608ZM244.432 80.752C244.208 79.6 243.952 78.416 243.792 77.264C243.664 76.432 243.728 75.536 243.6 74.704C243.568 74.608 243.184 73.744 243.12 73.616L241.968 76.912L241.872 77.584V78.16C241.584 78.992 241.488 79.984 241.392 80.848L242.832 81.104L244.432 80.752ZM262.239 90.704L261.951 90.864L260.799 90.224L259.935 89.04L258.975 88.72L257.791 86.16L256.991 85.04L256.031 83.856L254.431 80.848L254.015 80.976V82.96L254.271 83.184C254.271 83.184 253.823 86.864 254.015 87.536L254.303 87.792C254.207 88.816 254.111 90.448 254.111 90.448L253.823 90.768L252.447 90.032L251.487 89.68L250.975 88.976L250.911 87.152L251.167 86.544L250.815 85.328L251.039 85.104L250.751 84.368L251.199 82.288L250.943 82.032C250.975 80.976 251.199 78.384 251.007 77.488L250.751 77.232L251.135 76.304L250.847 75.568C251.007 74.768 251.007 74.512 250.847 73.744L251.071 73.456L250.783 73.232L251.007 72.048L250.143 70.256L249.823 68.912L252.383 68.592L253.375 68.848L253.567 68.592L254.303 68.848C255.231 70.384 254.911 72.592 256.063 73.968L255.903 74.704C256.383 75.824 256.607 76.304 257.055 77.456L257.183 78.448L257.695 78.896L257.535 79.664L258.399 81.168L258.655 81.392L258.847 80.368L258.527 79.408L258.943 78.704L258.655 77.968L258.783 77.104L259.007 76.848L258.687 76.112L258.815 75.152L258.527 74.448L258.687 73.456L258.911 73.232L258.527 71.824L258.879 71.024L258.047 69.616L257.983 69.104L258.399 68.592L259.327 68.848L260.991 68.592L261.887 68.944L261.759 75.344L262.015 75.6L261.951 82.032L262.239 82.288L261.823 82.992L262.111 83.728L261.951 86.768L262.239 90.704ZM276.465 90.544L276.305 90.928L274.769 90.16L274.065 89.36L273.169 89.04L272.529 87.824L270.833 85.392L269.425 82.832L269.201 82.608L268.785 83.088L268.753 83.76L268.401 85.52L268.625 85.776L268.401 90.416L268.145 90.608L267.217 89.776L266.257 89.552L265.393 88.784L265.105 87.696L265.137 83.92L264.913 83.664L265.105 81.104L264.849 80.848L265.201 76.144L264.945 75.952L265.041 71.792L264.657 71.312L264.369 69.744L264.145 69.232L264.305 68.784L266.961 68.56L268.305 68.784L268.433 69.008L268.561 71.664L268.369 71.824L268.689 73.36L268.369 74.288L268.657 75.472L268.593 76.88L268.817 77.136L269.969 75.696L269.937 75.024L271.761 71.024L271.793 69.104L272.081 68.816L275.441 68.688L275.665 68.912L275.121 71.248L273.777 73.84L273.233 76.144L272.305 78.064L271.793 79.696L272.401 81.36L273.169 82.704L274.865 86.448L275.345 86.96L275.697 88.304L276.465 90.544ZM39.6774 103.072L38.6534 106.176L38.9414 106.4C38.1734 107.456 37.8214 109.408 37.4374 111.328C37.0534 113.376 36.6694 115.008 36.1254 116.256C36.0294 117.792 35.4854 117.824 35.8054 119.36L35.2294 119.936L35.6134 120.768L35.4534 123.744L35.2294 123.872L35.5174 124.224L35.3574 125.088L35.0054 125.216L33.7894 124.096L32.6054 123.52L32.0934 122.848V121.824C31.9654 121.28 32.1254 121.76 32.0294 121.088L32.3814 120.224L32.1254 120L31.8694 118.336C30.9094 116.768 30.8774 115.136 30.4294 113.44C30.1414 112.416 29.7254 111.392 29.3734 110.4C29.3734 110.336 29.3734 110.24 29.3734 110.144L29.5654 109.92L28.9894 109.216L28.1894 106.08L27.8374 105.632L27.4214 104.672L26.7814 103.36L26.7174 102.912C27.7734 102.656 29.2774 102.56 30.3334 102.912L30.5254 102.656L31.2934 102.912L32.7974 108.256L32.6054 108.544L33.1494 109.472L32.9254 109.696C33.1814 110.592 33.4694 111.808 33.9814 112.64C34.1094 112.352 34.3974 112 34.6214 111.808C34.7494 111.008 35.1654 108.576 35.5494 106.4C35.8374 104.896 36.0614 103.52 36.1574 102.912L36.6054 102.56L39.4214 102.624L39.6774 103.072ZM52.7821 116.384L52.5581 119.872L52.3661 120.128L52.5901 120.32L52.3661 122.88L51.8861 123.392L50.0941 123.936L47.6301 123.904L47.1821 124.032L45.7741 123.584L45.0381 124C44.4621 123.904 43.4381 123.808 42.8941 123.744L41.8701 122.72L41.6781 121.088L41.3901 120.576L41.5181 119.616L41.2621 118.496C41.3581 117.216 41.3261 116.096 41.5501 114.816L41.2301 114.368L41.3581 112.736L41.0701 112.48L41.3901 109.184C40.9741 107.04 41.3261 105.024 41.4541 104.096L42.3821 103.168L43.7581 102.848C43.7581 102.848 45.0061 102.784 46.0301 102.56L46.3181 102.848L47.2141 102.56L49.3261 102.848L49.5821 102.56L50.5421 102.848L50.7341 102.56L52.0781 103.456L52.3981 104.96L52.6221 105.184L52.2381 105.888L52.5581 106.624L52.4301 109.056L52.7181 109.312L52.4621 112.096L52.7181 112.352L52.5261 113.824C52.7821 114.272 52.7501 115.456 52.7501 115.968L52.5261 116.192L52.7821 116.384ZM48.9421 116.224C48.8781 115.712 48.5581 115.104 48.5261 114.592C48.4941 113.792 48.7181 112.8 48.7821 111.968L48.5261 111.776L48.6541 108.256L48.4301 108.032L48.6221 107.776L48.3021 106.624L48.4941 106.4L48.2701 106.112L48.4621 105.888L48.3981 105.44L48.1741 105.184L46.5421 105.44L45.5501 105.184L44.9741 106.112L45.2301 106.4L44.9741 111.776L45.2301 111.968C45.2941 112.224 45.1661 113.152 45.1341 113.44L45.3901 113.664C45.4861 115.008 45.3581 116.448 45.1981 117.76L45.4221 117.984C45.6141 119.168 45.1661 120.224 45.7421 121.248H46.2221C46.7661 120.8 47.6941 121.344 47.6941 121.344L48.7181 120.992C48.8141 119.488 49.0381 117.088 48.9421 116.224ZM67.3336 103.648L67.0456 103.872L67.1416 105.504L66.9496 105.76L66.8216 109.504L67.2056 110.464C66.7256 111.52 66.7896 113.44 66.8856 114.56L66.5976 115.04C66.7896 116.32 66.9176 117.632 67.0136 118.912L66.5976 119.808L66.7256 120.768L66.5016 123.328L66.1496 123.648L65.6696 123.744L64.0056 124.096L63.7496 124.128L61.1576 124.16L60.7096 124.032L57.9576 123.904L57.5096 123.648L55.6536 120.544L55.4936 120.096L55.4616 117.792L55.3016 117.312L55.5256 117.12L55.3336 116.864L55.1736 116.128L55.4296 115.904L55.2376 115.68C55.3656 113.408 55.6536 111.84 55.3976 109.44L55.6536 109.216C55.4936 108.096 55.5256 106.88 55.6216 105.76L54.5016 103.392L54.7256 102.816L58.8536 102.496L59.3656 103.104L59.4616 103.648L59.5576 105.088L59.2696 105.312L59.5896 106.944L59.3336 107.168C59.4296 108.352 59.8136 112.096 59.2376 113.216L59.4616 113.44L59.1096 114.592C59.5896 116.352 59.1416 119.552 59.6216 120.704L61.0296 121.376L62.5336 121.088L63.0456 120.864C63.0456 120.864 62.7896 120.512 62.9816 119.328L63.2056 119.104C63.2696 117.088 63.2696 112.608 63.4936 110.688L63.0776 109.984C63.6536 108.736 63.2696 107.168 63.1096 105.856L63.3656 105.664L62.5016 103.264L62.7896 102.56L65.3496 102.72L66.5656 102.496L67.1736 102.72L67.3336 103.648ZM87.5756 102.976C87.1596 103.616 86.6796 104.768 86.0716 105.28L85.0796 105.216L84.4076 105.44L84.1196 105.216L83.9596 105.44L83.6716 105.216H83.1276L82.7436 105.728C82.6796 106.368 82.5516 107.2 82.6796 107.84L82.9676 108.032C82.5836 109.472 82.7436 109.664 83.1276 111.072L83.4156 111.296L84.6316 111.072L85.5276 111.296L85.7516 111.072H86.7116L86.4556 112.224C86.0716 112.48 85.6556 113.024 85.4956 113.472C84.8876 113.568 83.8956 113.472 83.3196 113.408L82.8396 113.888L82.6156 116.48L82.8396 116.704L82.4876 119.52L82.8716 120.672L82.8076 124.512L82.2316 124.704L81.5276 123.84L80.7276 123.072L79.6396 122.688L79.2236 121.792L79.3196 118.752L79.5436 118.528L79.2876 118.272L79.4476 117.568L79.1916 117.344C79.3836 116.608 79.4476 114.464 79.2876 113.696L78.9996 113.6C79.1596 112.448 79.2876 111.2 79.1596 110.112C79.0316 108.736 78.8396 105.92 78.8396 105.92L77.9116 103.104L78.5196 102.88C78.5196 102.88 81.9436 102.528 84.3756 102.848C84.6636 102.912 84.9836 102.56 85.3036 102.624L85.5596 102.848L85.7836 102.624L86.9996 102.496L87.5756 102.976ZM100.845 116.384L100.621 119.872L100.429 120.128L100.653 120.32L100.429 122.88L99.9486 123.392L98.1566 123.936L95.6926 123.904L95.2446 124.032L93.8366 123.584L93.1006 124C92.5246 123.904 91.5006 123.808 90.9566 123.744L89.9326 122.72L89.7406 121.088L89.4526 120.576L89.5806 119.616L89.3246 118.496C89.4206 117.216 89.3886 116.096 89.6126 114.816L89.2926 114.368L89.4206 112.736L89.1326 112.48L89.4526 109.184C89.0366 107.04 89.3886 105.024 89.5166 104.096L90.4446 103.168L91.8206 102.848C91.8206 102.848 93.0686 102.784 94.0926 102.56L94.3806 102.848L95.2766 102.56L97.3886 102.848L97.6446 102.56L98.6046 102.848L98.7966 102.56L100.141 103.456L100.461 104.96L100.685 105.184L100.301 105.888L100.621 106.624L100.493 109.056L100.781 109.312L100.525 112.096L100.781 112.352L100.589 113.824C100.845 114.272 100.813 115.456 100.813 115.968L100.589 116.192L100.845 116.384ZM97.0046 116.224C96.9406 115.712 96.6206 115.104 96.5886 114.592C96.5566 113.792 96.7806 112.8 96.8446 111.968L96.5886 111.776L96.7166 108.256L96.4926 108.032L96.6846 107.776L96.3646 106.624L96.5566 106.4L96.3326 106.112L96.5246 105.888L96.4606 105.44L96.2366 105.184L94.6046 105.44L93.6126 105.184L93.0366 106.112L93.2926 106.4L93.0366 111.776L93.2926 111.968C93.3566 112.224 93.2286 113.152 93.1966 113.44L93.4526 113.664C93.5486 115.008 93.4206 116.448 93.2606 117.76L93.4846 117.984C93.6766 119.168 93.2286 120.224 93.8046 121.248H94.2846C94.8286 120.8 95.7566 121.344 95.7566 121.344L96.7806 120.992C96.8766 119.488 97.1006 117.088 97.0046 116.224ZM114.564 124.32L114.18 124.864C114.02 124.8 113.668 124.512 113.092 124.224C113.028 124.16 112.836 123.904 112.772 123.872C112.612 123.808 112.58 123.936 112.42 123.904C111.908 123.68 111.3 122.656 111.3 122.656L110.692 122.4L110.884 122.048L110.372 121.536C110.372 121.536 109.38 118.688 108.676 116.992L108.644 116.512L108.132 116.064L107.012 116.8L106.66 117.312L106.98 117.984C106.724 119.968 106.212 119.136 106.532 120.608L106.052 121.152L106.564 121.312L106.532 124.704L105.796 124.608L105.252 124.064L104.772 123.456L104.036 123.328C104.004 123.2 103.492 122.432 103.492 122.432L103.428 120.032L103.172 119.808C103.364 119.36 103.364 118.912 103.268 118.464L103.012 118.24L103.396 116.992C103.268 116.512 103.012 115.808 103.012 115.328C102.948 114.336 103.172 113.28 103.204 112.288C103.236 110.272 103.14 108.224 103.108 106.208L103.332 105.984L102.98 105.664L102.404 103.04L103.396 102.656L104.356 102.88L106.66 102.656L107.172 102.88C109.092 102.464 109.732 103.04 111.3 102.88L111.492 102.656C112.132 102.976 112.612 104.288 113.444 104.832L113.348 106.048L113.124 106.304L113.38 106.528L113.284 109.12L113.636 110.272L113.284 111.136L113.508 111.616C113.38 112.384 112.324 113.6 111.812 114.08L111.652 114.784L112.676 118.272L112.74 118.976L113.316 120.064L113.22 120.448L113.604 120.736L114.564 124.32ZM109.636 107.424C109.668 107.232 109.412 106.688 109.348 106.496L109.508 105.76L108.996 105.344H108.42L107.972 105.568L107.364 105.344H107.14L106.692 105.76C106.66 106.624 106.564 107.584 106.82 108.352L106.404 109.088L106.66 109.312C106.5 110.144 106.532 111.616 106.916 112.384L106.692 112.608L106.82 113.792C107.46 112.928 108.804 112.352 109.412 111.488L109.572 110.56L109.316 110.336L109.508 110.08C109.444 109.696 109.476 109.248 109.508 108.832L109.22 107.904L109.636 107.424ZM137.084 103.072L136.06 106.176L136.348 106.4C135.58 107.456 135.228 109.408 134.844 111.328C134.46 113.376 134.076 115.008 133.532 116.256C133.436 117.792 132.892 117.824 133.212 119.36L132.636 119.936L133.02 120.768L132.86 123.744L132.636 123.872L132.924 124.224L132.764 125.088L132.412 125.216L131.196 124.096L130.012 123.52L129.5 122.848V121.824C129.372 121.28 129.532 121.76 129.436 121.088L129.788 120.224L129.532 120L129.276 118.336C128.316 116.768 128.284 115.136 127.836 113.44C127.548 112.416 127.132 111.392 126.78 110.4C126.78 110.336 126.78 110.24 126.78 110.144L126.972 109.92L126.396 109.216L125.596 106.08L125.244 105.632L124.828 104.672L124.188 103.36L124.124 102.912C125.18 102.656 126.684 102.56 127.74 102.912L127.932 102.656L128.7 102.912L130.204 108.256L130.012 108.544L130.556 109.472L130.332 109.696C130.588 110.592 130.876 111.808 131.388 112.64C131.516 112.352 131.804 112 132.028 111.808C132.156 111.008 132.572 108.576 132.956 106.4C133.244 104.896 133.468 103.52 133.564 102.912L134.012 102.56L136.828 102.624L137.084 103.072ZM150.188 116.384L149.964 119.872L149.772 120.128L149.996 120.32L149.772 122.88L149.292 123.392L147.5 123.936L145.036 123.904L144.588 124.032L143.18 123.584L142.444 124C141.868 123.904 140.844 123.808 140.3 123.744L139.276 122.72L139.084 121.088L138.796 120.576L138.924 119.616L138.668 118.496C138.764 117.216 138.732 116.096 138.956 114.816L138.636 114.368L138.764 112.736L138.476 112.48L138.796 109.184C138.38 107.04 138.732 105.024 138.86 104.096L139.788 103.168L141.164 102.848C141.164 102.848 142.412 102.784 143.436 102.56L143.724 102.848L144.62 102.56L146.732 102.848L146.988 102.56L147.948 102.848L148.14 102.56L149.484 103.456L149.804 104.96L150.028 105.184L149.644 105.888L149.964 106.624L149.836 109.056L150.124 109.312L149.868 112.096L150.124 112.352L149.932 113.824C150.188 114.272 150.156 115.456 150.156 115.968L149.932 116.192L150.188 116.384ZM146.348 116.224C146.284 115.712 145.964 115.104 145.932 114.592C145.9 113.792 146.124 112.8 146.188 111.968L145.932 111.776L146.06 108.256L145.836 108.032L146.028 107.776L145.708 106.624L145.9 106.4L145.676 106.112L145.868 105.888L145.804 105.44L145.58 105.184L143.948 105.44L142.956 105.184L142.38 106.112L142.636 106.4L142.38 111.776L142.636 111.968C142.7 112.224 142.572 113.152 142.54 113.44L142.796 113.664C142.892 115.008 142.764 116.448 142.604 117.76L142.828 117.984C143.02 119.168 142.572 120.224 143.148 121.248H143.628C144.172 120.8 145.1 121.344 145.1 121.344L146.124 120.992C146.22 119.488 146.444 117.088 146.348 116.224ZM164.74 103.648L164.452 103.872L164.548 105.504L164.356 105.76L164.228 109.504L164.612 110.464C164.132 111.52 164.196 113.44 164.292 114.56L164.004 115.04C164.196 116.32 164.324 117.632 164.42 118.912L164.004 119.808L164.132 120.768L163.908 123.328L163.556 123.648L163.076 123.744L161.412 124.096L161.156 124.128L158.564 124.16L158.116 124.032L155.364 123.904L154.916 123.648L153.06 120.544L152.9 120.096L152.868 117.792L152.708 117.312L152.932 117.12L152.74 116.864L152.58 116.128L152.836 115.904L152.644 115.68C152.772 113.408 153.06 111.84 152.804 109.44L153.06 109.216C152.9 108.096 152.932 106.88 153.028 105.76L151.908 103.392L152.132 102.816L156.26 102.496L156.772 103.104L156.868 103.648L156.964 105.088L156.676 105.312L156.996 106.944L156.74 107.168C156.836 108.352 157.22 112.096 156.644 113.216L156.868 113.44L156.516 114.592C156.996 116.352 156.548 119.552 157.028 120.704L158.436 121.376L159.94 121.088L160.452 120.864C160.452 120.864 160.196 120.512 160.388 119.328L160.612 119.104C160.676 117.088 160.676 112.608 160.9 110.688L160.484 109.984C161.06 108.736 160.676 107.168 160.516 105.856L160.772 105.664L159.908 103.264L160.196 102.56L162.756 102.72L163.972 102.496L164.58 102.72L164.74 103.648ZM178.345 124.32L177.961 124.864C177.801 124.8 177.449 124.512 176.873 124.224C176.809 124.16 176.617 123.904 176.553 123.872C176.393 123.808 176.361 123.936 176.201 123.904C175.689 123.68 175.081 122.656 175.081 122.656L174.473 122.4L174.665 122.048L174.153 121.536C174.153 121.536 173.161 118.688 172.457 116.992L172.425 116.512L171.913 116.064L170.793 116.8L170.441 117.312L170.761 117.984C170.505 119.968 169.993 119.136 170.313 120.608L169.833 121.152L170.345 121.312L170.313 124.704L169.577 124.608L169.033 124.064L168.553 123.456L167.817 123.328C167.785 123.2 167.273 122.432 167.273 122.432L167.209 120.032L166.953 119.808C167.145 119.36 167.145 118.912 167.049 118.464L166.793 118.24L167.177 116.992C167.049 116.512 166.793 115.808 166.793 115.328C166.729 114.336 166.953 113.28 166.985 112.288C167.017 110.272 166.921 108.224 166.889 106.208L167.113 105.984L166.761 105.664L166.185 103.04L167.177 102.656L168.137 102.88L170.441 102.656L170.953 102.88C172.873 102.464 173.513 103.04 175.081 102.88L175.273 102.656C175.913 102.976 176.393 104.288 177.225 104.832L177.129 106.048L176.905 106.304L177.161 106.528L177.065 109.12L177.417 110.272L177.065 111.136L177.289 111.616C177.161 112.384 176.105 113.6 175.593 114.08L175.433 114.784L176.457 118.272L176.521 118.976L177.097 120.064L177.001 120.448L177.385 120.736L178.345 124.32ZM173.417 107.424C173.449 107.232 173.193 106.688 173.129 106.496L173.289 105.76L172.777 105.344H172.201L171.753 105.568L171.145 105.344H170.921L170.473 105.76C170.441 106.624 170.345 107.584 170.601 108.352L170.185 109.088L170.441 109.312C170.281 110.144 170.313 111.616 170.697 112.384L170.473 112.608L170.601 113.792C171.241 112.928 172.585 112.352 173.193 111.488L173.353 110.56L173.097 110.336L173.289 110.08C173.225 109.696 173.257 109.248 173.289 108.832L173.001 107.904L173.417 107.424ZM199.393 112.192L197.217 113.792H196.705C196.321 114.528 194.433 115.712 193.761 116.128H193.057L192.481 117.504L192.737 117.984L192.705 118.912L192.481 119.104L192.801 124.32L192.577 124.672L191.649 124.224L191.041 123.488L190.561 123.584L189.185 122.752C189.185 122.752 189.249 121.312 189.057 120.736L188.769 120.48L189.217 119.744L188.897 119.04L189.089 116.576L188.833 116.32L189.121 114.464L188.801 113.28L188.993 113.024C188.481 112.128 188.897 109.984 188.897 108.832L189.153 107.744C189.153 107.744 188.993 106.464 188.737 106.016L187.969 103.616C188.001 103.488 188.065 103.328 188.353 103.008C189.473 102.944 191.713 102.688 192.801 102.688C194.337 102.688 195.393 103.104 197.025 102.688L197.281 102.976L197.473 102.688L198.689 102.976L199.265 103.872C199.137 105.248 198.913 106.752 198.913 108.128C198.913 108.608 199.233 109.248 199.297 109.792C199.393 110.56 199.297 111.392 199.393 112.192ZM195.297 110.464L195.169 105.568H194.657L194.433 105.312L194.241 105.568L193.025 105.312L192.417 106.24L192.609 106.496L192.673 107.2L192.545 107.424L192.801 108.352L192.449 109.536L192.737 109.792L192.833 113.536L195.169 111.392L195.105 110.688L195.297 110.464ZM211.818 124.608L211.626 124.832L210.122 123.904L209.354 123.04L208.586 122.688L207.946 121.184V120.416L207.082 118.368L206.538 117.92H206.058L205.802 118.144L205.322 117.92L203.53 118.144L203.242 117.92L202.666 121.696L202.282 124.928L201.706 125.088L201.098 124.064L200.618 123.2L200.074 122.336C200.074 122.336 199.594 120.64 200.234 118.816L199.978 118.56L200.362 117.6L200.522 116.256L200.81 114.784V113.216L201.482 112.032L201.706 109.216L201.994 108.032L201.834 107.136L202.538 105.664C202.282 104.896 202.186 103.456 202.25 102.688C204.266 102.464 205.93 102.56 207.946 102.656L208.17 102.944L209.514 111.264L209.77 111.488L209.61 112.256L210.154 115.52L210.378 115.744L210.186 115.968L211.018 119.232L210.89 119.968L211.434 120.64C211.498 121.088 211.818 124.512 211.818 124.608ZM206.698 114.752C206.474 113.6 206.218 112.416 206.058 111.264C205.93 110.432 205.994 109.536 205.866 108.704C205.834 108.608 205.45 107.744 205.386 107.616L204.234 110.912L204.138 111.584V112.16C203.85 112.992 203.754 113.984 203.658 114.848L205.098 115.104L206.698 114.752ZM221.406 102.88L221.182 103.968L220.67 104.416L220.574 105.376L219.358 105.472L219.07 105.216L217.918 105.536C217.886 106.912 217.758 108.384 217.854 109.728C217.854 109.952 218.206 110.72 218.206 110.912C218.238 112.416 217.854 114.24 217.79 115.776L218.014 116L217.982 117.632L218.206 117.856C217.63 120.096 218.174 120.704 218.046 122.912C218.014 123.36 218.174 124.16 217.95 124.608L217.374 124.864L214.75 123.36L214.59 122.624L214.622 120.896L214.398 120C214.398 120 214.59 119.52 214.654 118.784L214.302 118.144C214.366 117.312 214.59 114.88 214.43 114.176L214.654 113.984L214.078 110.656L214.398 109.28L214.142 108.832C214.142 107.904 214.142 105.824 214.142 105.824L212.83 105.76H211.742L210.878 104.608L211.102 104.352L210.558 103.456L210.75 103.04L212.574 103.2C212.83 103.008 213.246 102.848 213.534 102.752L214.27 102.976L215.71 102.72L215.966 102.944L216.894 102.72C217.854 102.944 219.55 102.912 220.51 102.592L221.406 102.88ZM228.285 120.736C228.221 122.656 228.093 123.648 228.125 124.224C228.157 125.152 227.613 125.184 226.717 124.608C226.621 124.544 226.429 124.096 226.333 124.032C226.109 123.904 226.045 124.16 225.821 124.064C225.117 123.68 224.669 123.52 224.349 122.656L224.637 121.28L224.381 118.848L224.477 112.096L224.221 111.904L224.637 111.168L224.189 108.096L224.413 107.904L224.381 107.648L224.125 107.392L224.573 106.72L224.541 106.208L224.285 105.984L224.509 105.824C224.221 104.928 223.709 104.064 223.293 103.264L223.677 102.816L226.493 102.72C226.877 102.944 227.485 103.04 227.933 102.976L228.029 106.272L227.837 106.528L228.157 107.712L227.933 107.968V108.16L228.189 108.416L227.965 111.232L228.221 111.968L228.061 112.64L227.805 112.896L228.093 113.152L227.933 114.272L228.285 115.68L227.869 116.864L228.189 117.824L228.029 120.48L228.285 120.736ZM240.393 121.76L239.945 122.464L239.049 123.008L238.729 123.488L237.257 124.032L236.713 123.744L236.265 124H232.649L231.977 123.552L231.881 121.632L231.657 120.352C231.817 119.616 232.041 117.952 231.817 117.184L231.561 116.96L231.881 115.072C231.721 113.824 231.817 113.408 231.817 113.408L231.753 112.672L231.785 111.104L231.465 110.848C231.657 109.12 231.785 107.648 231.369 105.984L230.377 103.552L230.793 102.912C231.977 102.752 233.865 102.912 234.793 102.624L235.337 102.848L237.257 102.624L237.545 102.848C237.929 102.656 239.049 102.624 239.465 102.688L239.849 103.104L239.145 104.544C238.921 104.704 238.313 105.184 238.153 105.44C237.481 105.248 236.361 105.376 235.657 105.44L235.177 106.624L235.433 106.848L235.497 107.328L235.273 107.552L235.529 107.808L235.369 110.016C235.433 110.176 235.721 110.784 235.689 110.944L236.233 111.424L238.441 111.2L239.017 111.424L238.665 113.088L238.089 113.664L236.937 113.792L236.713 114.048L236.457 113.792L235.593 114.72V116.832L235.753 118.272L235.529 118.944L235.881 120L235.625 120.256L235.721 121.376L236.937 121.6L238.537 121.376L238.793 121.6C238.985 121.536 240.169 121.408 240.169 121.408L240.393 121.76ZM253.473 124.704L253.185 124.864L252.033 124.224L251.169 123.04L250.209 122.72L249.025 120.16L248.225 119.04L247.265 117.856L245.665 114.848L245.249 114.976V116.96L245.505 117.184C245.505 117.184 245.057 120.864 245.249 121.536L245.537 121.792C245.441 122.816 245.345 124.448 245.345 124.448L245.057 124.768L243.681 124.032L242.721 123.68L242.209 122.976L242.145 121.152L242.401 120.544L242.049 119.328L242.273 119.104L241.985 118.368L242.433 116.288L242.177 116.032C242.209 114.976 242.433 112.384 242.241 111.488L241.985 111.232L242.369 110.304L242.081 109.568C242.241 108.768 242.241 108.512 242.081 107.744L242.305 107.456L242.017 107.232L242.241 106.048L241.377 104.256L241.057 102.912L243.617 102.592L244.609 102.848L244.801 102.592L245.537 102.848C246.465 104.384 246.145 106.592 247.297 107.968L247.137 108.704C247.617 109.824 247.841 110.304 248.289 111.456L248.417 112.448L248.929 112.896L248.769 113.664L249.633 115.168L249.889 115.392L250.081 114.368L249.761 113.408L250.177 112.704L249.889 111.968L250.017 111.104L250.241 110.848L249.921 110.112L250.049 109.152L249.761 108.448L249.921 107.456L250.145 107.232L249.761 105.824L250.113 105.024L249.281 103.616L249.217 103.104L249.633 102.592L250.561 102.848L252.225 102.592L253.121 102.944L252.993 109.344L253.249 109.6L253.185 116.032L253.473 116.288L253.057 116.992L253.345 117.728L253.185 120.768L253.473 124.704ZM265.14 121.888L264.34 122.688L263.892 123.168L262.42 124.064L260.884 123.712L259.828 124.192L256.436 123.968L255.86 122.112L256.116 121.088L255.828 120.416L255.764 116.192L255.828 113.12L255.796 112.064C255.828 110.24 255.732 106.976 255.732 106.976L256.148 106.496L255.7 105.632L255.988 103.456L256.532 103.072L258.42 102.976L263.54 102.816L264.308 102.944L264.724 103.456L263.476 107.36L263.092 107.296C263.092 107.296 262.036 106.048 261.46 105.312C261.204 105.12 260.02 105.344 260.02 105.344C260.02 105.344 259.188 107.168 259.412 108.384L259.572 109.056C259.252 110.4 259.348 110.784 259.444 112.16C259.508 113.056 259.476 114.336 259.444 115.936C259.444 116.096 259.188 116.576 259.188 116.704C259.188 116.864 259.508 117.024 259.476 117.184C259.476 119.104 259.764 120.768 259.764 120.768L260.212 121.376L263.252 121.632L264.692 121.504L265.14 121.888ZM276.3 121.76L275.852 122.464L274.956 123.008L274.636 123.488L273.164 124.032L272.62 123.744L272.172 124H268.556L267.884 123.552L267.788 121.632L267.564 120.352C267.724 119.616 267.948 117.952 267.724 117.184L267.468 116.96L267.788 115.072C267.628 113.824 267.724 113.408 267.724 113.408L267.66 112.672L267.692 111.104L267.372 110.848C267.564 109.12 267.692 107.648 267.276 105.984L266.284 103.552L266.7 102.912C267.884 102.752 269.772 102.912 270.7 102.624L271.244 102.848L273.164 102.624L273.452 102.848C273.836 102.656 274.956 102.624 275.372 102.688L275.756 103.104L275.052 104.544C274.828 104.704 274.22 105.184 274.06 105.44C273.388 105.248 272.268 105.376 271.564 105.44L271.084 106.624L271.34 106.848L271.404 107.328L271.18 107.552L271.436 107.808L271.276 110.016C271.34 110.176 271.628 110.784 271.596 110.944L272.14 111.424L274.348 111.2L274.924 111.424L274.572 113.088L273.996 113.664L272.844 113.792L272.62 114.048L272.364 113.792L271.5 114.72V116.832L271.66 118.272L271.436 118.944L271.788 120L271.532 120.256L271.628 121.376L272.844 121.6L274.444 121.376L274.7 121.6C274.892 121.536 276.076 121.408 276.076 121.408L276.3 121.76ZM282.02 120.512C281.86 121.344 281.636 122.336 281.732 123.168L280.932 123.84L279.268 123.424L278.404 123.808L278.116 123.52L277.572 121.024L278.404 119.424C279.044 119.552 280.004 119.68 280.644 119.52L280.932 119.776L281.22 119.456L282.02 120.512Z" fill="#FEF8D4"/>
</svg>
