<svg width="101" height="101" viewBox="0 0 101 101" fill="none" xmlns="http://www.w3.org/2000/svg">
<rect width="101" height="101" rx="15" fill="#5A7071"/>
<path d="M22.508 60.684L22.292 60.936L20.6 59.892L19.736 58.92L18.872 58.524L18.152 56.832V55.968L17.18 53.664L16.568 53.16H16.028L15.74 53.412L15.2 53.16L13.184 53.412L12.86 53.16L12.212 57.408L11.78 61.044L11.132 61.224L10.448 60.072L9.908 59.1L9.296 58.128C9.296 58.128 8.756 56.22 9.476 54.168L9.188 53.88L9.62 52.8L9.8 51.288L10.124 49.632V47.868L10.88 46.536L11.132 43.368L11.456 42.036L11.276 41.028L12.068 39.372C11.78 38.508 11.672 36.888 11.744 36.024C14.012 35.772 15.884 35.88 18.152 35.988L18.404 36.312L19.916 45.672L20.204 45.924L20.024 46.788L20.636 50.46L20.888 50.712L20.672 50.964L21.608 54.636L21.464 55.464L22.076 56.22C22.148 56.724 22.508 60.576 22.508 60.684ZM16.748 49.596C16.496 48.3 16.208 46.968 16.028 45.672C15.884 44.736 15.956 43.728 15.812 42.792C15.776 42.684 15.344 41.712 15.272 41.568L13.976 45.276L13.868 46.032V46.68C13.544 47.616 13.436 48.732 13.328 49.704L14.948 49.992L16.748 49.596ZM36.1956 36.168C36.1236 36.78 34.2876 46.608 34.3236 46.68L34.6116 46.932C34.4676 47.22 34.1436 47.796 33.8916 47.976L33.9636 48.552L34.2516 48.768L33.7836 49.596L33.3516 51.936L32.8476 52.476L33.1716 52.728C32.8116 53.916 32.6316 54.564 32.4156 55.752C32.3076 56.544 31.1556 60.828 31.1556 60.828L30.7596 61.152L29.5716 60.072L28.2756 58.848L27.3036 58.668L25.9716 57.552L25.8996 56.652L25.4676 56.544C25.4676 56.544 25.2876 55.464 24.9996 54.384L25.2516 54.132L24.5676 52.116L24.8196 51.864L24.7836 51.612L24.4956 51.324L24.7476 51.072L23.7756 46.86L23.9556 46.068L23.4516 44.808L23.6316 44.016C23.1276 42.936 23.1996 41.064 22.8756 39.624C22.5156 38.148 21.3996 36.672 21.3276 36.492L21.6516 35.88L23.6676 36.132L24.2076 35.88L25.8636 36.132L26.1156 35.88H26.3676L26.9796 36.384C26.6916 37.536 27.0156 39.3 27.3756 40.38L27.1236 40.596L27.4116 40.848C27.3756 41.856 27.2676 43.044 27.4476 44.016L27.7716 44.304L27.5196 44.556C27.9156 45.852 28.2396 47.688 27.9516 49.02L28.5996 49.812C28.5636 51.252 28.4916 53.016 29.1036 54.348L29.3916 54.204C29.4276 53.052 29.8236 51.612 30.1116 50.496C30.1836 50.136 30.4716 49.776 30.5436 49.416C30.9036 47.328 30.5796 44.988 31.4436 42.972L31.1556 42.756L32.1276 36.06L35.9076 35.916L36.1956 36.168ZM49.965 60.684L49.749 60.936L48.057 59.892L47.193 58.92L46.329 58.524L45.609 56.832V55.968L44.637 53.664L44.025 53.16H43.485L43.197 53.412L42.657 53.16L40.641 53.412L40.317 53.16L39.669 57.408L39.237 61.044L38.589 61.224L37.905 60.072L37.365 59.1L36.753 58.128C36.753 58.128 36.213 56.22 36.933 54.168L36.645 53.88L37.077 52.8L37.257 51.288L37.581 49.632V47.868L38.337 46.536L38.589 43.368L38.913 42.036L38.733 41.028L39.525 39.372C39.237 38.508 39.129 36.888 39.201 36.024C41.469 35.772 43.341 35.88 45.609 35.988L45.861 36.312L47.373 45.672L47.661 45.924L47.481 46.788L48.093 50.46L48.345 50.712L48.129 50.964L49.065 54.636L48.921 55.464L49.533 56.22C49.605 56.724 49.965 60.576 49.965 60.684ZM44.205 49.596C43.953 48.3 43.665 46.968 43.485 45.672C43.341 44.736 43.413 43.728 43.269 42.792C43.233 42.684 42.801 41.712 42.729 41.568L41.433 45.276L41.325 46.032V46.68C41.001 47.616 40.893 48.732 40.785 49.704L42.405 49.992L44.205 49.596ZM60.7518 36.24L60.4998 37.464L59.9238 37.968L59.8158 39.048L58.4478 39.156L58.1238 38.868L56.8278 39.228C56.7918 40.776 56.6478 42.432 56.7558 43.944C56.7558 44.196 57.1518 45.06 57.1518 45.276C57.1878 46.968 56.7558 49.02 56.6838 50.748L56.9358 51L56.8998 52.836L57.1518 53.088C56.5038 55.608 57.1158 56.292 56.9718 58.776C56.9358 59.28 57.1158 60.18 56.8638 60.684L56.2158 60.972L53.2638 59.28L53.0838 58.452L53.1198 56.508L52.8678 55.5C52.8678 55.5 53.0838 54.96 53.1558 54.132L52.7598 53.412C52.8318 52.476 53.0838 49.74 52.9038 48.948L53.1558 48.732L52.5078 44.988L52.8678 43.44L52.5798 42.936C52.5798 41.892 52.5798 39.552 52.5798 39.552L51.1038 39.48H49.8798L48.9078 38.184L49.1598 37.896L48.5478 36.888L48.7638 36.42L50.8158 36.6C51.1038 36.384 51.5718 36.204 51.8958 36.096L52.7238 36.348L54.3438 36.06L54.6318 36.312L55.6758 36.06C56.7558 36.312 58.6638 36.276 59.7438 35.916L60.7518 36.24ZM74.0119 60.684L73.7959 60.936L72.1039 59.892L71.2399 58.92L70.3759 58.524L69.6559 56.832V55.968L68.6839 53.664L68.0719 53.16H67.5319L67.2439 53.412L66.7039 53.16L64.6879 53.412L64.3639 53.16L63.7159 57.408L63.2839 61.044L62.6359 61.224L61.9519 60.072L61.4119 59.1L60.7999 58.128C60.7999 58.128 60.2599 56.22 60.9799 54.168L60.6919 53.88L61.1239 52.8L61.3039 51.288L61.6279 49.632V47.868L62.3839 46.536L62.6359 43.368L62.9599 42.036L62.7799 41.028L63.5719 39.372C63.2839 38.508 63.1759 36.888 63.2479 36.024C65.5159 35.772 67.3879 35.88 69.6559 35.988L69.9079 36.312L71.4199 45.672L71.7079 45.924L71.5279 46.788L72.1399 50.46L72.3919 50.712L72.1759 50.964L73.1119 54.636L72.9679 55.464L73.5799 56.22C73.6519 56.724 74.0119 60.576 74.0119 60.684ZM68.2519 49.596C67.9999 48.3 67.7119 46.968 67.5319 45.672C67.3879 44.736 67.4599 43.728 67.3159 42.792C67.2799 42.684 66.8479 41.712 66.7759 41.568L65.4799 45.276L65.3719 46.032V46.68C65.0479 47.616 64.9399 48.732 64.8319 49.704L66.4519 49.992L68.2519 49.596ZM88.1405 60.36L87.7085 60.972C87.5285 60.9 87.1325 60.576 86.4845 60.252C86.4125 60.18 86.1965 59.892 86.1245 59.856C85.9445 59.784 85.9085 59.928 85.7285 59.892C85.1525 59.64 84.4685 58.488 84.4685 58.488L83.7845 58.2L84.0005 57.804L83.4245 57.228C83.4245 57.228 82.3085 54.024 81.5165 52.116L81.4805 51.576L80.9045 51.072L79.6445 51.9L79.2485 52.476L79.6085 53.232C79.3205 55.464 78.7445 54.528 79.1045 56.184L78.5645 56.796L79.1405 56.976L79.1045 60.792L78.2765 60.684L77.6645 60.072L77.1245 59.388L76.2965 59.244C76.2605 59.1 75.6845 58.236 75.6845 58.236L75.6125 55.536L75.3245 55.284C75.5405 54.78 75.5405 54.276 75.4325 53.772L75.1445 53.52L75.5765 52.116C75.4325 51.576 75.1445 50.784 75.1445 50.244C75.0725 49.128 75.3245 47.94 75.3605 46.824C75.3965 44.556 75.2885 42.252 75.2525 39.984L75.5045 39.732L75.1085 39.372L74.4605 36.42L75.5765 35.988L76.6565 36.24L79.2485 35.988L79.8245 36.24C81.9845 35.772 82.7045 36.42 84.4685 36.24L84.6845 35.988C85.4045 36.348 85.9445 37.824 86.8805 38.436L86.7725 39.804L86.5205 40.092L86.8085 40.344L86.7005 43.26L87.0965 44.556L86.7005 45.528L86.9525 46.068C86.8085 46.932 85.6205 48.3 85.0445 48.84L84.8645 49.632L86.0165 53.556L86.0885 54.348L86.7365 55.572L86.6285 56.004L87.0605 56.328L88.1405 60.36ZM82.5965 41.352C82.6325 41.136 82.3445 40.524 82.2725 40.308L82.4525 39.48L81.8765 39.012H81.2285L80.7245 39.264L80.0405 39.012H79.7885L79.2845 39.48C79.2485 40.452 79.1405 41.532 79.4285 42.396L78.9605 43.224L79.2485 43.476C79.0685 44.412 79.1045 46.068 79.5365 46.932L79.2845 47.184L79.4285 48.516C80.1485 47.544 81.6605 46.896 82.3445 45.924L82.5245 44.88L82.2365 44.628L82.4525 44.34C82.3805 43.908 82.4165 43.404 82.4525 42.936L82.1285 41.892L82.5965 41.352Z" fill="#FEF8D4"/>
</svg>
