<svg width="40" height="40" viewBox="0 0 40 40" fill="none" xmlns="http://www.w3.org/2000/svg">
<path d="M21.3416 22.854H18.6584L17.2943 18.2854L10.1015 16.0737L10.2142 20.4747L14.938 25.7582L16.7531 24.1608L18.1285 40L5.81736 26.3502L8.00451 19.8492L6.83202 5.86428L9.4363 4.76962C11.5107 12.7339 17.6776 15.5376 17.6776 15.5376L20 12.3094L22.3224 15.5376C22.3224 15.5376 28.4893 12.7339 30.5637 4.76962L33.168 5.86428L31.9955 19.8492L34.1826 26.3502L21.8715 40L23.2469 24.1608L25.062 25.7582L29.7858 20.4747L29.8985 16.0737L22.7058 18.2854L21.3416 22.854ZM35.5242 30.0922L27.0913 38.6596L33.4949 35.532L34.1826 38.2128L40 34.1916L35.5242 30.0922ZM4.47576 30.0922L12.9087 38.6596L6.50507 35.532L5.81736 38.2128L0 34.1916L4.47576 30.0922ZM20 0L27.6099 4.66909C27.6099 4.66909 27.2492 8.57861 22.8298 11.8961L20 6.12119L17.1702 11.8961C12.7508 8.57861 12.3901 4.66909 12.3901 4.66909L20 0Z" fill="#FEF8D4"/>
</svg>
