<svg width="40" height="40" viewBox="0 0 40 40" fill="none" xmlns="http://www.w3.org/2000/svg">
<path d="M21.9909 0V2.53453H18.0083V0H21.9909ZM37.4018 2.99075C37.7031 3.0972 38.0312 3.22055 38.3715 3.37515C38.852 3.59397 39.3195 3.86009 39.6191 4.11355C39.9186 4.367 40 4.55709 40 4.64664C40 4.7362 39.9195 4.92629 39.6191 5.17974C39.3195 5.43319 38.852 5.69932 38.3715 5.91813C38.0312 6.07274 37.7039 6.19609 37.4018 6.30254V2.99075ZM2.59735 2.99075V6.30338C2.29519 6.19693 1.96792 6.07359 1.62854 5.91898C1.14803 5.70016 0.681371 5.43404 0.380944 5.18059C0.0813835 4.92713 0 4.73704 0 4.64749C0 4.55794 0.0805177 4.36785 0.380944 4.11439C0.680505 3.86094 1.14803 3.59481 1.62854 3.376C1.96879 3.22139 2.29605 3.09804 2.59735 2.99159V2.99075ZM35.8434 4.05525V5.23804H31.8608V4.05525H35.8434ZM30.3024 4.05525V28.6892L19.9996 40L9.69676 28.6892V4.05525H30.3024ZM8.13835 4.05525V5.23804H4.15575V4.05525H8.13835ZM26.3198 5.99839H24.7614V27.3594L19.9996 33.1677L15.2378 27.3594V5.99839H13.6794V27.8934L19.9996 35.6026L26.3198 27.8934V5.99839Z" fill="#5A7071"/>
</svg>
