<svg width="101" height="101" viewBox="0 0 101 101" fill="none" xmlns="http://www.w3.org/2000/svg">
<rect width="101" height="101" rx="15" fill="#5A7071"/>
<path d="M21.4 53.304L21.184 53.88L21.148 55.428C20.536 57.048 18.448 58.776 17.188 59.964L15.712 60.18L15.172 59.892L13.048 60.216L12.76 59.964C11.752 60.108 10.672 60.324 9.556 60.252L9.016 59.748L9.124 60.036L8.836 59.208L9.016 58.092L8.764 57.804C8.8 57.156 8.98 56.292 8.872 55.644L8.62 55.356L8.908 52.044L8.62 51.72L9.016 49.56L8.692 48.156L8.908 47.868C8.692 45.96 8.692 40.56 8.692 40.56L8.98 39.516L7.648 36.816L7.864 36.096C10.276 36.024 12.004 35.88 13.732 35.952C15.496 35.988 16.72 36.528 18.556 36.096L18.844 36.42L19.06 36.132L20.464 36.492L21.076 37.572C20.896 39.192 20.824 39.588 20.86 41.244C20.86 41.856 20.824 42.216 20.932 42.828C21.004 43.224 20.752 43.98 20.752 43.98L20.032 44.952L19.06 46.068L21.004 46.896C21.004 47.76 21.04 48.66 21.112 49.56L20.86 49.812L21.148 50.064L21.364 52.8L21.148 53.052L21.4 53.304ZM16.72 43.08C16.864 42.144 16.936 40.38 16.72 38.976L15.748 38.94L15.496 38.688L15.244 38.94L13.48 39.012L12.76 40.056L12.976 40.344L13.012 41.172L12.832 41.424L13.084 42.54L12.652 43.908L12.976 44.196V46.392L13.336 46.68L16.54 44.16L16.504 43.332L16.72 43.08ZM17.26 51.72L16.972 51.504L17.008 48.552L16.54 48.228L13.12 50.568C12.976 51.324 13.012 53.124 13.012 53.124L13.264 53.412C13.444 54.78 12.58 55.644 13.192 56.904H13.732C14.38 56.436 15.64 57.264 16.216 56.652L16.9 55.428C16.936 54.276 17.08 52.008 17.08 52.008L17.26 51.72ZM37.0471 60.684L36.8311 60.936L35.1391 59.892L34.2751 58.92L33.4111 58.524L32.6911 56.832V55.968L31.7191 53.664L31.1071 53.16H30.5671L30.2791 53.412L29.7391 53.16L27.7231 53.412L27.3991 53.16L26.7511 57.408L26.3191 61.044L25.6711 61.224L24.9871 60.072L24.4471 59.1L23.8351 58.128C23.8351 58.128 23.2951 56.22 24.0151 54.168L23.7271 53.88L24.1591 52.8L24.3391 51.288L24.6631 49.632V47.868L25.4191 46.536L25.6711 43.368L25.9951 42.036L25.8151 41.028L26.6071 39.372C26.3191 38.508 26.2111 36.888 26.2831 36.024C28.5511 35.772 30.4231 35.88 32.6911 35.988L32.9431 36.312L34.4551 45.672L34.7431 45.924L34.5631 46.788L35.1751 50.46L35.4271 50.712L35.2111 50.964L36.1471 54.636L36.0031 55.464L36.6151 56.22C36.6871 56.724 37.0471 60.576 37.0471 60.684ZM31.2871 49.596C31.0351 48.3 30.7471 46.968 30.5671 45.672C30.4231 44.736 30.4951 43.728 30.3511 42.792C30.3151 42.684 29.8831 41.712 29.8111 41.568L28.5151 45.276L28.4071 46.032V46.68C28.0831 47.616 27.9751 48.732 27.8671 49.704L29.4871 49.992L31.2871 49.596ZM51.3197 60.792L50.9957 60.972L49.6997 60.252L48.7277 58.92L47.6477 58.56L46.3157 55.68L45.4157 54.42L44.3357 53.088L42.5357 49.704L42.0677 49.848V52.08L42.3557 52.332C42.3557 52.332 41.8517 56.472 42.0677 57.228L42.3917 57.516C42.2837 58.668 42.1757 60.504 42.1757 60.504L41.8517 60.864L40.3037 60.036L39.2237 59.64L38.6477 58.848L38.5757 56.796L38.8637 56.112L38.4677 54.744L38.7197 54.492L38.3957 53.664L38.8997 51.324L38.6117 51.036C38.6477 49.848 38.8997 46.932 38.6837 45.924L38.3957 45.636L38.8277 44.592L38.5037 43.764C38.6837 42.864 38.6837 42.576 38.5037 41.712L38.7557 41.388L38.4317 41.136L38.6837 39.804L37.7117 37.788L37.3517 36.276L40.2317 35.916L41.3477 36.204L41.5637 35.916L42.3917 36.204C43.4357 37.932 43.0757 40.416 44.3717 41.964L44.1917 42.792C44.7317 44.052 44.9837 44.592 45.4877 45.888L45.6317 47.004L46.2077 47.508L46.0277 48.372L46.9997 50.064L47.2877 50.316L47.5037 49.164L47.1437 48.084L47.6117 47.292L47.2877 46.464L47.4317 45.492L47.6837 45.204L47.3237 44.376L47.4677 43.296L47.1437 42.504L47.3237 41.388L47.5757 41.136L47.1437 39.552L47.5397 38.652L46.6037 37.068L46.5317 36.492L46.9997 35.916L48.0437 36.204L49.9157 35.916L50.9237 36.312L50.7797 43.512L51.0677 43.8L50.9957 51.036L51.3197 51.324L50.8517 52.116L51.1757 52.944L50.9957 56.364L51.3197 60.792ZM66.9642 60.792L66.6402 60.972L65.3442 60.252L64.3722 58.92L63.2922 58.56L61.9602 55.68L61.0602 54.42L59.9802 53.088L58.1802 49.704L57.7122 49.848V52.08L58.0002 52.332C58.0002 52.332 57.4962 56.472 57.7122 57.228L58.0362 57.516C57.9282 58.668 57.8202 60.504 57.8202 60.504L57.4962 60.864L55.9482 60.036L54.8682 59.64L54.2922 58.848L54.2202 56.796L54.5082 56.112L54.1122 54.744L54.3642 54.492L54.0402 53.664L54.5442 51.324L54.2562 51.036C54.2922 49.848 54.5442 46.932 54.3282 45.924L54.0402 45.636L54.4722 44.592L54.1482 43.764C54.3282 42.864 54.3282 42.576 54.1482 41.712L54.4002 41.388L54.0762 41.136L54.3282 39.804L53.3562 37.788L52.9962 36.276L55.8762 35.916L56.9922 36.204L57.2082 35.916L58.0362 36.204C59.0802 37.932 58.7202 40.416 60.0162 41.964L59.8362 42.792C60.3762 44.052 60.6282 44.592 61.1322 45.888L61.2762 47.004L61.8522 47.508L61.6722 48.372L62.6442 50.064L62.9322 50.316L63.1482 49.164L62.7882 48.084L63.2562 47.292L62.9322 46.464L63.0762 45.492L63.3282 45.204L62.9682 44.376L63.1122 43.296L62.7882 42.504L62.9682 41.388L63.2202 41.136L62.7882 39.552L63.1842 38.652L62.2482 37.068L62.1762 36.492L62.6442 35.916L63.6882 36.204L65.5602 35.916L66.5682 36.312L66.4242 43.512L66.7122 43.8L66.6402 51.036L66.9642 51.324L66.4962 52.116L66.8202 52.944L66.6402 56.364L66.9642 60.792ZM80.2687 57.48L79.7647 58.272L78.7567 58.884L78.3967 59.424L76.7407 60.036L76.1287 59.712L75.6247 60H71.5567L70.8007 59.496L70.6927 57.336L70.4407 55.896C70.6207 55.068 70.8727 53.196 70.6207 52.332L70.3327 52.08L70.6927 49.956C70.5127 48.552 70.6207 48.084 70.6207 48.084L70.5487 47.256L70.5847 45.492L70.2247 45.204C70.4407 43.26 70.5847 41.604 70.1167 39.732L69.0007 36.996L69.4687 36.276C70.8007 36.096 72.9247 36.276 73.9687 35.952L74.5807 36.204L76.7407 35.952L77.0647 36.204C77.4967 35.988 78.7567 35.952 79.2247 36.024L79.6567 36.492L78.8647 38.112C78.6127 38.292 77.9287 38.832 77.7487 39.12C76.9927 38.904 75.7327 39.048 74.9407 39.12L74.4007 40.452L74.6887 40.704L74.7607 41.244L74.5087 41.496L74.7967 41.784L74.6167 44.268C74.6887 44.448 75.0127 45.132 74.9767 45.312L75.5887 45.852L78.0727 45.6L78.7207 45.852L78.3247 47.724L77.6767 48.372L76.3807 48.516L76.1287 48.804L75.8407 48.516L74.8687 49.56V51.936L75.0487 53.556L74.7967 54.312L75.1927 55.5L74.9047 55.788L75.0127 57.048L76.3807 57.3L78.1807 57.048L78.4687 57.3C78.6847 57.228 80.0167 57.084 80.0167 57.084L80.2687 57.48ZM94.8397 60.36L94.4077 60.972C94.2277 60.9 93.8317 60.576 93.1837 60.252C93.1117 60.18 92.8957 59.892 92.8237 59.856C92.6437 59.784 92.6077 59.928 92.4277 59.892C91.8517 59.64 91.1677 58.488 91.1677 58.488L90.4837 58.2L90.6997 57.804L90.1237 57.228C90.1237 57.228 89.0077 54.024 88.2157 52.116L88.1797 51.576L87.6037 51.072L86.3437 51.9L85.9477 52.476L86.3077 53.232C86.0197 55.464 85.4437 54.528 85.8037 56.184L85.2637 56.796L85.8397 56.976L85.8037 60.792L84.9757 60.684L84.3637 60.072L83.8237 59.388L82.9957 59.244C82.9597 59.1 82.3837 58.236 82.3837 58.236L82.3117 55.536L82.0237 55.284C82.2397 54.78 82.2397 54.276 82.1317 53.772L81.8437 53.52L82.2757 52.116C82.1317 51.576 81.8437 50.784 81.8437 50.244C81.7717 49.128 82.0237 47.94 82.0597 46.824C82.0957 44.556 81.9877 42.252 81.9517 39.984L82.2037 39.732L81.8077 39.372L81.1597 36.42L82.2757 35.988L83.3557 36.24L85.9477 35.988L86.5237 36.24C88.6837 35.772 89.4037 36.42 91.1677 36.24L91.3837 35.988C92.1037 36.348 92.6437 37.824 93.5797 38.436L93.4717 39.804L93.2197 40.092L93.5077 40.344L93.3997 43.26L93.7957 44.556L93.3997 45.528L93.6517 46.068C93.5077 46.932 92.3197 48.3 91.7437 48.84L91.5637 49.632L92.7157 53.556L92.7877 54.348L93.4357 55.572L93.3277 56.004L93.7597 56.328L94.8397 60.36ZM89.2957 41.352C89.3317 41.136 89.0437 40.524 88.9717 40.308L89.1517 39.48L88.5757 39.012H87.9277L87.4237 39.264L86.7397 39.012H86.4877L85.9837 39.48C85.9477 40.452 85.8397 41.532 86.1277 42.396L85.6597 43.224L85.9477 43.476C85.7677 44.412 85.8037 46.068 86.2357 46.932L85.9837 47.184L86.1277 48.516C86.8477 47.544 88.3597 46.896 89.0437 45.924L89.2237 44.88L88.9357 44.628L89.1517 44.34C89.0797 43.908 89.1157 43.404 89.1517 42.936L88.8277 41.892L89.2957 41.352Z" fill="#FEF8D4"/>
</svg>
