<svg width="135" height="70" viewBox="0 0 135 70" fill="none" xmlns="http://www.w3.org/2000/svg">
<path d="M135 0H0L18 70H135V0Z" fill="#333333"/>
<path d="M43.2 42.072L42.912 42.84L42.864 44.904C42.048 47.064 39.264 49.368 37.584 50.952L35.616 51.24L34.896 50.856L32.064 51.288L31.68 50.952C30.336 51.144 28.896 51.432 27.408 51.336L26.688 50.664L26.832 51.048L26.448 49.944L26.688 48.456L26.352 48.072C26.4 47.208 26.64 46.056 26.496 45.192L26.16 44.808L26.544 40.392L26.16 39.96L26.688 37.08L26.256 35.208L26.544 34.824C26.256 32.28 26.256 25.08 26.256 25.08L26.64 23.688L24.864 20.088L25.152 19.128C28.368 19.032 30.672 18.84 32.976 18.936C35.328 18.984 36.96 19.704 39.408 19.128L39.792 19.56L40.08 19.176L41.952 19.656L42.768 21.096C42.528 23.256 42.432 23.784 42.48 25.992C42.48 26.808 42.432 27.288 42.576 28.104C42.672 28.632 42.336 29.64 42.336 29.64L41.376 30.936L40.08 32.424L42.672 33.528C42.672 34.68 42.72 35.88 42.816 37.08L42.48 37.416L42.864 37.752L43.152 41.4L42.864 41.736L43.2 42.072ZM36.96 28.44C37.152 27.192 37.248 24.84 36.96 22.968L35.664 22.92L35.328 22.584L34.992 22.92L32.64 23.016L31.68 24.408L31.968 24.792L32.016 25.896L31.776 26.232L32.112 27.72L31.536 29.544L31.968 29.928V32.856L32.448 33.24L36.72 29.88L36.672 28.776L36.96 28.44ZM37.68 39.96L37.296 39.672L37.344 35.736L36.72 35.304L32.16 38.424C31.968 39.432 32.016 41.832 32.016 41.832L32.352 42.216C32.592 44.04 31.44 45.192 32.256 46.872H32.976C33.84 46.248 35.52 47.352 36.288 46.536L37.2 44.904C37.248 43.368 37.44 40.344 37.44 40.344L37.68 39.96ZM65.0708 20.472L64.6388 20.808L64.7828 23.256L64.4948 23.64L64.3028 29.256L64.8788 30.696C64.1588 32.28 64.2548 35.16 64.3988 36.84L63.9668 37.56C64.2548 39.48 64.4468 41.448 64.5908 43.368L63.9668 44.712L64.1588 46.152L63.8228 49.992L63.2948 50.472L62.5748 50.616L60.0788 51.144L59.6948 51.192L55.8068 51.24L55.1348 51.048L51.0068 50.856L50.3348 50.472L47.5508 45.816L47.3108 45.144L47.2628 41.688L47.0228 40.968L47.3588 40.68L47.0708 40.296L46.8308 39.192L47.2148 38.856L46.9268 38.52C47.1188 35.112 47.5508 32.76 47.1668 29.16L47.5508 28.824C47.3108 27.144 47.3588 25.32 47.5028 23.64L45.8228 20.088L46.1588 19.224L52.3508 18.744L53.1188 19.656L53.2628 20.472L53.4068 22.632L52.9748 22.968L53.4548 25.416L53.0708 25.752C53.2148 27.528 53.7908 33.144 52.9268 34.824L53.2628 35.16L52.7348 36.888C53.4548 39.528 52.7828 44.328 53.5028 46.056L55.6148 47.064L57.8708 46.632L58.6388 46.296C58.6388 46.296 58.2548 45.768 58.5428 43.992L58.8788 43.656C58.9748 40.632 58.9748 33.912 59.3108 31.032L58.6868 29.976C59.5508 28.104 58.9748 25.752 58.7348 23.784L59.1188 23.496L57.8228 19.896L58.2548 18.84L62.0948 19.08L63.9188 18.744L64.8308 19.08L65.0708 20.472ZM75.591 46.104C75.495 48.984 75.303 50.472 75.351 51.336C75.399 52.728 74.583 52.776 73.239 51.912C73.095 51.816 72.807 51.144 72.663 51.048C72.327 50.856 72.231 51.24 71.895 51.096C70.839 50.52 70.167 50.28 69.687 48.984L70.119 46.92L69.735 43.272L69.879 33.144L69.495 32.856L70.119 31.752L69.447 27.144L69.783 26.856L69.735 26.472L69.351 26.088L70.023 25.08L69.975 24.312L69.591 23.976L69.927 23.736C69.495 22.392 68.727 21.096 68.103 19.896L68.679 19.224L72.903 19.08C73.479 19.416 74.391 19.56 75.063 19.464L75.207 24.408L74.919 24.792L75.399 26.568L75.063 26.952V27.24L75.447 27.624L75.111 31.848L75.495 32.952L75.255 33.96L74.871 34.344L75.303 34.728L75.063 36.408L75.591 38.52L74.967 40.296L75.447 41.736L75.207 45.72L75.591 46.104ZM94.3301 47.304L92.4101 49.176L92.0261 50.136L91.1621 50.568L86.6501 51.624L85.2581 50.856L83.6261 51.432L82.3301 51.384V50.568L81.4661 50.376L80.9381 47.736C81.0341 45.528 81.6581 43.08 81.2741 40.92L80.8421 40.536L81.3221 37.704L80.7941 35.976L81.1781 32.808L80.7461 32.424C80.9861 29.88 81.2261 26.616 80.5541 24.072L79.3061 20.04L79.5941 19.512C81.3221 19.32 84.3461 19.512 85.7381 19.032L86.8421 19.992L86.9381 21C86.2661 22.056 86.9381 24.312 86.6981 25.56L86.4101 26.472L86.7941 26.856L86.5541 31.752C87.5621 33.816 86.8421 37.992 86.9381 40.872L87.3221 41.256L86.6021 41.928L87.1301 43.032C86.9861 43.368 86.9861 46.152 87.0341 46.536L88.9061 47.016L91.7381 46.824L92.1701 47.16C92.4101 47.016 93.2261 46.632 93.5621 46.632L94.3301 47.304ZM114.747 39.432L114.459 40.584L114.219 40.92L114.555 41.208L114.315 41.928L114.411 43.704C113.691 45.816 109.995 49.128 108.411 50.664L106.491 51L105.771 50.664L103.371 51.144L102.987 50.808C101.643 51.048 100.299 51.432 98.811 51.384L98.091 50.712L98.235 51.096L97.851 50.04L98.043 48.648L97.707 48.312C97.707 47.448 97.947 46.344 97.755 45.528L97.419 45.192C97.755 42.792 97.851 39.72 97.803 37.32L97.323 36.6L97.515 34.2L97.083 33.816L97.563 28.92C97.035 27.816 97.179 24.744 97.179 24.744L96.747 23.208L95.499 19.896L96.507 19.128C96.507 19.128 102.411 18.936 103.659 18.84L104.091 19.224L105.435 18.84L108.603 19.224L108.939 18.84L110.379 19.224L110.667 18.84L113.163 19.608L113.931 22.632L114.219 23.016L113.691 24.024L114.171 25.128L113.979 28.728L114.411 29.112L114.027 33.24L114.411 33.624L114.123 35.784C114.507 36.456 114.699 37.512 114.651 38.28L114.363 38.616L114.747 39.432ZM108.795 39.912C108.699 39.144 108.219 37.704 108.171 36.936C108.123 35.784 108.459 34.248 108.555 33.048L108.219 32.76L108.363 27.528L108.027 27.192L108.315 26.856L107.835 25.128L108.123 24.792L107.787 24.36L108.075 24.024L107.979 23.352L107.643 23.016L105.243 23.352L103.755 23.016L102.891 24.36L103.275 24.792L102.939 32.76L103.275 33.048C103.419 33.432 103.179 34.824 103.131 35.208L103.515 35.592C103.659 37.56 103.467 40.2 103.227 42.168L103.563 42.504C103.851 44.232 103.179 45.48 104.043 47.016H104.763C105.579 46.392 106.443 47.4 107.115 46.632L108.459 44.664C108.987 43.416 108.939 41.16 108.795 39.912Z" fill="#FEF8D4"/>
</svg>
