<svg width="40" height="40" viewBox="0 0 40 40" fill="none" xmlns="http://www.w3.org/2000/svg">
<path d="M28.7489 0L13.96 21.4965L14.0894 21.5857L16.7927 23.4649L31.5951 1.94481L28.7489 0ZM36.3641 5.24062C34.6594 7.71858 32.6334 7.18626 30.5931 5.99024L26.4761 12.1287C28.2754 13.5227 29.559 15.1314 28.048 17.3272L31.6813 19.8094L34.1259 16.2584L32.8812 15.4869C32.6132 15.6418 32.302 15.732 31.9697 15.732C30.9677 15.732 30.1543 14.9217 30.1543 13.9236C30.1543 12.9255 30.9677 12.1178 31.9697 12.1178C32.9717 12.1178 33.7826 12.9255 33.7826 13.9236C33.7826 13.9404 33.7809 13.9573 33.78 13.9733L35.1253 14.808L36.6423 12.5995L33.4553 10.6202L34.388 9.1277L35.6513 9.91185L36.5044 8.54822L38.5549 9.81921L40 7.71858L36.3641 5.23893V5.24062ZM10.5456 21.2463C10.5194 21.2471 10.4924 21.248 10.4662 21.2514C10.396 21.2598 10.3266 21.2749 10.2522 21.2985C9.95543 21.392 9.62651 21.6413 9.39651 21.9673C9.16652 22.2933 9.04476 22.6824 9.05829 22.9881C9.07182 23.2947 9.16483 23.5221 9.50221 23.7563L15.9784 28.2599C16.2557 28.4528 16.4629 28.4578 16.7495 28.3576C17.037 28.2574 17.3685 27.9988 17.6052 27.6653C17.842 27.3317 17.9731 26.9359 17.9697 26.6385C17.9663 26.3412 17.8944 26.1509 17.6002 25.9462L11.1215 21.4434C10.9058 21.2935 10.7274 21.2396 10.5456 21.2455V21.2463ZM5.73099 24.9649C3.67205 24.9995 1.88368 25.7668 0.85632 27.2601C-0.576911 29.3439 -0.147365 32.2927 1.66975 34.8642C1.51417 35.2617 1.42623 35.693 1.42623 36.1436C1.42623 38.101 3.03872 39.7072 5.00381 39.7072C5.73438 39.7072 6.41506 39.4865 6.98327 39.1075C10.637 40.6649 14.4302 40.1781 16.139 37.6942C17.7202 35.3965 17.059 32.0586 14.7549 29.3296L9.42019 25.6211C8.23471 25.1907 7.04669 24.9725 5.93224 24.9658C5.86544 24.9658 5.79779 24.9649 5.73099 24.9658V24.9649ZM5.00466 34.1558C6.11573 34.1558 6.99934 35.036 6.99934 36.1427C6.99934 37.2495 6.11573 38.1322 5.00466 38.1322C3.89358 38.1322 3.00743 37.2495 3.00743 36.1427C3.00743 35.036 3.89358 34.1558 5.00466 34.1558Z" fill="#5A7071"/>
</svg>
