<svg width="101" height="101" viewBox="0 0 101 101" fill="none" xmlns="http://www.w3.org/2000/svg">
<rect width="101" height="101" rx="15" fill="#5A7071"/>
<path d="M18.936 66.832L17.736 68.032L17.064 68.752L14.856 70.096L12.552 69.568L10.968 70.288L5.88 69.952L5.016 67.168L5.4 65.632L4.968 64.624L4.872 58.288L4.968 53.68L4.92 52.096C4.968 49.36 4.824 44.464 4.824 44.464L5.448 43.744L4.776 42.448L5.208 39.184L6.024 38.608L8.856 38.464L16.536 38.224L17.688 38.416L18.312 39.184L16.44 45.04L15.864 44.944C15.864 44.944 14.28 43.072 13.416 41.968C13.032 41.68 11.256 42.016 11.256 42.016C11.256 42.016 10.008 44.752 10.344 46.576L10.584 47.584C10.104 49.6 10.248 50.176 10.392 52.24C10.488 53.584 10.44 55.504 10.392 57.904C10.392 58.144 10.008 58.864 10.008 59.056C10.008 59.296 10.488 59.536 10.44 59.776C10.44 62.656 10.872 65.152 10.872 65.152L11.544 66.064L16.104 66.448L18.264 66.256L18.936 66.832ZM41.34 52.48L40.668 53.488C40.716 54.736 40.572 56.128 40.716 57.376C40.812 58.336 40.524 60.736 40.476 61.84L40.188 62.176L40.572 62.56L40.668 71.104L40.044 71.344L37.692 69.328L36.684 69.088L35.82 67.888L35.772 66.784L35.34 66.4L35.724 61.6L35.196 60.208L35.532 59.872L35.436 58.816L35.052 58.432L35.34 57.76L35.196 56.368L32.508 55.648C31.884 55.984 30.204 56.08 29.532 55.984L29.052 55.648L28.092 56.368L27.804 57.376L28.428 59.488L27.852 65.488L28.236 66.448C28.14 67.888 28.092 71.008 28.092 71.008L27.516 71.392L25.596 69.568L23.868 68.56L23.388 67.456C22.86 66.736 23.196 66.304 22.908 65.728L23.148 60.544L22.716 60.208V56.848L22.524 54.352L22.428 52.48C22.716 49.744 22.62 46.72 22.284 43.984L22.62 43.696L22.14 41.968L20.556 39.328L20.652 38.128C22.86 37.792 25.308 37.552 27.468 38.032L27.852 38.416L28.14 50.416C28.476 50.848 28.86 51.424 29.34 51.808C30.54 51.52 31.98 51.28 33.276 51.424L33.708 51.808L34.764 51.04L35.244 49.024C34.428 47.008 34.428 45.04 34.86 42.976L34.62 40.912L33.948 38.8L34.572 38.032L39.324 37.744L40.236 38.368C41.148 41.728 40.908 45.136 40.62 48.592L41.004 48.976L41.1 50.08L40.428 50.704L40.956 52.096L41.34 52.48ZM59.3948 66.64L58.7228 67.696L57.3788 68.512L56.8988 69.232L54.6908 70.048L53.8748 69.616L53.2028 70H47.7788L46.7708 69.328L46.6268 66.448L46.2908 64.528C46.5308 63.424 46.8668 60.928 46.5308 59.776L46.1468 59.44L46.6268 56.608C46.3867 54.736 46.5308 54.112 46.5308 54.112L46.4348 53.008L46.4828 50.656L46.0028 50.272C46.2908 47.68 46.4828 45.472 45.8588 42.976L44.3708 39.328L44.9948 38.368C46.7708 38.128 49.6028 38.368 50.9948 37.936L51.8108 38.272L54.6908 37.936L55.1228 38.272C55.6988 37.984 57.3788 37.936 58.0028 38.032L58.5788 38.656L57.5228 40.816C57.1868 41.056 56.2748 41.776 56.0348 42.16C55.0268 41.872 53.3468 42.064 52.2908 42.16L51.5708 43.936L51.9548 44.272L52.0508 44.992L51.7148 45.328L52.0988 45.712L51.8588 49.024C51.9548 49.264 52.3868 50.176 52.3388 50.416L53.1548 51.136L56.4668 50.8L57.3307 51.136L56.8028 53.632L55.9388 54.496L54.2108 54.688L53.8748 55.072L53.4908 54.688L52.1948 56.08V59.248L52.4348 61.408L52.0988 62.416L52.6268 64L52.2428 64.384L52.3868 66.064L54.2108 66.4L56.6108 66.064L56.9948 66.4C57.2828 66.304 59.0588 66.112 59.0588 66.112L59.3948 66.64ZM74.9828 62.224C74.4548 62.944 74.7428 65.824 74.6948 66.688L73.7348 68.896L72.5828 69.904L70.1348 70.144L68.4548 69.76L67.3028 70.336L63.2708 69.424L62.2628 68.608L61.1108 67.168L61.5908 66.496L64.8068 66.544L66.8708 66.256L68.6948 66.112L69.1268 62.032L68.4548 61.36C68.2628 60.544 67.8788 59.776 67.3988 58.96C66.7268 57.808 65.8628 56.656 65.2868 55.552C65.2868 55.552 65.2868 55.024 65.1428 54.784C63.7028 52.24 62.3588 50.656 61.4468 48.064C61.3027 47.68 61.5908 47.2 61.4468 46.768L61.1108 45.616L61.6868 39.424L62.6948 38.368L69.2228 37.888L69.6548 38.272L74.1668 37.84L74.5508 38.8C74.0708 40.288 73.8307 42.976 72.5828 44.8L72.1508 44.704L69.9908 41.776L69.6068 42.112L68.1668 41.776L66.7747 42.208L66.8228 45.184C67.2068 46.24 68.0228 48.016 68.0228 48.016L69.7988 51.616L69.8948 52.336C71.2388 53.104 73.6388 58 74.7908 59.728L74.9828 62.224ZM92.5076 38.32L92.1716 39.952L91.4036 40.624L91.2596 42.064L89.4356 42.208L89.0036 41.824L87.2756 42.304C87.2276 44.368 87.0356 46.576 87.1796 48.592C87.1796 48.928 87.7076 50.08 87.7076 50.368C87.7556 52.624 87.1796 55.36 87.0836 57.664L87.4196 58L87.3716 60.448L87.7076 60.784C86.8436 64.144 87.6596 65.056 87.4676 68.368C87.4196 69.04 87.6596 70.24 87.3236 70.912L86.4596 71.296L82.5236 69.04L82.2836 67.936L82.3316 65.344L81.9956 64C81.9956 64 82.2836 63.28 82.3796 62.176L81.8516 61.216C81.9476 59.968 82.2836 56.32 82.0436 55.264L82.3796 54.976L81.5156 49.984L81.9956 47.92L81.6116 47.248C81.6116 45.856 81.6116 42.736 81.6116 42.736L79.6436 42.64H78.0116L76.7156 40.912L77.0516 40.528L76.2356 39.184L76.5236 38.56L79.2596 38.8C79.6436 38.512 80.2676 38.272 80.6996 38.128L81.8036 38.464L83.9636 38.08L84.3476 38.416L85.7396 38.08C87.1796 38.416 89.7236 38.368 91.1636 37.888L92.5076 38.32Z" fill="#FEF8D4"/>
</svg>
