<svg width="101" height="101" viewBox="0 0 101 101" fill="none" xmlns="http://www.w3.org/2000/svg">
<rect width="101" height="101" rx="15" fill="#5A7071"/>
<path d="M31.872 57.432L31.584 58.584L31.344 58.92L31.68 59.208L31.44 59.928L31.536 61.704C30.816 63.816 27.12 67.128 25.536 68.664L23.616 69L22.896 68.664L20.496 69.144L20.112 68.808C18.768 69.048 17.424 69.432 15.936 69.384L15.216 68.712L15.36 69.096L14.976 68.04L15.168 66.648L14.832 66.312C14.832 65.448 15.072 64.344 14.88 63.528L14.544 63.192C14.88 60.792 14.976 57.72 14.928 55.32L14.448 54.6L14.64 52.2L14.208 51.816L14.688 46.92C14.16 45.816 14.304 42.744 14.304 42.744L13.872 41.208L12.624 37.896L13.632 37.128C13.632 37.128 19.536 36.936 20.784 36.84L21.216 37.224L22.56 36.84L25.728 37.224L26.064 36.84L27.504 37.224L27.792 36.84L30.288 37.608L31.056 40.632L31.344 41.016L30.816 42.024L31.296 43.128L31.104 46.728L31.536 47.112L31.152 51.24L31.536 51.624L31.248 53.784C31.632 54.456 31.824 55.512 31.776 56.28L31.488 56.616L31.872 57.432ZM25.92 57.912C25.824 57.144 25.344 55.704 25.296 54.936C25.248 53.784 25.584 52.248 25.68 51.048L25.344 50.76L25.488 45.528L25.152 45.192L25.44 44.856L24.96 43.128L25.248 42.792L24.912 42.36L25.2 42.024L25.104 41.352L24.768 41.016L22.368 41.352L20.88 41.016L20.016 42.36L20.4 42.792L20.064 50.76L20.4 51.048C20.544 51.432 20.304 52.824 20.256 53.208L20.64 53.592C20.784 55.56 20.592 58.2 20.352 60.168L20.688 60.504C20.976 62.232 20.304 63.48 21.168 65.016H21.888C22.704 64.392 23.568 65.4 24.24 64.632L25.584 62.664C26.112 61.416 26.064 59.16 25.92 57.912ZM49.2229 65.64L48.5509 66.696L47.2069 67.512L46.7269 68.232L44.5189 69.048L43.7029 68.616L43.0309 69H37.6069L36.5989 68.328L36.4549 65.448L36.1189 63.528C36.3589 62.424 36.6949 59.928 36.3589 58.776L35.9749 58.44L36.4549 55.608C36.2149 53.736 36.3589 53.112 36.3589 53.112L36.2629 52.008L36.3109 49.656L35.8309 49.272C36.1189 46.68 36.3109 44.472 35.6869 41.976L34.1989 38.328L34.8229 37.368C36.5989 37.128 39.4309 37.368 40.8229 36.936L41.6389 37.272L44.5189 36.936L44.9509 37.272C45.5269 36.984 47.2069 36.936 47.8309 37.032L48.4069 37.656L47.3509 39.816C47.0149 40.056 46.1029 40.776 45.8629 41.16C44.8549 40.872 43.1749 41.064 42.1189 41.16L41.3989 42.936L41.7829 43.272L41.8789 43.992L41.5429 44.328L41.9269 44.712L41.6869 48.024C41.7829 48.264 42.2149 49.176 42.1669 49.416L42.9829 50.136L46.2949 49.8L47.1589 50.136L46.6309 52.632L45.7669 53.496L44.0389 53.688L43.7029 54.072L43.3189 53.688L42.0229 55.08V58.248L42.2629 60.408L41.9269 61.416L42.4549 63L42.0709 63.384L42.2149 65.064L44.0389 65.4L46.4389 65.064L46.8229 65.4C47.1109 65.304 48.8869 65.112 48.8869 65.112L49.2229 65.64ZM65.4829 65.832L64.2829 67.032L63.6109 67.752L61.4029 69.096L59.0989 68.568L57.5149 69.288L52.4269 68.952L51.5629 66.168L51.9469 64.632L51.5149 63.624L51.4189 57.288L51.5149 52.68L51.4669 51.096C51.5149 48.36 51.3709 43.464 51.3709 43.464L51.9949 42.744L51.3229 41.448L51.7549 38.184L52.5709 37.608L55.4029 37.464L63.0829 37.224L64.2349 37.416L64.8589 38.184L62.9869 44.04L62.4109 43.944C62.4109 43.944 60.8269 42.072 59.9629 40.968C59.5789 40.68 57.8029 41.016 57.8029 41.016C57.8029 41.016 56.5549 43.752 56.8909 45.576L57.1309 46.584C56.6509 48.6 56.7949 49.176 56.9389 51.24C57.0349 52.584 56.9869 54.504 56.9389 56.904C56.9389 57.144 56.5549 57.864 56.5549 58.056C56.5549 58.296 57.0349 58.536 56.9869 58.776C56.9869 61.656 57.4189 64.152 57.4189 64.152L58.0909 65.064L62.6509 65.448L64.8109 65.256L65.4829 65.832ZM85.8229 69.816L85.5829 70.392L83.2789 69.24L82.2229 68.04L80.8789 67.56L79.9189 65.736L77.3749 62.088L75.2629 58.248L74.9269 57.912L74.3029 58.632L74.2549 59.64L73.7269 62.28L74.0629 62.664L73.7269 69.624L73.3429 69.912L71.9509 68.664L70.5109 68.328L69.2149 67.176L68.7829 65.544L68.8309 59.88L68.4949 59.496L68.7829 55.656L68.3989 55.272L68.9269 48.216L68.5429 47.928L68.6869 41.688L68.1109 40.968L67.6789 38.616L67.3429 37.848L67.5829 37.176L71.5669 36.84L73.5829 37.176L73.7749 37.512L73.9669 41.496L73.6789 41.736L74.1589 44.04L73.6789 45.432L74.1109 47.208L74.0149 49.32L74.3509 49.704L76.0789 47.544L76.0309 46.536L78.7669 40.536L78.8149 37.656L79.2469 37.224L84.2869 37.032L84.6229 37.368L83.8069 40.872L81.7909 44.76L80.9749 48.216L79.5829 51.096L78.8149 53.544L79.7269 56.04L80.8789 58.056L83.4229 63.672L84.1429 64.44L84.6709 66.456L85.8229 69.816Z" fill="#FEF8D4"/>
</svg>
