<svg width="41" height="40" viewBox="0 0 41 40" fill="none" xmlns="http://www.w3.org/2000/svg">
<path d="M31.7812 39.8746L21.4888 35.0996C20.8069 34.7834 20.5108 33.9736 20.8276 33.292L28.1101 17.6524C28.4269 16.9718 29.2383 16.6763 29.9193 16.9916L40.2118 21.7674C40.8937 22.0836 41.1897 22.8935 40.873 23.5733L33.5904 39.2129C33.2728 39.8935 32.4614 40.1891 31.7803 39.8737L31.7812 39.8746ZM6.94435 38.1686L0.111499 22.3274C-0.186295 21.6373 0.133078 20.8369 0.823614 20.5405L4.20724 19.087L8.43418 34.9437C8.83901 36.4592 10.3988 37.363 11.9179 36.959L15.2869 36.0638L8.73456 38.8803C8.04317 39.1767 7.24128 38.8579 6.94435 38.1686ZM9.86963 34.562L5.42603 17.8946C5.23268 17.1691 5.666 16.423 6.39192 16.2308L9.32929 15.4511L8.97539 18.0755C8.7665 19.6298 9.85755 21.0609 11.4164 21.2711L18.3071 22.1982L15.5018 31.63C15.2127 32.6019 15.4699 33.6074 16.0948 34.3165L11.5356 35.527C10.8088 35.72 10.0621 35.2883 9.86877 34.562H9.86963ZM19.229 34.1519L17.8462 33.7418C17.1246 33.5272 16.7137 32.7708 16.9278 32.0505L21.8452 15.5166C22.0593 14.7963 22.8189 14.3862 23.5388 14.599L27.7744 15.8552L27.7847 15.8586L27.7735 15.856C27.348 16.136 26.9932 16.5341 26.7636 17.0278L19.4802 32.6682C19.2566 33.1499 19.1789 33.6608 19.229 34.1519ZM18.7361 20.7602L11.6158 19.8021C10.8709 19.7013 10.347 19.0163 10.4471 18.2719L12.7552 1.17884C12.8553 0.435284 13.5424 -0.0877017 14.2865 0.0122428L25.5362 1.5252C26.2811 1.626 26.8042 2.31097 26.704 3.05452L25.2841 13.5702L23.9609 13.1782C22.4529 12.7302 20.8681 13.59 20.4219 15.0935L18.737 20.7585L18.7361 20.7602Z" fill="#5A7071"/>
</svg>
