<svg width="135" height="70" viewBox="0 0 135 70" fill="none" xmlns="http://www.w3.org/2000/svg">
<path d="M0 0H135L117 70H0V0Z" fill="#5A7071"/>
<path d="M45.176 47.64L44.504 48.696L43.16 49.512L42.68 50.232L40.472 51.048L39.656 50.616L38.984 51H33.56L32.552 50.328L32.408 47.448L32.072 45.528C32.312 44.424 32.648 41.928 32.312 40.776L31.928 40.44L32.408 37.608C32.168 35.736 32.312 35.112 32.312 35.112L32.216 34.008L32.264 31.656L31.784 31.272C32.072 28.68 32.264 26.472 31.64 23.976L30.152 20.328L30.776 19.368C32.552 19.128 35.384 19.368 36.776 18.936L37.592 19.272L40.472 18.936L40.904 19.272C41.48 18.984 43.16 18.936 43.784 19.032L44.36 19.656L43.304 21.816C42.968 22.056 42.056 22.776 41.816 23.16C40.808 22.872 39.128 23.064 38.072 23.16L37.352 24.936L37.736 25.272L37.832 25.992L37.496 26.328L37.88 26.712L37.64 30.024C37.736 30.264 38.168 31.176 38.12 31.416L38.936 32.136L42.248 31.8L43.112 32.136L42.584 34.632L41.72 35.496L39.992 35.688L39.656 36.072L39.272 35.688L37.976 37.08V40.248L38.216 42.408L37.88 43.416L38.408 45L38.024 45.384L38.168 47.064L39.992 47.4L42.392 47.064L42.776 47.4C43.064 47.304 44.84 47.112 44.84 47.112L45.176 47.64ZM65.708 52.44L65.036 52.68C63.788 51.768 62.78 51 61.484 50.328L61.148 50.424L59.996 49.176C59.372 47.208 56.54 42.792 55.82 40.776L55.004 40.152H54.62C53.42 43.704 51.452 48.6 50.876 51.96L49.916 51.864L47.852 50.376L47.372 49.464C47.516 47.304 47.708 46.152 48.86 44.136L48.716 43.176L50.012 41.112L50.204 39.48L51.164 38.184L51.644 35.784L52.268 35.16L51.164 31.464L50.348 30.792C49.436 27.816 49.868 26.04 47.852 23.496L48.188 23.112L45.644 19.752L45.884 19.272L50.396 18.6C50.972 18.888 51.932 19.032 52.604 18.936C53.516 21.72 54.524 25.128 55.676 27.864L56.54 28.776L57.5 27.864L57.356 26.424L58.028 25.8L57.932 24.84L58.604 24.12L58.508 23.112L59.036 21.816L58.556 19.464L59.564 18.792L61.388 18.936L63.884 18.6L64.364 18.936L64.22 20.904C63.548 22.2 61.772 26.376 61.868 27.864C60.62 28.824 59.516 32.376 59.228 33.816L61.052 39.816L61.868 40.488C61.964 41.976 62.732 44.376 63.836 45.528L63.452 45.816C64.316 46.728 65.18 49.848 65.228 51.144L65.66 51.72L65.708 52.44ZM74.6848 46.104C74.5888 48.984 74.3968 50.472 74.4448 51.336C74.4928 52.728 73.6768 52.776 72.3328 51.912C72.1888 51.816 71.9008 51.144 71.7568 51.048C71.4208 50.856 71.3248 51.24 70.9888 51.096C69.9328 50.52 69.2608 50.28 68.7808 48.984L69.2128 46.92L68.8288 43.272L68.9728 33.144L68.5888 32.856L69.2128 31.752L68.5408 27.144L68.8768 26.856L68.8288 26.472L68.4448 26.088L69.1168 25.08L69.0688 24.312L68.6848 23.976L69.0208 23.736C68.5888 22.392 67.8208 21.096 67.1968 19.896L67.7728 19.224L71.9968 19.08C72.5728 19.416 73.4848 19.56 74.1568 19.464L74.3008 24.408L74.0128 24.792L74.4928 26.568L74.1568 26.952V27.24L74.5408 27.624L74.2048 31.848L74.5888 32.952L74.3488 33.96L73.9648 34.344L74.3968 34.728L74.1568 36.408L74.6848 38.52L74.0608 40.296L74.5408 41.736L74.3008 45.72L74.6848 46.104ZM93.6639 19.32L93.3279 20.952L92.5599 21.624L92.4159 23.064L90.5919 23.208L90.1599 22.824L88.4319 23.304C88.3839 25.368 88.1919 27.576 88.3359 29.592C88.3359 29.928 88.8639 31.08 88.8639 31.368C88.9119 33.624 88.3359 36.36 88.2399 38.664L88.5759 39L88.5279 41.448L88.8639 41.784C87.9999 45.144 88.8159 46.056 88.6239 49.368C88.5759 50.04 88.8159 51.24 88.4799 51.912L87.6159 52.296L83.6799 50.04L83.4399 48.936L83.4879 46.344L83.1519 45C83.1519 45 83.4399 44.28 83.5359 43.176L83.0079 42.216C83.1039 40.968 83.4399 37.32 83.1999 36.264L83.5359 35.976L82.6719 30.984L83.1519 28.92L82.7679 28.248C82.7679 26.856 82.7679 23.736 82.7679 23.736L80.7999 23.64H79.1679L77.8719 21.912L78.2079 21.528L77.3919 20.184L77.6799 19.56L80.4159 19.8C80.7999 19.512 81.4239 19.272 81.8559 19.128L82.9599 19.464L85.1199 19.08L85.5039 19.416L86.8959 19.08C88.3359 19.416 90.8799 19.368 92.3199 18.888L93.6639 19.32Z" fill="#FEF8D4"/>
</svg>
