<svg width="113" height="49" viewBox="0 0 113 49" fill="none" xmlns="http://www.w3.org/2000/svg">
<path d="M11.5 0H100.5L113 49H0L11.5 0Z" fill="#333333"/>
<path d="M41.48 34.2L40.92 35.08L39.8 35.76L39.4 36.36L37.56 37.04L36.88 36.68L36.32 37H31.8L30.96 36.44L30.84 34.04L30.56 32.44C30.76 31.52 31.04 29.44 30.76 28.48L30.44 28.2L30.84 25.84C30.64 24.28 30.76 23.76 30.76 23.76L30.68 22.84L30.72 20.88L30.32 20.56C30.56 18.4 30.72 16.56 30.2 14.48L28.96 11.44L29.48 10.64C30.96 10.44 33.32 10.64 34.48 10.28L35.16 10.56L37.56 10.28L37.92 10.56C38.4 10.32 39.8 10.28 40.32 10.36L40.8 10.88L39.92 12.68C39.64 12.88 38.88 13.48 38.68 13.8C37.84 13.56 36.44 13.72 35.56 13.8L34.96 15.28L35.28 15.56L35.36 16.16L35.08 16.44L35.4 16.76L35.2 19.52C35.28 19.72 35.64 20.48 35.6 20.68L36.28 21.28L39.04 21L39.76 21.28L39.32 23.36L38.6 24.08L37.16 24.24L36.88 24.56L36.56 24.24L35.48 25.4V28.04L35.68 29.84L35.4 30.68L35.84 32L35.52 32.32L35.64 33.72L37.16 34L39.16 33.72L39.48 34C39.72 33.92 41.2 33.76 41.2 33.76L41.48 34.2ZM58.59 38.2L58.03 38.4C56.99 37.64 56.15 37 55.07 36.44L54.79 36.52L53.83 35.48C53.31 33.84 50.95 30.16 50.35 28.48L49.67 27.96H49.35C48.35 30.92 46.71 35 46.23 37.8L45.43 37.72L43.71 36.48L43.31 35.72C43.43 33.92 43.59 32.96 44.55 31.28L44.43 30.48L45.51 28.76L45.67 27.4L46.47 26.32L46.87 24.32L47.39 23.8L46.47 20.72L45.79 20.16C45.03 17.68 45.39 16.2 43.71 14.08L43.99 13.76L41.87 10.96L42.07 10.56L45.83 10C46.31 10.24 47.11 10.36 47.67 10.28C48.43 12.6 49.27 15.44 50.23 17.72L50.95 18.48L51.75 17.72L51.63 16.52L52.19 16L52.11 15.2L52.67 14.6L52.59 13.76L53.03 12.68L52.63 10.72L53.47 10.16L54.99 10.28L57.07 10L57.47 10.28L57.35 11.92C56.79 13 55.31 16.48 55.39 17.72C54.35 18.52 53.43 21.48 53.19 22.68L54.71 27.68L55.39 28.24C55.47 29.48 56.11 31.48 57.03 32.44L56.71 32.68C57.43 33.44 58.15 36.04 58.19 37.12L58.55 37.6L58.59 38.2ZM66.0706 32.92C65.9906 35.32 65.8306 36.56 65.8706 37.28C65.9106 38.44 65.2306 38.48 64.1106 37.76C63.9906 37.68 63.7506 37.12 63.6306 37.04C63.3506 36.88 63.2706 37.2 62.9906 37.08C62.1106 36.6 61.5506 36.4 61.1506 35.32L61.5106 33.6L61.1906 30.56L61.3106 22.12L60.9906 21.88L61.5106 20.96L60.9506 17.12L61.2306 16.88L61.1906 16.56L60.8706 16.24L61.4306 15.4L61.3906 14.76L61.0706 14.48L61.3506 14.28C60.9906 13.16 60.3506 12.08 59.8306 11.08L60.3106 10.52L63.8306 10.4C64.3106 10.68 65.0706 10.8 65.6306 10.72L65.7506 14.84L65.5106 15.16L65.9106 16.64L65.6306 16.96V17.2L65.9506 17.52L65.6706 21.04L65.9906 21.96L65.7906 22.8L65.4706 23.12L65.8306 23.44L65.6306 24.84L66.0706 26.6L65.5506 28.08L65.9506 29.28L65.7506 32.6L66.0706 32.92ZM81.8866 10.6L81.6066 11.96L80.9666 12.52L80.8466 13.72L79.3266 13.84L78.9666 13.52L77.5266 13.92C77.4866 15.64 77.3266 17.48 77.4466 19.16C77.4466 19.44 77.8866 20.4 77.8866 20.64C77.9266 22.52 77.4466 24.8 77.3666 26.72L77.6466 27L77.6066 29.04L77.8866 29.32C77.1666 32.12 77.8466 32.88 77.6866 35.64C77.6466 36.2 77.8466 37.2 77.5666 37.76L76.8466 38.08L73.5666 36.2L73.3666 35.28L73.4066 33.12L73.1266 32C73.1266 32 73.3666 31.4 73.4466 30.48L73.0066 29.68C73.0866 28.64 73.3666 25.6 73.1666 24.72L73.4466 24.48L72.7266 20.32L73.1266 18.6L72.8066 18.04C72.8066 16.88 72.8066 14.28 72.8066 14.28L71.1666 14.2H69.8066L68.7266 12.76L69.0066 12.44L68.3266 11.32L68.5666 10.8L70.8466 11C71.1666 10.76 71.6866 10.56 72.0466 10.44L72.9666 10.72L74.7666 10.4L75.0866 10.68L76.2466 10.4C77.4466 10.68 79.5666 10.64 80.7666 10.24L81.8866 10.6Z" fill="#FEF8D4"/>
</svg>
