<svg width="140" height="70" viewBox="0 0 140 70" fill="none" xmlns="http://www.w3.org/2000/svg">
<path d="M0 0H135L117 70H0V0Z" fill="#FFAC05"/>
<path d="M47.096 32.856C47.144 34.152 47 41.352 47 41.352L46.376 44.28L46.856 46.584V49.56L46.04 50.568L43.304 50.952L42.152 50.376C41 50.712 38.36 51.384 36.824 50.952L36.392 50.472L36.152 50.808L32.648 50.76L31.832 49.848L31.688 48.648L31.304 48.264L31.4 46.872C31.016 44.856 31.016 42.648 30.872 39.96L31.592 38.52L31.064 36.84L31.4 35.736L30.92 34.728C31.352 32.184 31.4 29.688 31.352 27.144L31.016 26.808C31.16 25.992 31.304 24.84 31.16 24.024L31.496 23.64L31.112 23.304L32.072 19.848L33.224 19.224L37.304 19.368L37.976 18.696L38.36 18.744L38.792 19.176L39.848 18.504C41.672 18.84 43.784 18.936 45.608 18.696L46.232 19.512L45.128 22.44L44.504 25.224L43.64 25.848C42.824 24.264 42.248 24.12 41.432 22.488L38.6 23.112L38.168 22.728C37.736 23.112 37.256 22.968 36.728 23.256L37.304 25.752L36.92 26.136L37.448 27.816C37.112 28.776 36.632 30.696 36.872 31.704L37.304 32.088L36.824 39.816L37.208 40.152L36.968 41.928L37.4 42.984C37.304 43.416 36.92 43.176 37.016 43.56L37.496 46.056L37.112 46.296L37.736 47.016C38.84 46.968 40.28 46.872 41.528 46.68V43.656L41.864 43.08L41.816 39.864L42.2 39.576L41.72 37.8L41.96 36.408L40.856 36.12L40.664 35.064L39.56 34.008L39.656 32.424C40.712 32.472 44.792 32.232 46.472 32.28C46.76 32.328 47 32.808 47.096 32.856ZM67.6966 39.576L67.3606 44.808L67.0726 45.192L67.4086 45.48L67.0726 49.32L66.3526 50.088L63.6646 50.904L59.9686 50.856L59.2966 51.048L57.1846 50.376L56.0806 51C55.2166 50.856 53.6806 50.712 52.8646 50.616L51.3286 49.08L51.0406 46.632L50.6086 45.864L50.8006 44.424L50.4166 42.744C50.5606 40.824 50.5126 39.144 50.8486 37.224L50.3686 36.552L50.5606 34.104L50.1286 33.72L50.6086 28.776C49.9846 25.56 50.5126 22.536 50.7046 21.144L52.0966 19.752L54.1606 19.272C54.1606 19.272 56.0326 19.176 57.5686 18.84L58.0006 19.272L59.3446 18.84L62.5126 19.272L62.8966 18.84L64.3366 19.272L64.6246 18.84L66.6406 20.184L67.1206 22.44L67.4566 22.776L66.8806 23.832L67.3606 24.936L67.1686 28.584L67.6006 28.968L67.2166 33.144L67.6006 33.528L67.3126 35.736C67.6966 36.408 67.6486 38.184 67.6486 38.952L67.3126 39.288L67.6966 39.576ZM61.9366 39.336C61.8406 38.568 61.3606 37.656 61.3126 36.888C61.2646 35.688 61.6006 34.2 61.6966 32.952L61.3126 32.664L61.5046 27.384L61.1686 27.048L61.4566 26.664L60.9766 24.936L61.2646 24.6L60.9286 24.168L61.2166 23.832L61.1206 23.16L60.7846 22.776L58.3366 23.16L56.8486 22.776L55.9846 24.168L56.3686 24.6L55.9846 32.664L56.3686 32.952C56.4646 33.336 56.2726 34.728 56.2246 35.16L56.6086 35.496C56.7526 37.512 56.5606 39.672 56.3206 41.64L56.6566 41.976C56.9446 43.752 56.2726 45.336 57.1366 46.872H57.8566C58.6726 46.2 60.0646 47.016 60.0646 47.016L61.6006 46.488C61.7446 44.232 62.0806 40.632 61.9366 39.336ZM88.5159 51.912L88.2279 52.248L85.9719 50.856L84.8199 49.56L83.6679 49.032L82.7079 46.776V45.624L81.4119 42.552L80.5959 41.88H79.8759L79.4919 42.216L78.7719 41.88L76.0839 42.216L75.6519 41.88L74.7879 47.544L74.2119 52.392L73.3479 52.632L72.4359 51.096L71.7159 49.8L70.8999 48.504C70.8999 48.504 70.1799 45.96 71.1399 43.224L70.7559 42.84L71.3319 41.4L71.5719 39.384L72.0039 37.176V34.824L73.0119 33.048L73.3479 28.824L73.7799 27.048L73.5399 25.704L74.5959 23.496C74.2119 22.344 74.0679 20.184 74.1639 19.032C77.1879 18.696 79.6839 18.84 82.7079 18.984L83.0439 19.416L85.0599 31.896L85.4439 32.232L85.2039 33.384L86.0199 38.28L86.3559 38.616L86.0679 38.952L87.3159 43.848L87.1239 44.952L87.9399 45.96C88.0359 46.632 88.5159 51.768 88.5159 51.912ZM80.8359 37.128C80.4999 35.4 80.1159 33.624 79.8759 31.896C79.6839 30.648 79.7799 29.304 79.5879 28.056C79.5399 27.912 78.9639 26.616 78.8679 26.424L77.1399 31.368L76.9959 32.376V33.24C76.5639 34.488 76.4199 35.976 76.2759 37.272L78.4359 37.656L80.8359 37.128ZM105.002 47.304L103.082 49.176L102.698 50.136L101.834 50.568L97.322 51.624L95.93 50.856L94.298 51.432L93.002 51.384V50.568L92.138 50.376L91.61 47.736C91.706 45.528 92.33 43.08 91.946 40.92L91.514 40.536L91.994 37.704L91.466 35.976L91.85 32.808L91.418 32.424C91.658 29.88 91.898 26.616 91.226 24.072L89.978 20.04L90.266 19.512C91.994 19.32 95.018 19.512 96.41 19.032L97.514 19.992L97.61 21C96.938 22.056 97.61 24.312 97.37 25.56L97.082 26.472L97.466 26.856L97.226 31.752C98.234 33.816 97.514 37.992 97.61 40.872L97.994 41.256L97.274 41.928L97.802 43.032C97.658 43.368 97.658 46.152 97.706 46.536L99.578 47.016L102.41 46.824L102.842 47.16C103.082 47.016 103.898 46.632 104.234 46.632L105.002 47.304Z" fill="#333333"/>
</svg>
