<svg width="135" height="70" viewBox="0 0 135 70" fill="none" xmlns="http://www.w3.org/2000/svg">
<path d="M135 0H0L18 70H135V0Z" fill="#333333"/>
<path d="M51.176 47.64L50.504 48.696L49.16 49.512L48.68 50.232L46.472 51.048L45.656 50.616L44.984 51H39.56L38.552 50.328L38.408 47.448L38.072 45.528C38.312 44.424 38.648 41.928 38.312 40.776L37.928 40.44L38.408 37.608C38.168 35.736 38.312 35.112 38.312 35.112L38.216 34.008L38.264 31.656L37.784 31.272C38.072 28.68 38.264 26.472 37.64 23.976L36.152 20.328L36.776 19.368C38.552 19.128 41.384 19.368 42.776 18.936L43.592 19.272L46.472 18.936L46.904 19.272C47.48 18.984 49.16 18.936 49.784 19.032L50.36 19.656L49.304 21.816C48.968 22.056 48.056 22.776 47.816 23.16C46.808 22.872 45.128 23.064 44.072 23.16L43.352 24.936L43.736 25.272L43.832 25.992L43.496 26.328L43.88 26.712L43.64 30.024C43.736 30.264 44.168 31.176 44.12 31.416L44.936 32.136L48.248 31.8L49.112 32.136L48.584 34.632L47.72 35.496L45.992 35.688L45.656 36.072L45.272 35.688L43.976 37.08V40.248L44.216 42.408L43.88 43.416L44.408 45L44.024 45.384L44.168 47.064L45.992 47.4L48.392 47.064L48.776 47.4C49.064 47.304 50.84 47.112 50.84 47.112L51.176 47.64ZM71.708 52.44L71.036 52.68C69.788 51.768 68.78 51 67.484 50.328L67.148 50.424L65.996 49.176C65.372 47.208 62.54 42.792 61.82 40.776L61.004 40.152H60.62C59.42 43.704 57.452 48.6 56.876 51.96L55.916 51.864L53.852 50.376L53.372 49.464C53.516 47.304 53.708 46.152 54.86 44.136L54.716 43.176L56.012 41.112L56.204 39.48L57.164 38.184L57.644 35.784L58.268 35.16L57.164 31.464L56.348 30.792C55.436 27.816 55.868 26.04 53.852 23.496L54.188 23.112L51.644 19.752L51.884 19.272L56.396 18.6C56.972 18.888 57.932 19.032 58.604 18.936C59.516 21.72 60.524 25.128 61.676 27.864L62.54 28.776L63.5 27.864L63.356 26.424L64.028 25.8L63.932 24.84L64.604 24.12L64.508 23.112L65.036 21.816L64.556 19.464L65.564 18.792L67.388 18.936L69.884 18.6L70.364 18.936L70.22 20.904C69.548 22.2 67.772 26.376 67.868 27.864C66.62 28.824 65.516 32.376 65.228 33.816L67.052 39.816L67.868 40.488C67.964 41.976 68.732 44.376 69.836 45.528L69.452 45.816C70.316 46.728 71.18 49.848 71.228 51.144L71.66 51.72L71.708 52.44ZM80.6848 46.104C80.5888 48.984 80.3968 50.472 80.4448 51.336C80.4928 52.728 79.6768 52.776 78.3328 51.912C78.1888 51.816 77.9008 51.144 77.7568 51.048C77.4208 50.856 77.3248 51.24 76.9888 51.096C75.9328 50.52 75.2608 50.28 74.7808 48.984L75.2128 46.92L74.8288 43.272L74.9728 33.144L74.5888 32.856L75.2128 31.752L74.5408 27.144L74.8768 26.856L74.8288 26.472L74.4448 26.088L75.1168 25.08L75.0688 24.312L74.6848 23.976L75.0208 23.736C74.5888 22.392 73.8208 21.096 73.1968 19.896L73.7728 19.224L77.9968 19.08C78.5728 19.416 79.4848 19.56 80.1568 19.464L80.3008 24.408L80.0128 24.792L80.4928 26.568L80.1568 26.952V27.24L80.5408 27.624L80.2048 31.848L80.5888 32.952L80.3488 33.96L79.9648 34.344L80.3968 34.728L80.1568 36.408L80.6848 38.52L80.0608 40.296L80.5408 41.736L80.3008 45.72L80.6848 46.104ZM99.6639 19.32L99.3279 20.952L98.5599 21.624L98.4159 23.064L96.5919 23.208L96.1599 22.824L94.4319 23.304C94.3839 25.368 94.1919 27.576 94.3359 29.592C94.3359 29.928 94.8639 31.08 94.8639 31.368C94.9119 33.624 94.3359 36.36 94.2399 38.664L94.5759 39L94.5279 41.448L94.8639 41.784C93.9999 45.144 94.8159 46.056 94.6239 49.368C94.5759 50.04 94.8159 51.24 94.4799 51.912L93.6159 52.296L89.6799 50.04L89.4399 48.936L89.4879 46.344L89.1519 45C89.1519 45 89.4399 44.28 89.5359 43.176L89.0079 42.216C89.1039 40.968 89.4399 37.32 89.1999 36.264L89.5359 35.976L88.6719 30.984L89.1519 28.92L88.7679 28.248C88.7679 26.856 88.7679 23.736 88.7679 23.736L86.7999 23.64H85.1679L83.8719 21.912L84.2079 21.528L83.3919 20.184L83.6799 19.56L86.4159 19.8C86.7999 19.512 87.4239 19.272 87.8559 19.128L88.9599 19.464L91.1199 19.08L91.5039 19.416L92.8959 19.08C94.3359 19.416 96.8799 19.368 98.3199 18.888L99.6639 19.32Z" fill="#FEF8D4"/>
</svg>
