<svg width="135" height="70" viewBox="0 0 135 70" fill="none" xmlns="http://www.w3.org/2000/svg">
<path d="M135 0H0L18 70H135V0Z" fill="#333333"/>
<path d="M46.2 42.072L45.912 42.84L45.864 44.904C45.048 47.064 42.264 49.368 40.584 50.952L38.616 51.24L37.896 50.856L35.064 51.288L34.68 50.952C33.336 51.144 31.896 51.432 30.408 51.336L29.688 50.664L29.832 51.048L29.448 49.944L29.688 48.456L29.352 48.072C29.4 47.208 29.64 46.056 29.496 45.192L29.16 44.808L29.544 40.392L29.16 39.96L29.688 37.08L29.256 35.208L29.544 34.824C29.256 32.28 29.256 25.08 29.256 25.08L29.64 23.688L27.864 20.088L28.152 19.128C31.368 19.032 33.672 18.84 35.976 18.936C38.328 18.984 39.96 19.704 42.408 19.128L42.792 19.56L43.08 19.176L44.952 19.656L45.768 21.096C45.528 23.256 45.432 23.784 45.48 25.992C45.48 26.808 45.432 27.288 45.576 28.104C45.672 28.632 45.336 29.64 45.336 29.64L44.376 30.936L43.08 32.424L45.672 33.528C45.672 34.68 45.72 35.88 45.816 37.08L45.48 37.416L45.864 37.752L46.152 41.4L45.864 41.736L46.2 42.072ZM39.96 28.44C40.152 27.192 40.248 24.84 39.96 22.968L38.664 22.92L38.328 22.584L37.992 22.92L35.64 23.016L34.68 24.408L34.968 24.792L35.016 25.896L34.776 26.232L35.112 27.72L34.536 29.544L34.968 29.928V32.856L35.448 33.24L39.72 29.88L39.672 28.776L39.96 28.44ZM40.68 39.96L40.296 39.672L40.344 35.736L39.72 35.304L35.16 38.424C34.968 39.432 35.016 41.832 35.016 41.832L35.352 42.216C35.592 44.04 34.44 45.192 35.256 46.872H35.976C36.84 46.248 38.52 47.352 39.288 46.536L40.2 44.904C40.248 43.368 40.44 40.344 40.44 40.344L40.68 39.96ZM68.0708 20.472L67.6388 20.808L67.7828 23.256L67.4948 23.64L67.3028 29.256L67.8788 30.696C67.1588 32.28 67.2548 35.16 67.3988 36.84L66.9668 37.56C67.2548 39.48 67.4468 41.448 67.5908 43.368L66.9668 44.712L67.1588 46.152L66.8228 49.992L66.2948 50.472L65.5748 50.616L63.0788 51.144L62.6948 51.192L58.8068 51.24L58.1348 51.048L54.0068 50.856L53.3348 50.472L50.5508 45.816L50.3108 45.144L50.2628 41.688L50.0228 40.968L50.3588 40.68L50.0708 40.296L49.8308 39.192L50.2148 38.856L49.9268 38.52C50.1188 35.112 50.5508 32.76 50.1668 29.16L50.5508 28.824C50.3108 27.144 50.3588 25.32 50.5028 23.64L48.8228 20.088L49.1588 19.224L55.3508 18.744L56.1188 19.656L56.2628 20.472L56.4068 22.632L55.9748 22.968L56.4548 25.416L56.0708 25.752C56.2148 27.528 56.7908 33.144 55.9268 34.824L56.2628 35.16L55.7348 36.888C56.4548 39.528 55.7828 44.328 56.5028 46.056L58.6148 47.064L60.8708 46.632L61.6388 46.296C61.6388 46.296 61.2548 45.768 61.5428 43.992L61.8788 43.656C61.9748 40.632 61.9748 33.912 62.3108 31.032L61.6868 29.976C62.5508 28.104 61.9748 25.752 61.7348 23.784L62.1188 23.496L60.8228 19.896L61.2548 18.84L65.0948 19.08L66.9188 18.744L67.8308 19.08L68.0708 20.472ZM78.591 46.104C78.495 48.984 78.303 50.472 78.351 51.336C78.399 52.728 77.583 52.776 76.239 51.912C76.095 51.816 75.807 51.144 75.663 51.048C75.327 50.856 75.231 51.24 74.895 51.096C73.839 50.52 73.167 50.28 72.687 48.984L73.119 46.92L72.735 43.272L72.879 33.144L72.495 32.856L73.119 31.752L72.447 27.144L72.783 26.856L72.735 26.472L72.351 26.088L73.023 25.08L72.975 24.312L72.591 23.976L72.927 23.736C72.495 22.392 71.727 21.096 71.103 19.896L71.679 19.224L75.903 19.08C76.479 19.416 77.391 19.56 78.063 19.464L78.207 24.408L77.919 24.792L78.399 26.568L78.063 26.952V27.24L78.447 27.624L78.111 31.848L78.495 32.952L78.255 33.96L77.871 34.344L78.303 34.728L78.063 36.408L78.591 38.52L77.967 40.296L78.447 41.736L78.207 45.72L78.591 46.104ZM97.3301 47.304L95.4101 49.176L95.0261 50.136L94.1621 50.568L89.6501 51.624L88.2581 50.856L86.6261 51.432L85.3301 51.384V50.568L84.4661 50.376L83.9381 47.736C84.0341 45.528 84.6581 43.08 84.2741 40.92L83.8421 40.536L84.3221 37.704L83.7941 35.976L84.1781 32.808L83.7461 32.424C83.9861 29.88 84.2261 26.616 83.5541 24.072L82.3061 20.04L82.5941 19.512C84.3221 19.32 87.3461 19.512 88.7381 19.032L89.8421 19.992L89.9381 21C89.2661 22.056 89.9381 24.312 89.6981 25.56L89.4101 26.472L89.7941 26.856L89.5541 31.752C90.5621 33.816 89.8421 37.992 89.9381 40.872L90.3221 41.256L89.6021 41.928L90.1301 43.032C89.9861 43.368 89.9861 46.152 90.0341 46.536L91.9061 47.016L94.7381 46.824L95.1701 47.16C95.4101 47.016 96.2261 46.632 96.5621 46.632L97.3301 47.304ZM117.747 39.432L117.459 40.584L117.219 40.92L117.555 41.208L117.315 41.928L117.411 43.704C116.691 45.816 112.995 49.128 111.411 50.664L109.491 51L108.771 50.664L106.371 51.144L105.987 50.808C104.643 51.048 103.299 51.432 101.811 51.384L101.091 50.712L101.235 51.096L100.851 50.04L101.043 48.648L100.707 48.312C100.707 47.448 100.947 46.344 100.755 45.528L100.419 45.192C100.755 42.792 100.851 39.72 100.803 37.32L100.323 36.6L100.515 34.2L100.083 33.816L100.563 28.92C100.035 27.816 100.179 24.744 100.179 24.744L99.747 23.208L98.499 19.896L99.507 19.128C99.507 19.128 105.411 18.936 106.659 18.84L107.091 19.224L108.435 18.84L111.603 19.224L111.939 18.84L113.379 19.224L113.667 18.84L116.163 19.608L116.931 22.632L117.219 23.016L116.691 24.024L117.171 25.128L116.979 28.728L117.411 29.112L117.027 33.24L117.411 33.624L117.123 35.784C117.507 36.456 117.699 37.512 117.651 38.28L117.363 38.616L117.747 39.432ZM111.795 39.912C111.699 39.144 111.219 37.704 111.171 36.936C111.123 35.784 111.459 34.248 111.555 33.048L111.219 32.76L111.363 27.528L111.027 27.192L111.315 26.856L110.835 25.128L111.123 24.792L110.787 24.36L111.075 24.024L110.979 23.352L110.643 23.016L108.243 23.352L106.755 23.016L105.891 24.36L106.275 24.792L105.939 32.76L106.275 33.048C106.419 33.432 106.179 34.824 106.131 35.208L106.515 35.592C106.659 37.56 106.467 40.2 106.227 42.168L106.563 42.504C106.851 44.232 106.179 45.48 107.043 47.016H107.763C108.579 46.392 109.443 47.4 110.115 46.632L111.459 44.664C111.987 43.416 111.939 41.16 111.795 39.912Z" fill="#FEF8D4"/>
</svg>
