<?xml version="1.0" encoding="UTF-8"?>
<svg id="Layer_1" data-name="Layer 1" xmlns="http://www.w3.org/2000/svg" viewBox="0 0 180 180">
  <defs>
    <style>
      .cls-1 {
        fill: #fef8d4;
      }

      .cls-2 {
        fill: #1c6d89;
      }
    </style>
  </defs>
  <rect class="cls-2" width="180" height="180"/>
  <g>
    <polygon class="cls-1" points="58.65 66.53 56.35 44.16 71.86 55.35 87.07 40.58 103.81 55.66 118.7 43.54 118.7 66.53 58.65 66.53"/>
    <path class="cls-1" d="M146.43,98.89c.21-.24,.35-.51,.47-.78l11.26-.36c.16,0,.29,.08,.31,.2l.44,3.49c.02,.12,.16,.21,.33,.2l2.29-.19c.17-.01,.29-.13,.27-.25l-.42-3.3c-.02-.13,.12-.25,.29-.25l4.54-.15c.17,0,.3-.11,.29-.24l-.06-1.72c0-.13-.14-.22-.31-.22l-4.79,.16c-.16,0-.29-.08-.31-.2l-.44-3.49c-.02-.12-.16-.21-.33-.2l-2.29,.19c-.17,.01-.29,.13-.27,.25l.42,3.3c.02,.13-.12,.25-.29,.25l-11.03,.36c-.1-.21-.2-.42-.37-.61,0,0-20.69-23.13-20.67-22.28l1.45,45.71c.03,.82,19.21-19.87,19.21-19.87Z"/>
    <path class="cls-1" d="M29.19,73.45c0,1.8,1.47,3.26,3.3,3.27,1.46,0,2.69-.91,3.14-2.19l8.13,2.98-11.89,18.02c-.61-.7-1.5-1.16-2.51-1.17-1.83,0-3.33,1.44-3.34,3.24s1.47,3.26,3.3,3.27c.93,0,1.77-.37,2.38-.97l12.18,16.16-8.5,4.47c-.44-1.27-1.66-2.2-3.11-2.21-1.83,0-3.33,1.44-3.34,3.24s1.47,3.26,3.3,3.27,3.33-1.44,3.34-3.24c0-.01,0-.02,0-.04l15.11-1.44,.25-46.57-15.1-.08c0-1.8-1.47-3.26-3.3-3.27s-3.33,1.44-3.34,3.24Z"/>
    <path class="cls-1" d="M58.52,74.35v43.5c0,.89,.44,1.72,1.17,2.22l26.38,18.1c2.48,1.7,5.77,1.65,8.2-.13l26.13-19.14c.75-.55,1.16-1.44,1.1-2.36l-3-43.39c0-.08-.07-.13-.14-.13l-59.7,1.18c-.08,0-.14,.06-.14,.14Z"/>
  </g>
</svg>