<?xml version="1.0" encoding="UTF-8"?>
<svg id="Layer_1" data-name="Layer 1" xmlns="http://www.w3.org/2000/svg" viewBox="0 0 75.13 75.13">
  <defs>
    <style>
      .cls-1 {
        fill: #fef8d4;
      }
    </style>
  </defs>
  <path class="cls-1" d="M46.38,49.5l-4.67,.27h-3.17l.9-1.23,17.89-.78c.05-.25,.07-.51,.06-.78l-.87-18.18-9.82-.9-12.4,.59-9.34,.39h-6.34l1.5-1.6,36.54-1.14-1.16-18.76c0-.07-.04-.12-.09-.12l-37.59,1.08s-.09,.06-.09,.13v7.57l16.1,.71-.54,.78h-5.46l2.19,8.71-1.96-2.03-.72-6.68h-9.62v18.64h19.59l-1.58-.88-.26-6.82h.46l1.69,7.7h19.13l-3.43,1.74-35.6-.47v10.74c0,.81,.28,1.57,.74,2.03l16.61,16.52c1.56,1.56,3.64,1.51,5.17-.12l16.2-16.98c.06-.06,.11-.14,.16-.22l-4.02-.32-6.2,.41Zm-3.56-24.36l-.65-5.59,1.34-1.2-.68,6.78Zm-5.05-9.02h16.04l-1.37,1.27-14.67-.49v-.78Zm-3.92-6.99l.92-.68v8.32l-.92-.78v-6.85Zm10.24,30.03l-.44,8.08-1-6.43,1.44-1.65Zm-14.85-1.24l1.14,8.8-1.63-1.88-.42-6.92h.9Zm7,11.82l-14.67-.49v-.78h16.04l-1.37,1.27Z"/>
</svg>