<?xml version="1.0" encoding="UTF-8"?>
<svg id="Layer_1" data-name="Layer 1" xmlns="http://www.w3.org/2000/svg" viewBox="0 0 75.13 75.13">
  <defs>
    <style>
      .cls-1 {
        fill: #fef8d4;
      }
    </style>
  </defs>
  <path class="cls-1" d="M17.62,7.84v15.06h3.96V7.84h-3.96Zm35.94,0v15.06h3.96V7.84h-3.96ZM5.86,9.29v2.77c2.76,.85,5.79,1.75,5.79,1.75l-5.79,.07v3.87H15.24V9.29H5.86Zm18.1,0v8.46h27.22v-3.1l-3.55-1.28,3.55-.6v-3.47H23.96Zm35.94,0v8.46h9.38V9.29h-9.38ZM13.39,25.28v5.61l5.03,1.24-5.03,1.08v9.05l5.85-.42-5.85,3.83v9.25c4.25,1.32,8.24,4.33,12.17,7.03,.46,.32,.92,.62,1.39,.92l3.3-3.3-1.26,4.61c2.99,1.81,5.88,3.1,8.57,3.1,3.73,0,7.81-2.46,12.01-5.34,3.92-2.7,7.91-5.71,12.17-7.03v-1.84l-8.83-2.26,8.83-1.66V25.28h-17.48l-6.7,4.47-6.7-4.47H13.39Z"/>
</svg>