<?xml version="1.0" encoding="UTF-8"?>
<svg id="Layer_1" data-name="Layer 1" xmlns="http://www.w3.org/2000/svg" viewBox="0 0 75.13 75.13">
  <defs>
    <style>
      .cls-1 {
        fill: #fef8d4;
      }
    </style>
  </defs>
  <path class="cls-1" d="M25.37,7.65l-7.58,2.53,16.44,16.44,.11-.11,.31-.31L25.37,7.65Zm31.76,2.32l-16.44,16.44,.1,.1,.31,.31,18.56-9.28-2.53-7.58Zm-19.57,.12l-6.94,3.47,5.87,11.75c.35-.08,.71-.12,1.07-.12,.43,0,.85,.06,1.26,.18l9.76-9.76-11.02-5.51Zm-11.32,11.46v6.94h6.93s0,0,0,0l-6.93-6.93h0Zm22.64,3.69l-6.51,3.26h6.51v-3.26h0Zm-11.32,1.99c-.64,0-1.28,.25-1.77,.74-.99,.99-.99,2.56,0,3.55,.99,.99,2.56,.99,3.55,0,.99-.99,.99-2.56,0-3.55-.49-.49-1.13-.74-1.77-.74h0Zm-7.29,3.45l-.37,1.75,3.23-1.62s-.02-.09-.03-.13h-2.83Zm11.76,0c-.02,.11-.05,.22-.08,.33l3.77,3.77-.86-4.1h-2.83Zm-8,1.99l-18.56,9.27,2.53,7.58,16.44-16.44-.1-.11-.31-.31h0Zm6.87,.2l-.11,.1-.31,.31,9.27,18.56,7.58-2.53-16.44-16.44h0Zm-4.6,1.26l-8.56,8.56-5.22,24.78h9.89v-8.1h10.29v8.1h9.89l-2.83-13.47-.21,.07-.84,.29-.4-.8-9.68-19.38c-.77,.18-1.57,.17-2.33-.05h0Z"/>
</svg>