<svg width="101" height="101" viewBox="0 0 101 101" fill="none" xmlns="http://www.w3.org/2000/svg">
<rect width="101" height="101" rx="15" fill="#5A7071"/>
<path d="M21.216 64.104C21.12 66.984 20.928 68.472 20.976 69.336C21.024 70.728 20.208 70.776 18.864 69.912C18.72 69.816 18.432 69.144 18.288 69.048C17.952 68.856 17.856 69.24 17.52 69.096C16.464 68.52 15.792 68.28 15.312 66.984L15.744 64.92L15.36 61.272L15.504 51.144L15.12 50.856L15.744 49.752L15.072 45.144L15.408 44.856L15.36 44.472L14.976 44.088L15.648 43.08L15.6 42.312L15.216 41.976L15.552 41.736C15.12 40.392 14.352 39.096 13.728 37.896L14.304 37.224L18.528 37.08C19.104 37.416 20.016 37.56 20.688 37.464L20.832 42.408L20.544 42.792L21.024 44.568L20.688 44.952V45.24L21.072 45.624L20.736 49.848L21.12 50.952L20.88 51.96L20.496 52.344L20.928 52.728L20.688 54.408L21.216 56.52L20.592 58.296L21.072 59.736L20.832 63.72L21.216 64.104ZM39.1391 65.832L37.9391 67.032L37.2671 67.752L35.0591 69.096L32.7551 68.568L31.1711 69.288L26.0831 68.952L25.2191 66.168L25.6031 64.632L25.1711 63.624L25.0751 57.288L25.1711 52.68L25.1231 51.096C25.1711 48.36 25.0271 43.464 25.0271 43.464L25.6511 42.744L24.9791 41.448L25.4111 38.184L26.2271 37.608L29.0591 37.464L36.7391 37.224L37.8911 37.416L38.5151 38.184L36.6431 44.04L36.0671 43.944C36.0671 43.944 34.4831 42.072 33.6191 40.968C33.2351 40.68 31.4591 41.016 31.4591 41.016C31.4591 41.016 30.2111 43.752 30.5471 45.576L30.7871 46.584C30.3071 48.6 30.4511 49.176 30.5951 51.24C30.6911 52.584 30.6431 54.504 30.5951 56.904C30.5951 57.144 30.2111 57.864 30.2111 58.056C30.2111 58.296 30.6911 58.536 30.6431 58.776C30.6431 61.656 31.0751 64.152 31.0751 64.152L31.7471 65.064L36.3071 65.448L38.4671 65.256L39.1391 65.832ZM58.7591 57.576L58.4231 62.808L58.1351 63.192L58.4711 63.48L58.1351 67.32L57.4151 68.088L54.7271 68.904L51.0311 68.856L50.3591 69.048L48.2471 68.376L47.1431 69C46.2791 68.856 44.7431 68.712 43.9271 68.616L42.3911 67.08L42.1031 64.632L41.6711 63.864L41.8631 62.424L41.4791 60.744C41.6231 58.824 41.5751 57.144 41.9111 55.224L41.4311 54.552L41.6231 52.104L41.1911 51.72L41.6711 46.776C41.0471 43.56 41.5751 40.536 41.7671 39.144L43.1591 37.752L45.2231 37.272C45.2231 37.272 47.0951 37.176 48.6311 36.84L49.0631 37.272L50.4071 36.84L53.5751 37.272L53.9591 36.84L55.3991 37.272L55.6871 36.84L57.7031 38.184L58.1831 40.44L58.5191 40.776L57.9431 41.832L58.4231 42.936L58.2311 46.584L58.6631 46.968L58.2791 51.144L58.6631 51.528L58.3751 53.736C58.7591 54.408 58.7111 56.184 58.7111 56.952L58.3751 57.288L58.7591 57.576ZM52.9991 57.336C52.9031 56.568 52.4231 55.656 52.3751 54.888C52.3271 53.688 52.6631 52.2 52.7591 50.952L52.3751 50.664L52.5671 45.384L52.2311 45.048L52.5191 44.664L52.0391 42.936L52.3271 42.6L51.9911 42.168L52.2791 41.832L52.1831 41.16L51.8471 40.776L49.3991 41.16L47.9111 40.776L47.0471 42.168L47.4311 42.6L47.0471 50.664L47.4311 50.952C47.5271 51.336 47.3351 52.728 47.2871 53.16L47.6711 53.496C47.8151 55.512 47.6231 57.672 47.3831 59.64L47.7191 59.976C48.0071 61.752 47.3351 63.336 48.1991 64.872H48.9191C49.7351 64.2 51.1271 65.016 51.1271 65.016L52.6631 64.488C52.8071 62.232 53.1431 58.632 52.9991 57.336ZM79.5304 70.056L79.0984 70.296L77.3704 69.336L76.0744 67.56L74.6344 67.08L72.8584 63.24L71.6584 61.56L70.2184 59.784L67.8184 55.272L67.1944 55.464V58.44L67.5784 58.776C67.5784 58.776 66.9064 64.296 67.1944 65.304L67.6264 65.688C67.4824 67.224 67.3384 69.672 67.3384 69.672L66.9064 70.152L64.8424 69.048L63.4024 68.52L62.6344 67.464L62.5384 64.728L62.9224 63.816L62.3944 61.992L62.7304 61.656L62.2984 60.552L62.9704 57.432L62.5864 57.048C62.6344 55.464 62.9704 51.576 62.6824 50.232L62.2984 49.848L62.8744 48.456L62.4424 47.352C62.6824 46.152 62.6824 45.768 62.4424 44.616L62.7784 44.184L62.3464 43.848L62.6824 42.072L61.3864 39.384L60.9064 37.368L64.7464 36.888L66.2344 37.272L66.5224 36.888L67.6264 37.272C69.0184 39.576 68.5384 42.888 70.2664 44.952L70.0264 46.056C70.7464 47.736 71.0824 48.456 71.7544 50.184L71.9464 51.672L72.7144 52.344L72.4744 53.496L73.7704 55.752L74.1544 56.088L74.4424 54.552L73.9624 53.112L74.5864 52.056L74.1544 50.952L74.3464 49.656L74.6824 49.272L74.2024 48.168L74.3944 46.728L73.9624 45.672L74.2024 44.184L74.5384 43.848L73.9624 41.736L74.4904 40.536L73.2424 38.424L73.1464 37.656L73.7704 36.888L75.1624 37.272L77.6584 36.888L79.0024 37.416L78.8104 47.016L79.1944 47.4L79.0984 57.048L79.5304 57.432L78.9064 58.488L79.3384 59.592L79.0984 64.152L79.5304 70.056Z" fill="#FEF8D4"/>
</svg>
