<?xml version="1.0" encoding="UTF-8"?>
<svg id="Layer_1" data-name="Layer 1" xmlns="http://www.w3.org/2000/svg" viewBox="0 0 75.13 75.13">
  <defs>
    <style>
      .cls-1 {
        fill: #fef8d4;
      }
    </style>
  </defs>
  <path class="cls-1" d="M18.15,8.21c-.14,0-.28,0-.41,0-.32,.01-.63,.04-.94,.08-2.5,.34-4.85,1.69-6.48,4.17-3.05,4.63,.27,12.14,7.01,12.14,.07,0,.13,0,.2,0v.09h7.5c-1.33,3.96-3.75,8.25-6.49,12.56-.27,.42-.53,.85-.78,1.29l4.32,4.42-6.97,1.17c-4.05,10.64-3.39,22.54,5.98,22.54h0s1.15,0,1.15,0c2.95-.07,5.79-.53,7.59-1.6,.52-.3,.94-.65,1.3-1.04h-4.02c-2.52,.74-5.05-.86-5.87-3.21-1.11-3.19,.93-6.48,3.95-7.48,.72-.24,1.45-.35,2.17-.35v-.05h22.08c-.07-5.5,2.02-11.16,6.09-15.6,2.97-3.24,5.2-7.51,6.35-11.74l-5.1-3.09,4.74-.86-5.37-3.2h0s0,0,0,0l6.45-1.1c-.65-4.85-3.57-8.43-9.58-8.43-5.43,1.06-20.17,1.43-29.18,.59-1.84-.84-3.78-1.33-5.68-1.32Zm.06,2.32c1.63,0,3.39,.47,5.11,1.32h0c.58,.58,1.06,1.2,1.45,1.85H15.61l1.31,1.83c1.31,1.84,2.45,3.96,2.61,5.2,.08,.62-.01,.89-.22,1.09-.21,.21-.77,.48-1.98,.48-5.03,0-7.04-5.57-5.08-8.55,1.3-1.97,2.95-2.89,4.86-3.15,.36-.05,.73-.07,1.1-.07Zm1.81,5.48h5.73c.53,1.95,.45,4.09-.07,6.38h-4.05c.24-.62,.28-1.31,.2-1.95-.19-1.47-.92-2.98-1.81-4.43h0Zm12.57,39.26c.8,.85,1.39,1.9,1.66,3.08,.47,2.07,.38,3.86-.22,5.35-.56,1.38-1.56,2.45-2.76,3.22h29.37c1.79,0,3.08-.7,3.99-1.77,.91-1.07,1.39-2.54,1.33-4.01-.02-.55-.12-1.1-.3-1.63l-8.66-1.02,5.2-2.54c-1.03-.43-2.31-.69-3.88-.69h-25.72Zm-5.28,.06c-.14,0-.29,0-.43,.02-.33,.03-.65,.1-.97,.2-1.87,.62-3.14,2.67-2.49,4.53,.45,1.31,1.9,2.19,3.18,1.73l.19-.07h5.37c.12-.79,.09-1.72-.17-2.87-.46-2.03-2.54-3.53-4.68-3.53h0Z"/>
</svg>