<?xml version="1.0" encoding="UTF-8"?>
<svg id="Layer_1" data-name="Layer 1" xmlns="http://www.w3.org/2000/svg" viewBox="0 0 75.13 75.13">
  <defs>
    <style>
      .cls-1 {
        fill: #fef8d4;
      }
    </style>
  </defs>
  <path class="cls-1" d="M46.81,24.94c0-1.73,1.06-3.19,2.56-3.83-.49-.19-1.01-.31-1.57-.31h0c-1.76,0-3.24,1.08-3.84,2.62l-4.84,.02c-.81-5.19-.44-10.38,.54-15.58l-4.32,.02h0c.98,5.19,1.24,10.38,.57,15.58l-4.81,.02c-.65-1.46-2.09-2.47-3.78-2.47-.56,0-1.08,.12-1.57,.32,1.5,.63,2.58,2.15,2.58,3.88,0,1.73-1.06,3.19-2.56,3.83,.49,.19,1.01,.31,1.57,.31h0c1.74,0,3.21-1.06,3.82-2.56h2.76c.17,2.17,.27,4.34,.31,6.5h2.6s-.02-6.34-.02-6.34h1.71s.02,6.33,.02,6.33l.02,6.42,.08,21.78h-1.71s-.08-21.81-.08-21.81l-.02-6.39h-2.6s-.02,6.36-.02,6.36h0c-.16,6.43-.73,12.79-1.38,19.21l4.85,8.45,4.93-8.56c-.85-6.73-1.42-12.88-1.6-19.01l-.04-6.48c.04-2.14,.12-4.3,.27-6.51h2.84c.66,1.42,2.09,2.41,3.76,2.4,.56,0,1.08-.12,1.57-.32-1.5-.63-2.58-2.15-2.58-3.88Z"/>
</svg>