<svg width="152" height="70" viewBox="0 0 152 70" fill="none" xmlns="http://www.w3.org/2000/svg">
<path d="M152 0H0L20.2667 70H152V0Z" fill="#333333"/>
<path d="M49.84 19.464C49.216 20.424 48.496 22.152 47.584 22.92L46.096 22.824L45.088 23.16L44.656 22.824L44.416 23.16L43.984 22.824H43.168L42.592 23.592C42.496 24.552 42.304 25.8 42.496 26.76L42.928 27.048C42.352 29.208 42.592 29.496 43.168 31.608L43.6 31.944L45.424 31.608L46.768 31.944L47.104 31.608H48.544L48.16 33.336C47.584 33.72 46.96 34.536 46.72 35.208C45.808 35.352 44.32 35.208 43.456 35.112L42.736 35.832L42.4 39.72L42.736 40.056L42.208 44.28L42.784 46.008L42.688 51.768L41.824 52.056L40.768 50.76L39.568 49.608L37.936 49.032L37.312 47.688L37.456 43.128L37.792 42.792L37.408 42.408L37.648 41.352L37.264 41.016C37.552 39.912 37.648 36.696 37.408 35.544L36.976 35.4C37.216 33.672 37.408 31.8 37.216 30.168C37.024 28.104 36.736 23.88 36.736 23.88L35.344 19.656L36.256 19.32C36.256 19.32 41.392 18.792 45.04 19.272C45.472 19.368 45.952 18.84 46.432 18.936L46.816 19.272L47.152 18.936L48.976 18.744L49.84 19.464ZM59.9035 46.104C59.8075 48.984 59.6155 50.472 59.6635 51.336C59.7115 52.728 58.8955 52.776 57.5515 51.912C57.4075 51.816 57.1195 51.144 56.9755 51.048C56.6395 50.856 56.5435 51.24 56.2075 51.096C55.1515 50.52 54.4795 50.28 53.9995 48.984L54.4315 46.92L54.0475 43.272L54.1915 33.144L53.8075 32.856L54.4315 31.752L53.7595 27.144L54.0955 26.856L54.0475 26.472L53.6635 26.088L54.3355 25.08L54.2875 24.312L53.9035 23.976L54.2395 23.736C53.8075 22.392 53.0395 21.096 52.4155 19.896L52.9915 19.224L57.2155 19.08C57.7915 19.416 58.7035 19.56 59.3755 19.464L59.5195 24.408L59.2315 24.792L59.7115 26.568L59.3755 26.952V27.24L59.7595 27.624L59.4235 31.848L59.8075 32.952L59.5675 33.96L59.1835 34.344L59.6155 34.728L59.3755 36.408L59.9035 38.52L59.2795 40.296L59.7595 41.736L59.5195 45.72L59.9035 46.104ZM81.1866 52.056L80.7546 52.296L79.0266 51.336L77.7306 49.56L76.2906 49.08L74.5146 45.24L73.3146 43.56L71.8746 41.784L69.4746 37.272L68.8506 37.464V40.44L69.2346 40.776C69.2346 40.776 68.5626 46.296 68.8506 47.304L69.2826 47.688C69.1386 49.224 68.9946 51.672 68.9946 51.672L68.5626 52.152L66.4986 51.048L65.0586 50.52L64.2906 49.464L64.1946 46.728L64.5786 45.816L64.0506 43.992L64.3866 43.656L63.9546 42.552L64.6266 39.432L64.2426 39.048C64.2906 37.464 64.6266 33.576 64.3386 32.232L63.9546 31.848L64.5306 30.456L64.0986 29.352C64.3386 28.152 64.3386 27.768 64.0986 26.616L64.4346 26.184L64.0026 25.848L64.3386 24.072L63.0426 21.384L62.5626 19.368L66.4026 18.888L67.8906 19.272L68.1786 18.888L69.2826 19.272C70.6746 21.576 70.1946 24.888 71.9226 26.952L71.6826 28.056C72.4026 29.736 72.7386 30.456 73.4106 32.184L73.6026 33.672L74.3706 34.344L74.1306 35.496L75.4266 37.752L75.8106 38.088L76.0986 36.552L75.6186 35.112L76.2426 34.056L75.8106 32.952L76.0026 31.656L76.3386 31.272L75.8586 30.168L76.0506 28.728L75.6186 27.672L75.8586 26.184L76.1946 25.848L75.6186 23.736L76.1466 22.536L74.8986 20.424L74.8026 19.656L75.4266 18.888L76.8186 19.272L79.3146 18.888L80.6586 19.416L80.4666 29.016L80.8506 29.4L80.7546 39.048L81.1866 39.432L80.5626 40.488L80.9946 41.592L80.7546 46.152L81.1866 52.056ZM91.966 46.104C91.87 48.984 91.678 50.472 91.726 51.336C91.774 52.728 90.958 52.776 89.614 51.912C89.47 51.816 89.182 51.144 89.038 51.048C88.702 50.856 88.606 51.24 88.27 51.096C87.214 50.52 86.542 50.28 86.062 48.984L86.494 46.92L86.11 43.272L86.254 33.144L85.87 32.856L86.494 31.752L85.822 27.144L86.158 26.856L86.11 26.472L85.726 26.088L86.398 25.08L86.35 24.312L85.966 23.976L86.302 23.736C85.87 22.392 85.102 21.096 84.478 19.896L85.054 19.224L89.278 19.08C89.854 19.416 90.766 19.56 91.438 19.464L91.582 24.408L91.294 24.792L91.774 26.568L91.438 26.952V27.24L91.822 27.624L91.486 31.848L91.87 32.952L91.63 33.96L91.246 34.344L91.678 34.728L91.438 36.408L91.966 38.52L91.342 40.296L91.822 41.736L91.582 45.72L91.966 46.104ZM109.217 43.224C108.689 43.944 108.977 46.824 108.929 47.688L107.969 49.896L106.817 50.904L104.369 51.144L102.689 50.76L101.537 51.336L97.5051 50.424L96.4971 49.608L95.3451 48.168L95.8251 47.496L99.0411 47.544L101.105 47.256L102.929 47.112L103.361 43.032L102.689 42.36C102.497 41.544 102.113 40.776 101.633 39.96C100.961 38.808 100.097 37.656 99.5211 36.552C99.5211 36.552 99.5211 36.024 99.3771 35.784C97.9371 33.24 96.5931 31.656 95.6811 29.064C95.5371 28.68 95.8251 28.2 95.6811 27.768L95.3451 26.616L95.9211 20.424L96.9291 19.368L103.457 18.888L103.889 19.272L108.401 18.84L108.785 19.8C108.305 21.288 108.065 23.976 106.817 25.8L106.385 25.704L104.225 22.776L103.841 23.112L102.401 22.776L101.009 23.208L101.057 26.184C101.441 27.24 102.257 29.016 102.257 29.016L104.033 32.616L104.129 33.336C105.473 34.104 107.873 39 109.025 40.728L109.217 43.224ZM132.199 33.48L131.527 34.488C131.575 35.736 131.431 37.128 131.575 38.376C131.671 39.336 131.383 41.736 131.335 42.84L131.047 43.176L131.431 43.56L131.527 52.104L130.903 52.344L128.551 50.328L127.543 50.088L126.679 48.888L126.631 47.784L126.199 47.4L126.583 42.6L126.055 41.208L126.391 40.872L126.295 39.816L125.911 39.432L126.199 38.76L126.055 37.368L123.367 36.648C122.743 36.984 121.063 37.08 120.391 36.984L119.911 36.648L118.951 37.368L118.663 38.376L119.287 40.488L118.711 46.488L119.095 47.448C118.999 48.888 118.951 52.008 118.951 52.008L118.375 52.392L116.455 50.568L114.727 49.56L114.247 48.456C113.719 47.736 114.055 47.304 113.767 46.728L114.007 41.544L113.575 41.208V37.848L113.383 35.352L113.287 33.48C113.575 30.744 113.479 27.72 113.143 24.984L113.479 24.696L112.999 22.968L111.415 20.328L111.511 19.128C113.719 18.792 116.167 18.552 118.327 19.032L118.711 19.416L118.999 31.416C119.335 31.848 119.719 32.424 120.199 32.808C121.399 32.52 122.839 32.28 124.135 32.424L124.567 32.808L125.623 32.04L126.103 30.024C125.287 28.008 125.287 26.04 125.719 23.976L125.479 21.912L124.807 19.8L125.431 19.032L130.183 18.744L131.095 19.368C132.007 22.728 131.767 26.136 131.479 29.592L131.863 29.976L131.959 31.08L131.287 31.704L131.815 33.096L132.199 33.48Z" fill="#FEF8D4"/>
</svg>
