<svg width="114" height="49" viewBox="0 0 114 49" fill="none" xmlns="http://www.w3.org/2000/svg">
<path d="M12 0H101L113.5 49H0.5L12 0Z" fill="#333333"/>
<path d="M41.12 22.24L38.4 24.24H37.76C37.28 25.16 34.92 26.64 34.08 27.16H33.2L32.48 28.88L32.8 29.48L32.76 30.64L32.48 30.88L32.88 37.4L32.6 37.84L31.44 37.28L30.68 36.36L30.08 36.48L28.36 35.44C28.36 35.44 28.44 33.64 28.2 32.92L27.84 32.6L28.4 31.68L28 30.8L28.24 27.72L27.92 27.4L28.28 25.08L27.88 23.6L28.12 23.28C27.48 22.16 28 19.48 28 18.04L28.32 16.68C28.32 16.68 28.12 15.08 27.8 14.52L26.84 11.52C26.88 11.36 26.96 11.16 27.32 10.76C28.72 10.68 31.52 10.36 32.88 10.36C34.8 10.36 36.12 10.88 38.16 10.36L38.48 10.72L38.72 10.36L40.24 10.72L40.96 11.84C40.8 13.56 40.52 15.44 40.52 17.16C40.52 17.76 40.92 18.56 41 19.24C41.12 20.2 41 21.24 41.12 22.24ZM36 20.08L35.84 13.96H35.2L34.92 13.64L34.68 13.96L33.16 13.64L32.4 14.8L32.64 15.12L32.72 16L32.56 16.28L32.88 17.44L32.44 18.92L32.8 19.24L32.92 23.92L35.84 21.24L35.76 20.36L36 20.08ZM56.6513 37.76L56.4113 38.04L54.5313 36.88L53.5713 35.8L52.6113 35.36L51.8113 33.48V32.52L50.7313 29.96L50.0513 29.4H49.4513L49.1313 29.68L48.5313 29.4L46.2913 29.68L45.9313 29.4L45.2113 34.12L44.7313 38.16L44.0113 38.36L43.2513 37.08L42.6513 36L41.9713 34.92C41.9713 34.92 41.3713 32.8 42.1713 30.52L41.8512 30.2L42.3313 29L42.5313 27.32L42.8913 25.48V23.52L43.7313 22.04L44.0113 18.52L44.3713 17.04L44.1713 15.92L45.0513 14.08C44.7313 13.12 44.6113 11.32 44.6913 10.36C47.2113 10.08 49.2913 10.2 51.8113 10.32L52.0913 10.68L53.7713 21.08L54.0913 21.36L53.8913 22.32L54.5713 26.4L54.8513 26.68L54.6113 26.96L55.6513 31.04L55.4913 31.96L56.1713 32.8C56.2513 33.36 56.6513 37.64 56.6513 37.76ZM50.2513 25.44C49.9713 24 49.6513 22.52 49.4513 21.08C49.2913 20.04 49.3713 18.92 49.2113 17.88C49.1713 17.76 48.6913 16.68 48.6113 16.52L47.1713 20.64L47.0513 21.48V22.2C46.6913 23.24 46.5713 24.48 46.4513 25.56L48.2513 25.88L50.2513 25.44ZM68.9934 30.52C68.5534 31.12 68.7934 33.52 68.7534 34.24L67.9534 36.08L66.9934 36.92L64.9534 37.12L63.5534 36.8L62.5934 37.28L59.2334 36.52L58.3934 35.84L57.4334 34.64L57.8334 34.08L60.5134 34.12L62.2334 33.88L63.7534 33.76L64.1134 30.36L63.5534 29.8C63.3934 29.12 63.0734 28.48 62.6734 27.8C62.1134 26.84 61.3934 25.88 60.9134 24.96C60.9134 24.96 60.9134 24.52 60.7934 24.32C59.5934 22.2 58.4734 20.88 57.7134 18.72C57.5934 18.4 57.8334 18 57.7134 17.64L57.4334 16.68L57.9134 11.52L58.7534 10.64L64.1934 10.24L64.5534 10.56L68.3134 10.2L68.6334 11C68.2334 12.24 68.0334 14.48 66.9934 16L66.6334 15.92L64.8334 13.48L64.5134 13.76L63.3134 13.48L62.1534 13.84L62.1934 16.32C62.5134 17.2 63.1934 18.68 63.1934 18.68L64.6734 21.68L64.7534 22.28C65.8734 22.92 67.8734 27 68.8334 28.44L68.9934 30.52ZM82.6653 30.52C82.2253 31.12 82.4653 33.52 82.4253 34.24L81.6253 36.08L80.6653 36.92L78.6253 37.12L77.2253 36.8L76.2653 37.28L72.9053 36.52L72.0653 35.84L71.1053 34.64L71.5053 34.08L74.1853 34.12L75.9053 33.88L77.4253 33.76L77.7853 30.36L77.2253 29.8C77.0653 29.12 76.7453 28.48 76.3453 27.8C75.7853 26.84 75.0653 25.88 74.5853 24.96C74.5853 24.96 74.5853 24.52 74.4653 24.32C73.2653 22.2 72.1453 20.88 71.3853 18.72C71.2653 18.4 71.5053 18 71.3853 17.64L71.1053 16.68L71.5853 11.52L72.4253 10.64L77.8653 10.24L78.2253 10.56L81.9853 10.2L82.3053 11C81.9053 12.24 81.7053 14.48 80.6653 16L80.3053 15.92L78.5053 13.48L78.1853 13.76L76.9853 13.48L75.8253 13.84L75.8653 16.32C76.1853 17.2 76.8653 18.68 76.8653 18.68L78.3453 21.68L78.4253 22.28C79.5453 22.92 81.5453 27 82.5053 28.44L82.6653 30.52Z" fill="#FEF8D4"/>
</svg>
