<svg width="52" height="53" viewBox="0 0 52 53" fill="none" xmlns="http://www.w3.org/2000/svg">
<path d="M39.157 0H12.843C5.75003 0 0 5.86061 0 13.09V39.91C0 47.1394 5.75003 53 12.843 53H39.157C46.25 53 52 47.1394 52 39.91V13.09C52 5.86061 46.25 0 39.157 0Z" fill="#1C6D89"/>
<path d="M31.564 15.26L31.492 17.06L27.928 24.116C27.748 24.548 27.568 24.548 27.424 25.592C26.92 26.492 26.2 28.832 25.624 29.696L26.56 30.524L28.108 30.884L28.432 31.172L27.604 32.396L27.388 32.576L25.264 32.756L24.976 33.08L22.924 32.972L21.88 32.108L21.556 30.524L22.924 26.78L22.852 25.952L23.572 24.404L23.5 23.756L24.436 23.18L26.2 17.564L24.328 16.88L24.04 17.276L22.78 17.024L21.412 19.832H20.98C20.836 19.508 19.684 16.016 19.72 15.728L19.972 14.756L19.684 14.504L20.404 13.928C20.98 14.108 24.112 13.676 24.328 13.964L24.94 13.82L25.192 13.496C26.308 14.036 28.864 14.144 30.16 13.892L31.564 15.26ZM26.884 38.768L26.812 40.748L26.2 41.36L25.3 41.036L23.788 41.36C23.536 41.252 22.816 40.964 22.528 41.036L22.24 41.18L21.844 39.884L22.132 36.932L22.42 36.356L22.744 36.644C23.032 36.572 24.22 36.32 24.472 36.356L24.832 36.644L25.156 36.356H26.02L26.884 38.768Z" fill="#FEF8D4"/>
</svg>
