<svg width="83" height="70" viewBox="0 0 83 70" fill="none" xmlns="http://www.w3.org/2000/svg">
<path d="M0 0H83L60.5 70H0V0Z" fill="#5A7071"/>
<path d="M50.7246 31.889H47.233C46.9613 30.9224 46.5653 30.0048 46.0628 29.1534L48.533 26.758C49.03 26.276 49.03 25.4935 48.533 25.0102L45.7993 22.3593C45.3022 21.8773 44.4952 21.8773 43.9968 22.3593L41.5266 24.7546C40.6486 24.2673 39.7037 23.8847 38.7055 23.6199V20.2354C38.7055 19.5535 38.1347 19 37.4315 19H33.5658C32.8625 19 32.2918 19.5535 32.2918 20.2354V23.6212C31.2949 23.8847 30.3487 24.2687 29.4706 24.7559L27.0005 22.3606C26.5034 21.8786 25.6964 21.8786 25.198 22.3606L22.4643 25.0115C21.9672 25.4935 21.9672 26.276 22.4643 26.7593L24.9345 29.1547C24.432 30.0061 24.0373 30.9224 23.7642 31.8903H20.274C19.5708 31.8903 19 32.4438 19 33.1257V36.8743C19 37.5562 19.5708 38.1097 20.274 38.1097H23.7656C24.0373 39.0763 24.4333 39.9939 24.9358 40.8453L22.4656 43.2407C21.9686 43.7226 21.9686 44.5052 22.4656 44.9885L25.1994 47.6394C25.6964 48.1214 26.5034 48.1214 27.0018 47.6394L29.472 45.2441C30.35 45.7313 31.2949 46.114 32.2931 46.3788V49.7646C32.2931 50.4465 32.8639 51 33.5671 51H37.4329C38.1361 51 38.7069 50.4465 38.7069 49.7646V46.3788C39.7037 46.1153 40.65 45.7313 41.528 45.2441L43.9982 47.6394C44.4952 48.1214 45.3022 48.1214 45.8006 47.6394L48.5344 44.9885C49.0314 44.5065 49.0314 43.724 48.5344 43.2407L46.0642 40.8453C46.5667 39.9939 46.9613 39.0776 47.2344 38.1097H50.726C51.4292 38.1097 52 37.5562 52 36.8743V33.1257C52 32.4438 51.4292 31.8903 50.726 31.8903L50.7246 31.889ZM35.4993 41.5127C31.7893 41.5127 28.7824 38.597 28.7824 34.9993C28.7824 31.4017 31.7893 28.486 35.4993 28.486C39.2094 28.486 42.2162 31.4017 42.2162 34.9993C42.2162 38.597 39.2094 41.5127 35.4993 41.5127Z" fill="#FEF8D4"/>
</svg>
