<svg width="83" height="70" viewBox="0 0 83 70" fill="none" xmlns="http://www.w3.org/2000/svg">
<path d="M83 0H0L22.5 70H83V0Z" fill="#5A7071"/>
<path fill-rule="evenodd" clip-rule="evenodd" d="M47.7599 20.2493C49.0106 18.7734 51.2301 18.5824 52.7274 19.7979C52.8155 19.8673 52.9036 19.9541 52.9916 20.041L53.1854 20.2493L60.1083 28.4449H65.3753C66.8198 28.4449 68 29.5909 68 31.032C68 31.1362 68 31.223 68 31.3272L67.8415 32.6642L67.6653 33.9491L67.5244 34.9041L67.3658 35.9459L67.1721 37.0224L66.9607 38.151L66.7141 39.297C66.5908 39.87 66.4498 40.4604 66.3089 41.0334C65.9214 42.5614 65.4281 44.0546 64.8468 45.5132L64.4593 46.4508L64.0894 47.3016L63.7371 48.0482L63.5785 48.3781L63.1381 49.2289C62.5744 50.2881 61.5175 50.9132 60.3901 51H60.1083H40.9427C39.692 51 38.5294 50.3402 37.9305 49.2463L37.5253 48.4649L37.2082 47.8225L37.0497 47.4752L36.6974 46.6939C35.8871 44.8533 35.2353 42.9434 34.7421 40.9987C34.654 40.6167 34.5483 40.2347 34.4602 39.87L34.2136 38.7414L33.9846 37.6475L33.7908 36.5883L33.6147 35.5639L33.4561 34.6089L33.3328 33.7234L33.1743 32.5427L33.051 31.5703L33.0157 31.3098C32.8572 29.886 33.9141 28.6185 35.3586 28.4622C35.3586 28.4622 35.3762 28.4622 35.3938 28.4622H35.6404H40.9075L47.7599 20.2493ZM46.8791 36.6404C46.6149 35.7202 45.6284 35.1819 44.6948 35.4423C43.9021 35.6681 43.3736 36.3973 43.4265 37.1961V37.4044L44.3249 42.6135L44.3601 42.8045C44.6243 43.7247 45.6108 44.263 46.5444 44.0025C47.3371 43.7768 47.8656 43.0475 47.8127 42.2488V42.0405L46.9143 36.8314L46.8791 36.6404ZM56.0391 35.4076C55.1583 35.2687 54.3128 35.7896 54.0662 36.6404L54.031 36.8314L53.1502 42.0405C52.9917 42.9781 53.6434 43.881 54.5947 44.0373C55.4754 44.1762 56.321 43.6553 56.5676 42.8045L56.6028 42.6135L57.4836 37.4044C57.6421 36.4668 56.9904 35.5639 56.0391 35.4076ZM50.4726 22.4718L45.4346 28.4449H55.5283L50.4903 22.4718H50.4726Z" fill="#FEF8D4"/>
</svg>
