<svg width="140" height="70" viewBox="0 0 140 70" fill="none" xmlns="http://www.w3.org/2000/svg">
<path d="M0 0H135L117 70H0V0Z" fill="#1C6D89"/>
<path d="M38.216 46.104C38.12 48.984 37.928 50.472 37.976 51.336C38.024 52.728 37.208 52.776 35.864 51.912C35.72 51.816 35.432 51.144 35.288 51.048C34.952 50.856 34.856 51.24 34.52 51.096C33.464 50.52 32.792 50.28 32.312 48.984L32.744 46.92L32.36 43.272L32.504 33.144L32.12 32.856L32.744 31.752L32.072 27.144L32.408 26.856L32.36 26.472L31.976 26.088L32.648 25.08L32.6 24.312L32.216 23.976L32.552 23.736C32.12 22.392 31.352 21.096 30.728 19.896L31.304 19.224L35.528 19.08C36.104 19.416 37.016 19.56 37.688 19.464L37.832 24.408L37.544 24.792L38.024 26.568L37.688 26.952V27.24L38.072 27.624L37.736 31.848L38.12 32.952L37.88 33.96L37.496 34.344L37.928 34.728L37.688 36.408L38.216 38.52L37.592 40.296L38.072 41.736L37.832 45.72L38.216 46.104ZM67.1979 32.472L65.3739 35.88L63.9819 36.648L61.6299 35.88L59.7099 36.984H56.8299L54.8619 33L55.9659 31.368L60.0459 31.416L62.3979 31.224L63.9819 31.32L66.7659 31.512L67.1979 32.472ZM98.2051 16.68L98.1091 19.08L93.3571 28.488C93.1171 29.064 92.8771 29.064 92.6851 30.456C92.0131 31.656 91.0531 34.776 90.2851 35.928L91.5331 37.032L93.5971 37.512L94.0291 37.896L92.9251 39.528L92.6371 39.768L89.8051 40.008L89.4211 40.44L86.6851 40.296L85.2931 39.144L84.8611 37.032L86.6851 32.04L86.5891 30.936L87.5491 28.872L87.4531 28.008L88.7011 27.24L91.0531 19.752L88.5571 18.84L88.1731 19.368L86.4931 19.032L84.6691 22.776H84.0931C83.9011 22.344 82.3651 17.688 82.4131 17.304L82.7491 16.008L82.3651 15.672L83.3251 14.904C84.0931 15.144 88.2691 14.568 88.5571 14.952L89.3731 14.76L89.7091 14.328C91.1971 15.048 94.6051 15.192 96.3331 14.856L98.2051 16.68ZM91.9651 48.024L91.8691 50.664L91.0531 51.48L89.8531 51.048L87.8371 51.48C87.5011 51.336 86.5411 50.952 86.1571 51.048L85.7731 51.24L85.2451 49.512L85.6291 45.576L86.0131 44.808L86.4451 45.192C86.8291 45.096 88.4131 44.76 88.7491 44.808L89.2291 45.192L89.6611 44.808H90.8131L91.9651 48.024Z" fill="#FEF8D4"/>
</svg>
