<svg width="135" height="70" viewBox="0 0 135 70" fill="none" xmlns="http://www.w3.org/2000/svg">
<path d="M0 0H135L117 70H0V0Z" fill="#333333"/>
<path d="M32.992 19.32L32.656 20.952L31.888 21.624L31.744 23.064L29.92 23.208L29.488 22.824L27.76 23.304C27.712 25.368 27.52 27.576 27.664 29.592C27.664 29.928 28.192 31.08 28.192 31.368C28.24 33.624 27.664 36.36 27.568 38.664L27.904 39L27.856 41.448L28.192 41.784C27.328 45.144 28.144 46.056 27.952 49.368C27.904 50.04 28.144 51.24 27.808 51.912L26.944 52.296L23.008 50.04L22.768 48.936L22.816 46.344L22.48 45C22.48 45 22.768 44.28 22.864 43.176L22.336 42.216C22.432 40.968 22.768 37.32 22.528 36.264L22.864 35.976L22 30.984L22.48 28.92L22.096 28.248C22.096 26.856 22.096 23.736 22.096 23.736L20.128 23.64H18.496L17.2 21.912L17.536 21.528L16.72 20.184L17.008 19.56L19.744 19.8C20.128 19.512 20.752 19.272 21.184 19.128L22.288 19.464L24.448 19.08L24.832 19.416L26.224 19.08C27.664 19.416 30.208 19.368 31.648 18.888L32.992 19.32ZM53.1978 51.48L52.6218 52.296C52.3818 52.2 51.8538 51.768 50.9898 51.336C50.8938 51.24 50.6058 50.856 50.5098 50.808C50.2698 50.712 50.2218 50.904 49.9818 50.856C49.2138 50.52 48.3018 48.984 48.3018 48.984L47.3898 48.6L47.6778 48.072L46.9098 47.304C46.9098 47.304 45.4218 43.032 44.3658 40.488L44.3178 39.768L43.5498 39.096L41.8698 40.2L41.3418 40.968L41.8218 41.976C41.4378 44.952 40.6698 43.704 41.1497 45.912L40.4297 46.728L41.1978 46.968L41.1497 52.056L40.0458 51.912L39.2298 51.096L38.5098 50.184L37.4058 49.992C37.3578 49.8 36.5898 48.648 36.5898 48.648L36.4938 45.048L36.1098 44.712C36.3978 44.04 36.3978 43.368 36.2538 42.696L35.8698 42.36L36.4458 40.488C36.2538 39.768 35.8698 38.712 35.8698 37.992C35.7738 36.504 36.1098 34.92 36.1578 33.432C36.2058 30.408 36.0618 27.336 36.0138 24.312L36.3498 23.976L35.8218 23.496L34.9578 19.56L36.4458 18.984L37.8858 19.32L41.3418 18.984L42.1098 19.32C44.9898 18.696 45.9498 19.56 48.3018 19.32L48.5898 18.984C49.5498 19.464 50.2698 21.432 51.5178 22.248L51.3738 24.072L51.0378 24.456L51.4218 24.792L51.2778 28.68L51.8058 30.408L51.2778 31.704L51.6138 32.424C51.4218 33.576 49.8378 35.4 49.0698 36.12L48.8298 37.176L50.3658 42.408L50.4618 43.464L51.3258 45.096L51.1818 45.672L51.7578 46.104L53.1978 51.48ZM45.8058 26.136C45.8538 25.848 45.4698 25.032 45.3738 24.744L45.6138 23.64L44.8458 23.016H43.9818L43.3098 23.352L42.3978 23.016H42.0618L41.3898 23.64C41.3418 24.936 41.1978 26.376 41.5818 27.528L40.9578 28.632L41.3418 28.968C41.1018 30.216 41.1497 32.424 41.7258 33.576L41.3898 33.912L41.5818 35.688C42.5418 34.392 44.5578 33.528 45.4698 32.232L45.7098 30.84L45.3258 30.504L45.6138 30.12C45.5178 29.544 45.5658 28.872 45.6138 28.248L45.1818 26.856L45.8058 26.136ZM72.7503 51.912L72.4623 52.248L70.2063 50.856L69.0543 49.56L67.9023 49.032L66.9423 46.776V45.624L65.6463 42.552L64.8303 41.88H64.1103L63.7263 42.216L63.0063 41.88L60.3183 42.216L59.8863 41.88L59.0223 47.544L58.4463 52.392L57.5823 52.632L56.6703 51.096L55.9503 49.8L55.1343 48.504C55.1343 48.504 54.4143 45.96 55.3743 43.224L54.9902 42.84L55.5663 41.4L55.8063 39.384L56.2383 37.176V34.824L57.2463 33.048L57.5823 28.824L58.0143 27.048L57.7743 25.704L58.8303 23.496C58.4463 22.344 58.3023 20.184 58.3983 19.032C61.4223 18.696 63.9183 18.84 66.9423 18.984L67.2783 19.416L69.2943 31.896L69.6783 32.232L69.4383 33.384L70.2543 38.28L70.5903 38.616L70.3023 38.952L71.5503 43.848L71.3583 44.952L72.1743 45.96C72.2703 46.632 72.7503 51.768 72.7503 51.912ZM65.0703 37.128C64.7343 35.4 64.3503 33.624 64.1103 31.896C63.9183 30.648 64.0143 29.304 63.8223 28.056C63.7743 27.912 63.1983 26.616 63.1023 26.424L61.3743 31.368L61.2303 32.376V33.24C60.7983 34.488 60.6543 35.976 60.5103 37.272L62.6703 37.656L65.0703 37.128ZM92.3564 39.432L92.0684 40.584L91.8284 40.92L92.1644 41.208L91.9244 41.928L92.0204 43.704C91.3004 45.816 87.6044 49.128 86.0204 50.664L84.1004 51L83.3804 50.664L80.9804 51.144L80.5964 50.808C79.2524 51.048 77.9084 51.432 76.4204 51.384L75.7004 50.712L75.8444 51.096L75.4604 50.04L75.6524 48.648L75.3164 48.312C75.3164 47.448 75.5564 46.344 75.3644 45.528L75.0284 45.192C75.3644 42.792 75.4604 39.72 75.4124 37.32L74.9324 36.6L75.1244 34.2L74.6924 33.816L75.1724 28.92C74.6444 27.816 74.7884 24.744 74.7884 24.744L74.3564 23.208L73.1084 19.896L74.1164 19.128C74.1164 19.128 80.0204 18.936 81.2684 18.84L81.7004 19.224L83.0444 18.84L86.2124 19.224L86.5484 18.84L87.9884 19.224L88.2764 18.84L90.7724 19.608L91.5404 22.632L91.8284 23.016L91.3004 24.024L91.7804 25.128L91.5884 28.728L92.0204 29.112L91.6364 33.24L92.0204 33.624L91.7324 35.784C92.1164 36.456 92.3084 37.512 92.2604 38.28L91.9724 38.616L92.3564 39.432ZM86.4044 39.912C86.3084 39.144 85.8284 37.704 85.7804 36.936C85.7324 35.784 86.0684 34.248 86.1644 33.048L85.8284 32.76L85.9724 27.528L85.6364 27.192L85.9244 26.856L85.4444 25.128L85.7324 24.792L85.3964 24.36L85.6844 24.024L85.5884 23.352L85.2524 23.016L82.8524 23.352L81.3644 23.016L80.5004 24.36L80.8844 24.792L80.5484 32.76L80.8844 33.048C81.0284 33.432 80.7884 34.824 80.7404 35.208L81.1244 35.592C81.2684 37.56 81.0764 40.2 80.8364 42.168L81.1724 42.504C81.4604 44.232 80.7884 45.48 81.6524 47.016H82.3724C83.1884 46.392 84.0524 47.4 84.7244 46.632L86.0684 44.664C86.5964 43.416 86.5484 41.16 86.4044 39.912ZM109.707 47.64L109.035 48.696L107.691 49.512L107.211 50.232L105.003 51.048L104.187 50.616L103.515 51H98.0913L97.0833 50.328L96.9393 47.448L96.6033 45.528C96.8433 44.424 97.1793 41.928 96.8433 40.776L96.4593 40.44L96.9393 37.608C96.6992 35.736 96.8433 35.112 96.8433 35.112L96.7473 34.008L96.7953 31.656L96.3153 31.272C96.6033 28.68 96.7953 26.472 96.1713 23.976L94.6833 20.328L95.3073 19.368C97.0833 19.128 99.9153 19.368 101.307 18.936L102.123 19.272L105.003 18.936L105.435 19.272C106.011 18.984 107.691 18.936 108.315 19.032L108.891 19.656L107.835 21.816C107.499 22.056 106.587 22.776 106.347 23.16C105.339 22.872 103.659 23.064 102.603 23.16L101.883 24.936L102.267 25.272L102.363 25.992L102.027 26.328L102.411 26.712L102.171 30.024C102.267 30.264 102.699 31.176 102.651 31.416L103.467 32.136L106.779 31.8L107.643 32.136L107.115 34.632L106.251 35.496L104.523 35.688L104.187 36.072L103.803 35.688L102.507 37.08V40.248L102.747 42.408L102.411 43.416L102.939 45L102.555 45.384L102.699 47.064L104.523 47.4L106.923 47.064L107.307 47.4C107.595 47.304 109.371 47.112 109.371 47.112L109.707 47.64Z" fill="#FEF8D4"/>
</svg>
