<svg width="135" height="70" viewBox="0 0 135 70" fill="none" xmlns="http://www.w3.org/2000/svg">
<path d="M135 0H0L18 70H135V0Z" fill="#333333"/>
<path d="M51.32 47.208C50.744 48.12 50.984 48.696 50.072 49.272L49.544 50.472C48.728 50.712 46.568 50.856 45.752 50.664L45.416 50.952L36.68 50.712L36.152 49.128L36.536 48.84L36.488 46.2L38.936 40.728L38.792 39.72C40.424 36.984 43.16 26.28 44.216 25.416L43.88 25.128L44.456 23.4L44.36 22.68H39.992L37.928 25.608H37.112C37.112 25.608 36.584 20.952 36.008 19.752L36.776 18.936C39.32 18.648 41.048 18.888 43.544 18.936C45.224 18.984 45.176 18.744 46.904 18.696L48.248 19.32L49.208 20.616L50.648 23.448C50.408 24.504 50.12 25.416 50.12 25.416L49.112 26.52L48.776 28.632C48.776 28.632 47.384 31.992 47.144 32.568C46.808 33.528 46.184 35.544 46.184 35.544L45.56 36.216L46.04 36.984C46.04 36.984 43.784 43.128 42.776 46.2L43.928 47.208C45.56 47.016 46.328 46.776 48.008 46.872L48.344 47.208C49.016 46.872 50.168 46.776 50.888 46.872L51.32 47.208ZM79.1041 32.472L77.2801 35.88L75.8881 36.648L73.5361 35.88L71.6161 36.984H68.7361L66.7681 33L67.8721 31.368L71.9521 31.416L74.3041 31.224L75.8881 31.32L78.6721 31.512L79.1041 32.472ZM102.575 46.104C102.479 48.984 102.287 50.472 102.335 51.336C102.383 52.728 101.567 52.776 100.223 51.912C100.079 51.816 99.7914 51.144 99.6474 51.048C99.3114 50.856 99.2154 51.24 98.8794 51.096C97.8234 50.52 97.1514 50.28 96.6714 48.984L97.1034 46.92L96.7194 43.272L96.8634 33.144L96.4794 32.856L97.1034 31.752L96.4314 27.144L96.7674 26.856L96.7194 26.472L96.3354 26.088L97.0074 25.08L96.9594 24.312L96.5754 23.976L96.9114 23.736C96.4794 22.392 95.7114 21.096 95.0874 19.896L95.6634 19.224L99.8874 19.08C100.463 19.416 101.375 19.56 102.047 19.464L102.191 24.408L101.903 24.792L102.383 26.568L102.047 26.952V27.24L102.431 27.624L102.095 31.848L102.479 32.952L102.239 33.96L101.855 34.344L102.287 34.728L102.047 36.408L102.575 38.52L101.951 40.296L102.431 41.736L102.191 45.72L102.575 46.104Z" fill="#FEF8D4"/>
</svg>
